<?xml version="1.0" encoding="utf-8" standalone="no"?>
<!DOCTYPE svg PUBLIC "-//W3C//DTD SVG 1.1//EN"
  "http://www.w3.org/Graphics/SVG/1.1/DTD/svg11.dtd">
<svg xmlns:xlink="http://www.w3.org/1999/xlink" width="1022.4pt" height="576pt" viewBox="0 0 1022.4 576" xmlns="http://www.w3.org/2000/svg" version="1.1">
 <metadata>
  <rdf:RDF xmlns:dc="http://purl.org/dc/elements/1.1/" xmlns:cc="http://creativecommons.org/ns#" xmlns:rdf="http://www.w3.org/1999/02/22-rdf-syntax-ns#">
   <cc:Work>
    <dc:type rdf:resource="http://purl.org/dc/dcmitype/StillImage"/>
    <dc:date>2022-05-10T16:27:12.437490</dc:date>
    <dc:format>image/svg+xml</dc:format>
    <dc:creator>
     <cc:Agent>
      <dc:title>Matplotlib v3.5.2, https://matplotlib.org/</dc:title>
     </cc:Agent>
    </dc:creator>
   </cc:Work>
  </rdf:RDF>
 </metadata>
 <defs>
  <style type="text/css">*{stroke-linejoin: round; stroke-linecap: butt}</style>
 </defs>
 <g id="figure_1">
  <g id="patch_1">
   <path d="M 0 576 
L 1022.4 576 
L 1022.4 0 
L 0 0 
z
" style="fill: #ffffff"/>
  </g>
  <g id="axes_1">
   <g id="patch_2">
    <path d="M 0 576 
L 0 0 
L 1022.4 0 
L 1022.4 576 
z
" clip-path="url(#p2003178ddf)" style="fill: #808080"/>
   </g>
   <g id="patch_3">
    <path d="M 457.238239 113.794974 
L 92.411746 365.326215 
L 484.9481 11.369582 
L 775.647732 317.467037 
z
" clip-path="url(#p2003178ddf)" style="fill: #78bfe6; fill-opacity: 0.664638"/>
   </g>
   <g id="patch_4">
    <path d="M 752.932284 412.641219 
L 267.318084 553.443697 
L 541.404894 575.256948 
z
" clip-path="url(#p2003178ddf)" style="fill: #5dd5fa; fill-opacity: 0.941724"/>
   </g>
   <g id="patch_5">
    <path d="M 7.29817 406.732582 
L 271.935639 150.465224 
L 72.993922 91.117526 
L 491.170652 479.804936 
z
" clip-path="url(#p2003178ddf)" style="fill: #e9eaff; fill-opacity: 0.941771"/>
   </g>
   <g id="patch_6">
    <path d="M 1006.281497 151.862173 
L 958.227443 260.256964 
L 440.549623 567.301124 
L 1012.061475 364.110591 
z
" clip-path="url(#p2003178ddf)" style="fill: #fdeade"/>
   </g>
   <g id="patch_7">
    <path d="M 360.628085 496.167132 
L 414.327771 296.255492 
L 47.71438 506.020845 
z
" clip-path="url(#p2003178ddf)" style="fill: #692f13; fill-opacity: 0.749864"/>
   </g>
   <g id="patch_8">
    <path d="M 721.814294 352.994454 
L 9.556283 409.970058 
L 457.653669 116.185948 
z
" clip-path="url(#p2003178ddf)" style="fill: #d6ccd8; fill-opacity: 0.97101"/>
   </g>
   <g id="patch_9">
    <path d="M 30.527024 256.049656 
L 26.697499 405.095729 
L 163.418883 404.411592 
z
" clip-path="url(#p2003178ddf)" style="fill: #d7fafb; fill-opacity: 0.506114"/>
   </g>
   <g id="patch_10">
    <path d="M 501.126722 64.264097 
L 873.228215 276.778468 
L 926.535035 543.235 
L 892.82735 496.001367 
L 759.284394 1.357313 
z
" clip-path="url(#p2003178ddf)" style="fill: #fdffff; fill-opacity: 0.966178"/>
   </g>
   <g id="patch_11">
    <path d="M 940.990633 43.068604 
L 780.795466 116.509708 
L 754.782185 212.463568 
L 734.624664 24.959234 
z
" clip-path="url(#p2003178ddf)" style="fill: #650021; fill-opacity: 0.771024"/>
   </g>
   <g id="patch_12">
    <path d="M 191.159584 258.406549 
L 956.854541 446.886662 
L 940.289936 494.371901 
L 431.562398 523.232598 
L 507.263768 457.022146 
z
" clip-path="url(#p2003178ddf)" style="fill: #011718"/>
   </g>
   <g id="patch_13">
    <path d="M 898.186541 24.739434 
L 459.75479 329.277082 
L 365.461651 141.193848 
L 178.791592 121.003376 
L 527.551135 0.117603 
z
" clip-path="url(#p2003178ddf)" style="fill: #3bc1ff; fill-opacity: 0.50778"/>
   </g>
   <g id="patch_14">
    <path d="M 683.731158 49.919318 
L 220.128893 484.811952 
L 725.960746 442.996129 
L 213.422451 510.985199 
z
" clip-path="url(#p2003178ddf)" style="fill: #321b1d; fill-opacity: 0.768643"/>
   </g>
   <g id="patch_15">
    <path d="M 216.092513 127.505088 
L 132.156043 415.713721 
L 73.418146 242.490589 
L 672.841867 200.913088 
L 745.820566 4.090306 
z
" clip-path="url(#p2003178ddf)" style="fill: #fff3ff"/>
   </g>
   <g id="patch_16">
    <path d="M 988.726638 165.774557 
L 996.826392 535.547901 
L 1021.551311 486.322549 
L 938.555982 64.669308 
L 791.263432 297.472336 
z
" clip-path="url(#p2003178ddf)" style="fill: #dfe0ef; fill-opacity: 0.775351"/>
   </g>
   <g id="patch_17">
    <path d="M 810.191906 537.023987 
L 818.53858 264.619978 
L 181.02282 426.310662 
L 401.749425 555.791242 
L 765.511799 565.044843 
z
" clip-path="url(#p2003178ddf)" style="fill: #15dfcd; fill-opacity: 0.424657"/>
   </g>
   <g id="patch_18">
    <path d="M 1021.251278 345.076427 
L 835.876293 566.683305 
L 1021.227956 45.668634 
z
" clip-path="url(#p2003178ddf)" style="fill: #9acae0; fill-opacity: 0.838213"/>
   </g>
   <g id="patch_19">
    <path d="M 431.822724 26.607183 
L 929.023028 138.822449 
L 376.122109 413.05788 
L 954.250717 4.361767 
z
" clip-path="url(#p2003178ddf)" style="fill: #ffeadd; fill-opacity: 0.667389"/>
   </g>
   <g id="patch_20">
    <path d="M 743.023862 568.334215 
L 804.840875 8.079539 
L 165.123826 222.680602 
L 339.576313 458.298944 
L 1005.388718 317.430118 
L 743.023862 568.334215 
z
" clip-path="url(#p2003178ddf)" style="fill: none"/>
   </g>
   <g id="patch_21">
    <path d="M 851.677696 543.483901 
L 1020.268862 132.059139 
L 309.614655 39.328846 
L 913.256997 277.672012 
z
" clip-path="url(#p2003178ddf)" style="fill: #4b98b2; fill-opacity: 0.730607"/>
   </g>
   <g id="patch_22">
    <path d="M 161.824834 170.404197 
L 352.123009 245.491417 
L 601.926636 484.259078 
L 806.735027 203.18775 
L 910.048695 121.091954 
z
" clip-path="url(#p2003178ddf)" style="fill: #132525; fill-opacity: 0.984772"/>
   </g>
   <g id="patch_23">
    <path d="M 73.957208 492.456535 
L 966.810771 373.198427 
L 892.70917 27.370542 
L 196.028215 120.938595 
z
" clip-path="url(#p2003178ddf)" style="fill: #ffffff"/>
   </g>
   <g id="patch_24">
    <path d="M 945.557197 139.835632 
L 698.302914 332.327289 
L 249.493505 569.216892 
L 51.451363 546.82991 
L 430.264529 297.102114 
z
" clip-path="url(#p2003178ddf)" style="fill: #866617; fill-opacity: 0.90566"/>
   </g>
   <g id="patch_25">
    <path d="M 579.839543 325.251974 
L 389.173677 321.459687 
L 998.267394 167.243157 
L 500.578035 54.467961 
z
" clip-path="url(#p2003178ddf)" style="fill: #000404; fill-opacity: 0.7607"/>
   </g>
   <g id="patch_26">
    <path d="M 666.06539 105.66329 
L 175.618743 342.101849 
L 434.785794 560.131247 
z
" clip-path="url(#p2003178ddf)" style="fill: #1d99f9; fill-opacity: 0.943262"/>
   </g>
   <g id="patch_27">
    <path d="M 400.623639 491.112223 
L 954.107754 103.363832 
L 90.243 22.105312 
z
" clip-path="url(#p2003178ddf)" style="fill: #3f5a41; fill-opacity: 0.981652"/>
   </g>
   <g id="patch_28">
    <path d="M 790.472226 540.327281 
L 410.204114 193.086676 
L 93.722448 312.28815 
z
" clip-path="url(#p2003178ddf)" style="fill: #75112f; fill-opacity: 0.432775"/>
   </g>
   <g id="patch_29">
    <path d="M 994.781977 428.481034 
L 796.524793 222.717295 
L 789.632083 220.93122 
L 890.819199 335.695708 
L 760.872901 33.568158 
z
" clip-path="url(#p2003178ddf)" style="fill: #000022"/>
   </g>
   <g id="patch_30">
    <path d="M 186.2934 266.468483 
L 97.209381 341.449399 
L 794.412996 572.187753 
L 477.986259 574.701507 
L 688.532443 345.662607 
z
" clip-path="url(#p2003178ddf)" style="fill: #f0ffff"/>
   </g>
   <g id="patch_31">
    <path d="M 285.692605 406.757849 
L 160.908367 547.359721 
L 858.516675 478.853802 
L 660.784679 4.189911 
z
" clip-path="url(#p2003178ddf)" style="fill: #effbeb; fill-opacity: 0.957424"/>
   </g>
   <g id="patch_32">
    <path d="M 455.745631 69.12628 
L 84.368102 204.821605 
L 500.918673 34.835363 
L 6.313215 453.055476 
z
" clip-path="url(#p2003178ddf)" style="fill: #000004; fill-opacity: 0.90222"/>
   </g>
   <g id="patch_33">
    <path d="M 170.510864 342.953248 
L 365.990311 288.621616 
L 727.681156 389.998641 
L 584.97975 117.45394 
L 211.352865 105.625208 
z
" clip-path="url(#p2003178ddf)" style="fill: #000222; fill-opacity: 0.857013"/>
   </g>
   <g id="patch_34">
    <path d="M 252.715549 382.333157 
L 487.834963 185.497754 
L 613.988369 443.754952 
L 309.629749 64.695753 
L 252.715549 382.333157 
z
" clip-path="url(#p2003178ddf)" style="fill: none"/>
   </g>
   <g id="patch_35">
    <path d="M 406.01523 310.755754 
L 413.47767 42.236872 
L 278.768165 338.524691 
L 519.483265 545.240209 
L 279.593186 416.115483 
z
" clip-path="url(#p2003178ddf)" style="fill: #7db173; fill-opacity: 0.872429"/>
   </g>
   <g id="patch_36">
    <path d="M 604.600583 575.457335 
L 73.661944 571.835105 
L 706.687105 568.89258 
z
" clip-path="url(#p2003178ddf)" style="fill: #c0d1c7"/>
   </g>
   <g id="patch_37">
    <path d="M 992.645707 416.939781 
L 877.096573 497.795344 
L 593.093158 568.098347 
L 60.13996 190.660419 
z
" clip-path="url(#p2003178ddf)" style="fill: #161428; fill-opacity: 0.932935"/>
   </g>
   <g id="patch_38">
    <path d="M 99.811328 314.437227 
L 801.579585 559.878993 
L 363.69032 302.291304 
L 801.817395 331.241395 
z
" clip-path="url(#p2003178ddf)" style="fill: #555826; fill-opacity: 0.930073"/>
   </g>
   <g id="patch_39">
    <path d="M 809.74543 270.972019 
L 652.049394 506.258745 
L 226.146214 159.695706 
z
" clip-path="url(#p2003178ddf)" style="fill: #e197f1; fill-opacity: 0.401307"/>
   </g>
   <g id="patch_40">
    <path d="M 808.200243 117.96329 
L 618.327421 338.716297 
L 981.265159 15.435699 
L 974.506974 539.627125 
z
" clip-path="url(#p2003178ddf)" style="fill: #00836f; fill-opacity: 0.310011"/>
   </g>
   <g id="patch_41">
    <path d="M 944.27518 460.924923 
L 504.666084 18.544728 
L 630.700951 541.090175 
L 288.921878 261.934298 
z
" clip-path="url(#p2003178ddf)" style="fill: #decef5; fill-opacity: 0.848741"/>
   </g>
   <g id="patch_42">
    <path d="M 242.803458 286.270359 
L 588.922644 360.167385 
L 752.550823 474.46003 
z
" clip-path="url(#p2003178ddf)" style="fill: #fdd96c; fill-opacity: 0.875966"/>
   </g>
   <g id="patch_43">
    <path d="M 203.522045 204.832128 
L 379.680424 288.429897 
L 313.51153 124.824913 
z
" clip-path="url(#p2003178ddf)" style="fill: #eaccfe; fill-opacity: 0.788128"/>
   </g>
   <g id="patch_44">
    <path d="M 1008.596608 338.024301 
L 306.616075 298.540608 
L 144.111522 561.200366 
L 346.630468 85.751094 
L 135.776926 530.443245 
z
" clip-path="url(#p2003178ddf)" style="fill: #f3fffe"/>
   </g>
   <g id="patch_45">
    <path d="M 125.945571 509.674489 
L 315.811605 440.650998 
L 843.429095 536.730095 
z
" clip-path="url(#p2003178ddf)" style="fill: #f2ff07; fill-opacity: 0.876663"/>
   </g>
   <g id="patch_46">
    <path d="M 145.791094 359.647155 
L 598.12447 206.098065 
L 387.766471 350.373351 
L 151.453877 403.943601 
L 21.735063 329.783671 
z
" clip-path="url(#p2003178ddf)" style="fill: #fff7d8; fill-opacity: 0.733038"/>
   </g>
   <g id="patch_47">
    <path d="M 244.938045 422.878151 
L 706.694239 202.606908 
L 56.80739 4.085857 
L 741.364881 317.352042 
z
" clip-path="url(#p2003178ddf)" style="fill: #d0ffff; fill-opacity: 0.452121"/>
   </g>
   <g id="patch_48">
    <path d="M 547.342069 276.484118 
L 957.771997 501.325404 
L 774.984993 29.369079 
L 942.391318 510.889561 
L 1007.687094 449.683126 
z
" clip-path="url(#p2003178ddf)" style="fill: #d3dcd4; fill-opacity: 0.753842"/>
   </g>
   <g id="patch_49">
    <path d="M 612.495778 438.389212 
L 997.596139 153.703361 
L 727.099404 304.04937 
z
" clip-path="url(#p2003178ddf)" style="fill: #000849; fill-opacity: 0.85724"/>
   </g>
   <g id="patch_50">
    <path d="M 500.560746 263.872517 
L 609.050392 505.478278 
L 508.471533 423.109151 
z
" clip-path="url(#p2003178ddf)" style="fill: #697925; fill-opacity: 0.765462"/>
   </g>
   <g id="patch_51">
    <path d="M 654.997919 79.813387 
L 449.078931 226.678382 
L 849.843926 103.247227 
L 271.133007 374.053274 
L 164.799251 240.644891 
z
" clip-path="url(#p2003178ddf)" style="fill: #d5033c"/>
   </g>
   <g id="patch_52">
    <path d="M 724.449987 66.714141 
L 13.562775 244.208375 
L 3.074853 386.003591 
z
" clip-path="url(#p2003178ddf)" style="fill: #7bb5cd"/>
   </g>
   <g id="patch_53">
    <path d="M 1019.852938 478.794168 
L 135.095619 404.370408 
L 940.98808 398.997766 
z
" clip-path="url(#p2003178ddf)" style="fill: #cebee2; fill-opacity: 0.343959"/>
   </g>
   <g id="patch_54">
    <path d="M 726.796987 99.532362 
L 413.602022 2.158263 
L 131.426545 18.590862 
z
" clip-path="url(#p2003178ddf)" style="fill: #2792da; fill-opacity: 0.385861"/>
   </g>
   <g id="patch_55">
    <path d="M 863.93973 490.688786 
L 534.528908 71.653938 
L 907.804603 149.288753 
z
" clip-path="url(#p2003178ddf)" style="fill: #006ab3; fill-opacity: 0.988604"/>
   </g>
   <g id="patch_56">
    <path d="M 551.50962 72.578669 
L 685.677331 235.859163 
L 884.632935 104.239945 
L 430.830509 320.36105 
L 67.665248 400.890238 
z
" clip-path="url(#p2003178ddf)" style="fill: #2a0959; fill-opacity: 0.125088"/>
   </g>
   <g id="patch_57">
    <path d="M 914.225934 571.981571 
L 503.031575 560.023293 
L 828.587162 556.531625 
L 778.189311 471.517215 
L 664.22447 318.98463 
z
" clip-path="url(#p2003178ddf)" style="fill: #ffffed"/>
   </g>
   <g id="patch_58">
    <path d="M 121.020247 258.124563 
L 778.946142 568.61756 
L 214.364229 351.91182 
L 572.477501 382.852851 
z
" clip-path="url(#p2003178ddf)" style="fill: #badbf6; fill-opacity: 0.541325"/>
   </g>
   <g id="patch_59">
    <path d="M 5.307528 78.086901 
L 764.156781 102.017515 
L 175.567933 528.881157 
L 9.096148 221.314559 
z
" clip-path="url(#p2003178ddf)" style="fill: #001017; fill-opacity: 0.496304"/>
   </g>
   <g id="patch_60">
    <path d="M 500.096418 541.614256 
L 516.748052 193.162349 
L 986.786258 160.879199 
L 862.141255 488.988768 
z
" clip-path="url(#p2003178ddf)" style="fill: #00001d; fill-opacity: 0.679773"/>
   </g>
   <g id="patch_61">
    <path d="M 979.503345 246.81043 
L 987.508918 341.208443 
L 1019.320679 175.091497 
L 496.936738 82.667375 
z
" clip-path="url(#p2003178ddf)" style="fill: #64b1cb; fill-opacity: 0.620574"/>
   </g>
   <g id="patch_62">
    <path d="M 959.616093 287.740646 
L 1013.962594 9.52828 
L 831.1368 4.199876 
L 419.610677 464.048232 
z
" clip-path="url(#p2003178ddf)" style="fill: #d3e2e8; fill-opacity: 0.866951"/>
   </g>
   <g id="patch_63">
    <path d="M 787.301648 98.296884 
L 487.98997 219.717984 
L 151.310046 484.888722 
L 2.654126 445.698087 
z
" clip-path="url(#p2003178ddf)" style="fill: #f2fff6; fill-opacity: 0.979798"/>
   </g>
   <g id="patch_64">
    <path d="M 807.176839 326.069186 
L 169.388215 341.53533 
L 1013.613371 504.335576 
L 709.121817 44.073895 
L 794.38736 206.482261 
z
" clip-path="url(#p2003178ddf)" style="fill: #cecad1; fill-opacity: 0.748842"/>
   </g>
   <g id="patch_65">
    <path d="M 944.794666 287.989078 
L 432.567529 519.948627 
L 365.575301 193.733139 
z
" clip-path="url(#p2003178ddf)" style="fill: #ffff9e; fill-opacity: 0.985392"/>
   </g>
   <g id="patch_66">
    <path d="M 856.3976 177.960007 
L 30.808941 80.106512 
L 209.216254 262.438611 
L 955.849824 554.861445 
z
" clip-path="url(#p2003178ddf)" style="fill: #dde7f4; fill-opacity: 0.096599"/>
   </g>
   <g id="patch_67">
    <path d="M 33.673967 358.023537 
L 932.846758 309.792811 
L 71.589201 562.316552 
z
" clip-path="url(#p2003178ddf)" style="fill: #490004; fill-opacity: 0.233973"/>
   </g>
   <g id="patch_68">
    <path d="M 714.072504 303.84213 
L 484.560815 516.715495 
L 21.637362 67.706689 
L 220.839536 294.783478 
z
" clip-path="url(#p2003178ddf)" style="fill: #54175b; fill-opacity: 0.57414"/>
   </g>
   <g id="patch_69">
    <path d="M 917.509109 155.841728 
L 850.650768 248.75572 
L 259.461169 206.106641 
L 762.567647 386.50334 
L 263.106129 288.484363 
z
" clip-path="url(#p2003178ddf)" style="fill: #2e5030; fill-opacity: 0.471364"/>
   </g>
   <g id="patch_70">
    <path d="M 365.209544 529.04096 
L 55.530839 112.304296 
L 206.967253 244.331983 
z
" clip-path="url(#p2003178ddf)" style="fill: #2889b0; fill-opacity: 0.062369"/>
   </g>
   <g id="patch_71">
    <path d="M 312.898172 96.348521 
L 521.722897 127.489039 
L 804.707515 370.510596 
L 604.053579 405.733418 
L 1015.586719 269.890056 
z
" clip-path="url(#p2003178ddf)" style="fill: #7bb6d9; fill-opacity: 0.976624"/>
   </g>
   <g id="patch_72">
    <path d="M 855.119901 29.74458 
L 853.812129 157.778964 
L 591.832656 271.8016 
L 242.10892 353.860431 
z
" clip-path="url(#p2003178ddf)" style="fill: #d7f7ff; fill-opacity: 0.300045"/>
   </g>
   <g id="patch_73">
    <path d="M 92.800763 392.293653 
L 534.17661 431.192738 
L 903.287895 262.658189 
L 183.958014 203.158824 
z
" clip-path="url(#p2003178ddf)" style="fill: #dbffb5; fill-opacity: 0.725058"/>
   </g>
   <g id="patch_74">
    <path d="M 1020.75694 69.04953 
L 344.962385 10.515705 
L 410.461881 574.44647 
L 284.333149 204.57745 
L 975.172722 256.020256 
z
" clip-path="url(#p2003178ddf)" style="fill: #e4e0f7; fill-opacity: 0.336735"/>
   </g>
   <g id="patch_75">
    <path d="M 603.484026 319.17594 
L 886.2415 369.234048 
L 398.984769 345.081606 
L 928.417399 121.760384 
z
" clip-path="url(#p2003178ddf)" style="fill: #005a82; fill-opacity: 0.834282"/>
   </g>
   <g id="patch_76">
    <path d="M 585.147722 481.579771 
L 554.961323 120.432127 
L 788.265805 82.229293 
L 995.253783 267.125916 
L 304.592516 553.929482 
z
" clip-path="url(#p2003178ddf)" style="fill: #85e7a5; fill-opacity: 0.523478"/>
   </g>
   <g id="patch_77">
    <path d="M 179.061656 308.630389 
L 631.065715 519.381778 
L 542.331324 97.280573 
L 315.86598 352.671308 
z
" clip-path="url(#p2003178ddf)" style="fill: #1ab8e2; fill-opacity: 0.90262"/>
   </g>
   <g id="patch_78">
    <path d="M 940.749427 134.798261 
L 872.016077 491.021209 
L 754.064569 445.591394 
z
" clip-path="url(#p2003178ddf)" style="fill: #00004c"/>
   </g>
   <g id="patch_79">
    <path d="M 611.927129 258.097198 
L 443.226591 57.405629 
L 560.889757 393.287517 
L 554.736823 519.620069 
L 50.687997 544.542806 
z
" clip-path="url(#p2003178ddf)" style="fill: #852803; fill-opacity: 0.559486"/>
   </g>
   <g id="patch_80">
    <path d="M 1001.952387 148.630974 
L 297.774586 347.371295 
L 659.509934 75.58985 
z
" clip-path="url(#p2003178ddf)" style="fill: #062925; fill-opacity: 0.876825"/>
   </g>
   <g id="patch_81">
    <path d="M 213.259974 290.61691 
L 185.846539 131.612986 
L 332.048969 483.399787 
L 979.435846 210.499637 
z
" clip-path="url(#p2003178ddf)" style="fill: #7fa79f; fill-opacity: 0.105818"/>
   </g>
   <g id="patch_82">
    <path d="M 105.596395 163.478157 
L 24.200107 280.674553 
L 763.720145 534.978646 
L 138.283786 567.678417 
z
" clip-path="url(#p2003178ddf)" style="fill: #e9ccb7; fill-opacity: 0.866421"/>
   </g>
   <g id="patch_83">
    <path d="M 901.990566 119.240068 
L 130.775091 406.292465 
L 530.54152 409.036779 
z
" clip-path="url(#p2003178ddf)" style="fill: #d4bbd8; fill-opacity: 0.556715"/>
   </g>
   <g id="patch_84">
    <path d="M 723.341479 190.298577 
L 820.630768 297.463086 
L 1008.554988 12.089171 
z
" clip-path="url(#p2003178ddf)" style="fill: #2fa8e6; fill-opacity: 0.133891"/>
   </g>
   <g id="patch_85">
    <path d="M 270.761719 321.197651 
L 261.562611 487.761646 
L 12.200726 42.309146 
L 369.077077 24.181715 
L 54.162987 62.806818 
z
" clip-path="url(#p2003178ddf)" style="fill: #2f313d; fill-opacity: 0.912873"/>
   </g>
   <g id="patch_86">
    <path d="M 146.373858 287.22428 
L 648.523828 76.869999 
L 209.996229 407.281873 
L 784.219547 242.657599 
L 245.603068 571.957504 
z
" clip-path="url(#p2003178ddf)" style="fill: #b8ffff; fill-opacity: 0.8108"/>
   </g>
   <g id="patch_87">
    <path d="M 964.926737 58.560998 
L 381.233888 236.879636 
L 609.196802 110.232726 
z
" clip-path="url(#p2003178ddf)" style="fill: #d5d3f8; fill-opacity: 0.92275"/>
   </g>
   <g id="patch_88">
    <path d="M 75.790348 248.526808 
L 431.76222 227.993897 
L 957.436731 139.505505 
L 825.279524 0.229089 
z
" clip-path="url(#p2003178ddf)" style="fill: #edefe4; fill-opacity: 0.910853"/>
   </g>
   <g id="patch_89">
    <path d="M 814.842995 166.622035 
L 961.922051 82.417176 
L 611.40481 575.212636 
z
" clip-path="url(#p2003178ddf)" style="fill: #fcff73; fill-opacity: 0.206926"/>
   </g>
   <g id="patch_90">
    <path d="M 470.400088 48.120387 
L 150.316031 253.978227 
L 146.161288 291.357555 
L 46.679602 238.571963 
L 227.617802 310.940759 
z
" clip-path="url(#p2003178ddf)" style="fill: #f8251c; fill-opacity: 0.090003"/>
   </g>
   <g id="patch_91">
    <path d="M 920.282873 240.075805 
L 233.622059 224.692112 
L 993.330968 245.404498 
L 911.694429 276.515512 
L 447.447978 386.392374 
z
" clip-path="url(#p2003178ddf)" style="fill: #fffff1"/>
   </g>
   <g id="patch_92">
    <path d="M 718.451156 71.396105 
L 235.497149 195.857418 
L 457.578239 575.571437 
L 657.356078 521.548377 
z
" clip-path="url(#p2003178ddf)" style="fill: #a9dbe2; fill-opacity: 0.986725"/>
   </g>
   <g id="patch_93">
    <path d="M 29.049575 493.959004 
L 978.074551 471.734507 
L 0.101065 468.206092 
L 826.227971 325.615548 
L 89.473408 323.677832 
z
" clip-path="url(#p2003178ddf)" style="fill: #6c140e; fill-opacity: 0.762729"/>
   </g>
   <g id="patch_94">
    <path d="M 198.755732 303.071862 
L 504.594487 275.884624 
L 235.375783 424.777234 
L 829.954182 513.602485 
L 281.03531 549.062919 
z
" clip-path="url(#p2003178ddf)" style="fill: #4dfb62; fill-opacity: 0.561021"/>
   </g>
   <g id="patch_95">
    <path d="M 200.189133 281.11078 
L 387.591129 370.63879 
L 342.559436 16.328728 
L 722.509441 67.999217 
z
" clip-path="url(#p2003178ddf)" style="fill: #83beff"/>
   </g>
   <g id="patch_96">
    <path d="M 784.459239 56.041725 
L 370.163196 95.075847 
L 385.02097 53.042836 
L 5.674521 147.980896 
z
" clip-path="url(#p2003178ddf)" style="fill: #41b876; fill-opacity: 0.000239"/>
   </g>
   <g id="patch_97">
    <path d="M 444.511522 397.260224 
L 651.607022 71.277998 
L 399.740241 33.617051 
L 738.089843 574.814335 
z
" clip-path="url(#p2003178ddf)" style="fill: #79badf; fill-opacity: 0.882758"/>
   </g>
   <g id="patch_98">
    <path d="M 850.284385 526.580403 
L 87.418603 533.876672 
L 881.36217 319.337125 
L 577.757086 21.174926 
L 79.135344 3.713939 
z
" clip-path="url(#p2003178ddf)" style="fill: #192f50; fill-opacity: 0.563675"/>
   </g>
   <g id="patch_99">
    <path d="M 114.21774 564.657835 
L 363.406793 237.062149 
L 434.801731 223.798419 
L 925.855445 124.521306 
z
" clip-path="url(#p2003178ddf)" style="fill: #ffc9ba; fill-opacity: 0.551693"/>
   </g>
   <g id="patch_100">
    <path d="M 297.440029 13.58829 
L 109.434636 561.133678 
L 194.953788 58.366046 
L 434.754458 186.249579 
L 297.440029 13.58829 
z
" clip-path="url(#p2003178ddf)" style="fill: none"/>
   </g>
   <g id="patch_101">
    <path d="M 544.702229 160.598861 
L 685.875302 400.356622 
L 485.981303 511.607238 
L 840.305234 286.967579 
L 83.665784 121.23399 
z
" clip-path="url(#p2003178ddf)" style="fill: #ffabaf"/>
   </g>
   <g id="patch_102">
    <path d="M 549.967502 46.113318 
L 696.372184 171.273108 
L 747.175536 38.691659 
L 645.937149 64.728102 
L 54.309862 31.0753 
z
" clip-path="url(#p2003178ddf)" style="fill: #27536f; fill-opacity: 0.274966"/>
   </g>
   <g id="patch_103">
    <path d="M 612.135089 482.557445 
L 158.614252 488.761215 
L 937.529742 88.239363 
L 174.587181 507.093423 
z
" clip-path="url(#p2003178ddf)" style="fill: #5c3700"/>
   </g>
   <g id="patch_104">
    <path d="M 1020.08987 197.355894 
L 481.661874 122.179412 
L 340.153833 162.570104 
z
" clip-path="url(#p2003178ddf)" style="fill: #349db6; fill-opacity: 0.818303"/>
   </g>
   <g id="patch_105">
    <path d="M 796.633865 515.660416 
L 379.503248 563.089545 
L 234.556577 493.816363 
L 1011.332547 494.785665 
z
" clip-path="url(#p2003178ddf)" style="fill: #e960f2; fill-opacity: 0.001817"/>
   </g>
   <g id="patch_106">
    <path d="M 607.185627 361.471289 
L 349.694881 360.119932 
L 276.84247 570.5027 
L 1011.99103 572.280206 
z
" clip-path="url(#p2003178ddf)" style="fill: #cabeda; fill-opacity: 0.869865"/>
   </g>
   <g id="patch_107">
    <path d="M 681.882503 76.679824 
L 737.55957 246.846111 
L 1014.066783 226.447927 
L 627.271622 249.800082 
L 183.190174 117.69946 
z
" clip-path="url(#p2003178ddf)" style="fill: #fffff8; fill-opacity: 0.973762"/>
   </g>
   <g id="patch_108">
    <path d="M 96.692986 565.657605 
L 239.19473 335.9495 
L 216.744193 449.952748 
L 411.571091 239.45574 
L 637.301948 484.714583 
z
" clip-path="url(#p2003178ddf)" style="fill: #ff9d61; fill-opacity: 0.605728"/>
   </g>
   <g id="patch_109">
    <path d="M 543.738121 190.4242 
L 31.597609 459.911654 
L 335.063931 431.419167 
z
" clip-path="url(#p2003178ddf)" style="fill: #a7eead; fill-opacity: 0.177028"/>
   </g>
   <g id="patch_110">
    <path d="M 237.558511 169.787211 
L 313.097456 8.238278 
L 896.970089 36.021605 
z
" clip-path="url(#p2003178ddf)" style="fill: #70f0fc; fill-opacity: 0.367366"/>
   </g>
   <g id="patch_111">
    <path d="M 758.868027 465.23788 
L 89.605824 480.556883 
L 522.683013 142.510182 
L 608.331288 105.068808 
L 10.938881 297.829908 
z
" clip-path="url(#p2003178ddf)" style="fill: #a0adb4; fill-opacity: 0.922824"/>
   </g>
   <g id="patch_112">
    <path d="M 768.241506 516.552213 
L 518.759774 328.788616 
L 647.65221 232.39433 
L 382.486003 15.742123 
z
" clip-path="url(#p2003178ddf)" style="fill: #d5a6ea; fill-opacity: 0.148706"/>
   </g>
   <g id="patch_113">
    <path d="M 487.44183 244.290045 
L 468.280366 260.121844 
L 270.735997 294.16785 
L 791.55148 430.863989 
z
" clip-path="url(#p2003178ddf)" style="fill: #35a1f0; fill-opacity: 0.433639"/>
   </g>
   <g id="patch_114">
    <path d="M 402.23597 234.731697 
L 923.433969 548.704902 
L 469.897802 560.176634 
L 178.269761 415.173556 
z
" clip-path="url(#p2003178ddf)" style="fill: #e9dbff; fill-opacity: 0.78477"/>
   </g>
   <g id="patch_115">
    <path d="M 327.575489 152.11246 
L 215.242856 456.765578 
L 525.588038 190.344091 
z
" clip-path="url(#p2003178ddf)" style="fill: #751214; fill-opacity: 0.560799"/>
   </g>
   <g id="patch_116">
    <path d="M 163.678601 199.298016 
L 86.311546 310.349045 
L 822.931867 531.054611 
z
" clip-path="url(#p2003178ddf)" style="fill: #048da3; fill-opacity: 0.526668"/>
   </g>
   <g id="patch_117">
    <path d="M 992.981614 296.791725 
L 1021.747459 425.860383 
L 631.461242 575.110881 
L 796.581998 456.101084 
z
" clip-path="url(#p2003178ddf)" style="fill: #e1dce0; fill-opacity: 0.919426"/>
   </g>
   <g id="patch_118">
    <path d="M 437.20779 34.655169 
L 828.501254 308.353313 
L 877.024022 100.654096 
L 479.422537 339.273717 
z
" clip-path="url(#p2003178ddf)" style="fill: #60bdeb; fill-opacity: 0.997896"/>
   </g>
   <g id="patch_119">
    <path d="M 565.011295 492.533568 
L 57.60541 28.431535 
L 604.897549 194.133861 
L 956.644179 74.929149 
z
" clip-path="url(#p2003178ddf)" style="fill: #321e8f; fill-opacity: 0.011973"/>
   </g>
   <g id="patch_120">
    <path d="M 159.084132 278.698707 
L 660.990815 472.260542 
L 752.901989 546.701923 
z
" clip-path="url(#p2003178ddf)" style="fill: #dbffdf; fill-opacity: 0.975612"/>
   </g>
   <g id="patch_121">
    <path d="M 859.575933 205.762722 
L 745.63058 362.764195 
L 104.198755 379.826059 
L 651.296321 206.587429 
L 859.575933 205.762722 
z
" clip-path="url(#p2003178ddf)" style="fill: none"/>
   </g>
   <g id="patch_122">
    <path d="M 34.915156 124.416175 
L 818.766232 533.852468 
L 362.24502 160.450252 
L 62.650701 257.905141 
z
" clip-path="url(#p2003178ddf)" style="fill: #202533"/>
   </g>
   <g id="patch_123">
    <path d="M 265.314548 304.75986 
L 590.141401 431.670488 
L 957.903814 154.078864 
L 337.102515 333.698675 
z
" clip-path="url(#p2003178ddf)" style="fill: #da76ff; fill-opacity: 0.75651"/>
   </g>
   <g id="patch_124">
    <path d="M 238.380064 161.424415 
L 521.60709 332.542593 
L 206.74346 461.390422 
z
" clip-path="url(#p2003178ddf)" style="fill: #ffc590; fill-opacity: 0.307993"/>
   </g>
   <g id="patch_125">
    <path d="M 798.204096 149.008203 
L 314.469389 431.745745 
L 645.695156 366.705008 
L 317.922144 109.6708 
z
" clip-path="url(#p2003178ddf)" style="fill: #20c99c; fill-opacity: 0.428485"/>
   </g>
   <g id="patch_126">
    <path d="M 279.695844 141.658555 
L 125.471407 316.735474 
L 958.327305 105.005314 
L 627.469846 527.48576 
L 943.497879 531.712611 
z
" clip-path="url(#p2003178ddf)" style="fill: #fff4f3"/>
   </g>
   <g id="patch_127">
    <path d="M 723.548926 324.46019 
L 406.803881 144.112204 
L 978.211973 279.181648 
L 1019.505189 18.968044 
z
" clip-path="url(#p2003178ddf)" style="fill: #bbd2d0; fill-opacity: 0.803988"/>
   </g>
   <g id="patch_128">
    <path d="M 937.682111 326.50487 
L 311.727146 93.43636 
L 523.483307 566.152464 
L 257.952201 165.002991 
L 249.002285 388.506157 
z
" clip-path="url(#p2003178ddf)" style="fill: #00004e; fill-opacity: 0.91685"/>
   </g>
   <g id="patch_129">
    <path d="M 816.747573 420.331972 
L 251.951437 534.833598 
L 720.209893 354.590522 
L 718.837124 500.507879 
z
" clip-path="url(#p2003178ddf)" style="fill: #b8ffff"/>
   </g>
   <g id="patch_130">
    <path d="M 284.852665 413.317438 
L 48.651586 199.915354 
L 450.24214 306.094488 
L 346.131028 26.875824 
L 1016.819026 273.889513 
z
" clip-path="url(#p2003178ddf)" style="fill: #a2eaff; fill-opacity: 0.233868"/>
   </g>
   <g id="patch_131">
    <path d="M 859.760311 101.712171 
L 695.499377 53.694023 
L 894.908793 11.225017 
L 561.559281 456.49952 
z
" clip-path="url(#p2003178ddf)" style="fill: #f6dcd3; fill-opacity: 0.580899"/>
   </g>
   <g id="patch_132">
    <path d="M 922.548459 275.18251 
L 356.043142 495.95035 
L 606.347818 390.023497 
L 585.08763 183.79331 
z
" clip-path="url(#p2003178ddf)" style="fill: #ffffff"/>
   </g>
   <g id="patch_133">
    <path d="M 468.280019 349.778495 
L 103.525191 452.264919 
L 862.721046 279.884691 
L 983.088402 18.803373 
z
" clip-path="url(#p2003178ddf)" style="fill: #05a1ff; fill-opacity: 0.076999"/>
   </g>
   <g id="patch_134">
    <path d="M 846.925507 519.890451 
L 850.256039 505.972255 
L 344.965619 496.876739 
L 336.209865 495.89952 
L 839.294376 429.537962 
z
" clip-path="url(#p2003178ddf)" style="fill: #0c1830; fill-opacity: 0.981753"/>
   </g>
   <g id="patch_135">
    <path d="M 530.601884 451.156772 
L 971.358222 105.849589 
L 220.541531 18.64629 
z
" clip-path="url(#p2003178ddf)" style="fill: #4d4b33; fill-opacity: 0.172872"/>
   </g>
   <g id="patch_136">
    <path d="M 753.592032 34.286971 
L 704.029487 1.387211 
L 773.844958 423.920144 
L 3.832393 408.873235 
L 20.246433 488.243057 
z
" clip-path="url(#p2003178ddf)" style="fill: #f3f8f8; fill-opacity: 0.924551"/>
   </g>
   <g id="patch_137">
    <path d="M 94.450284 174.672069 
L 548.142722 356.755262 
L 944.09401 498.966158 
z
" clip-path="url(#p2003178ddf)" style="fill: #53bca1; fill-opacity: 0.206462"/>
   </g>
   <g id="patch_138">
    <path d="M 1002.274098 35.156038 
L 78.033416 486.396942 
L 68.392218 176.310104 
L 7.644865 556.907735 
z
" clip-path="url(#p2003178ddf)" style="fill: #f7feff; fill-opacity: 0.255487"/>
   </g>
   <g id="patch_139">
    <path d="M 591.451257 569.252152 
L 489.770333 228.087125 
L 257.500398 409.770307 
L 420.806155 235.056522 
L 942.173128 42.222214 
z
" clip-path="url(#p2003178ddf)" style="fill: #fff5d9; fill-opacity: 0.988084"/>
   </g>
   <g id="patch_140">
    <path d="M 479.704467 486.875229 
L 571.149215 120.085739 
L 11.13125 493.443839 
L 226.620938 195.795757 
z
" clip-path="url(#p2003178ddf)" style="fill: #e8ffff; fill-opacity: 0.991448"/>
   </g>
   <g id="patch_141">
    <path d="M 984.875483 76.779972 
L 1019.380736 268.02187 
L 716.589701 220.97165 
z
" clip-path="url(#p2003178ddf)" style="fill: #85c4c3; fill-opacity: 0.577957"/>
   </g>
   <g id="patch_142">
    <path d="M 623.868361 543.47945 
L 570.910552 432.497118 
L 645.285375 225.528676 
L 164.626926 285.801291 
L 15.937768 407.185581 
z
" clip-path="url(#p2003178ddf)" style="fill: #ebfffb; fill-opacity: 0.991571"/>
   </g>
   <g id="patch_143">
    <path d="M 524.622062 528.487905 
L 604.15115 203.677192 
L 746.58818 103.159615 
L 639.820051 334.510336 
L 227.014965 145.882486 
z
" clip-path="url(#p2003178ddf)" style="fill: #280914; fill-opacity: 0.593664"/>
   </g>
   <g id="patch_144">
    <path d="M 565.537158 194.33664 
L 485.142799 124.822347 
L 916.348083 191.330509 
L 8.696233 515.512073 
L 316.082624 43.631355 
z
" clip-path="url(#p2003178ddf)" style="fill: #573c00; fill-opacity: 0.093797"/>
   </g>
   <g id="patch_145">
    <path d="M 650.763677 170.058386 
L 712.019495 499.300752 
L 230.256125 245.79228 
L 269.168941 130.851175 
L 599.547807 522.688487 
z
" clip-path="url(#p2003178ddf)" style="fill: #fff5bf; fill-opacity: 0.442369"/>
   </g>
   <g id="patch_146">
    <path d="M 354.651271 182.964223 
L 802.643538 444.868777 
L 269.036597 402.356571 
L 194.548524 406.120361 
L 252.606353 167.868856 
z
" clip-path="url(#p2003178ddf)" style="fill: #fff4e1; fill-opacity: 0.831366"/>
   </g>
   <g id="patch_147">
    <path d="M 333.073957 191.970792 
L 511.73069 503.499762 
L 223.909387 570.820791 
L 14.885846 556.19377 
L 723.396045 575.196091 
z
" clip-path="url(#p2003178ddf)" style="fill: #c3bdae; fill-opacity: 0.740547"/>
   </g>
   <g id="patch_148">
    <path d="M 910.83732 520.875591 
L 982.908479 499.631214 
L 940.032805 237.237973 
z
" clip-path="url(#p2003178ddf)" style="fill: #cacfcb; fill-opacity: 0.767957"/>
   </g>
   <g id="patch_149">
    <path d="M 383.074986 382.918801 
L 1019.056335 48.636233 
L 593.559629 282.64113 
L 483.678319 206.847477 
L 225.005786 340.619066 
z
" clip-path="url(#p2003178ddf)" style="fill: #542c8f; fill-opacity: 0.174653"/>
   </g>
   <g id="patch_150">
    <path d="M 780.223042 473.435159 
L 732.308119 234.975525 
L 266.252673 546.756526 
L 0.202266 260.783048 
L 780.223042 473.435159 
z
" clip-path="url(#p2003178ddf)" style="fill: none"/>
   </g>
   <g id="patch_151">
    <path d="M 841.614168 572.627617 
L 101.735529 262.73616 
L 526.147437 132.688829 
z
" clip-path="url(#p2003178ddf)" style="fill: #e2d9f3; fill-opacity: 0.249008"/>
   </g>
   <g id="patch_152">
    <path d="M 998.541178 182.377566 
L 78.984177 271.15836 
L 175.330904 446.741772 
L 387.520808 62.985193 
z
" clip-path="url(#p2003178ddf)" style="fill: #ffb3b2; fill-opacity: 0.431624"/>
   </g>
   <g id="patch_153">
    <path d="M 237.102929 398.254711 
L 118.308384 503.34518 
L 108.175426 204.968383 
L 704.976562 305.71675 
z
" clip-path="url(#p2003178ddf)" style="fill: #fbf6e4; fill-opacity: 0.953174"/>
   </g>
   <g id="patch_154">
    <path d="M 331.081805 397.707674 
L 247.281109 173.707792 
L 357.741133 462.181984 
L 904.540911 448.09127 
L 22.929679 151.555244 
z
" clip-path="url(#p2003178ddf)" style="fill: #43414f; fill-opacity: 0.552615"/>
   </g>
   <g id="patch_155">
    <path d="M 30.542336 22.61745 
L 878.323238 169.240182 
L 795.770627 332.309499 
L 43.80543 72.122915 
L 91.676601 400.738719 
z
" clip-path="url(#p2003178ddf)" style="fill: #324448; fill-opacity: 0.979898"/>
   </g>
   <g id="patch_156">
    <path d="M 288.055565 151.388997 
L 430.910304 6.308135 
L 860.41478 279.220109 
L 447.935916 32.904253 
L 512.178592 446.356224 
z
" clip-path="url(#p2003178ddf)" style="fill: #5ca4bf"/>
   </g>
   <g id="patch_157">
    <path d="M 463.830828 506.85428 
L 337.085429 47.129182 
L 769.974724 399.137349 
z
" clip-path="url(#p2003178ddf)" style="fill: #7eb6f1; fill-opacity: 0.462305"/>
   </g>
   <g id="patch_158">
    <path d="M 847.142104 562.499016 
L 408.094314 372.792269 
L 236.418996 348.937376 
L 847.142104 562.499016 
z
" clip-path="url(#p2003178ddf)" style="fill: none"/>
   </g>
   <g id="patch_159">
    <path d="M 349.160389 68.656057 
L 632.497848 399.683579 
L 609.686302 5.810695 
L 143.525201 135.818764 
L 939.168066 113.994261 
z
" clip-path="url(#p2003178ddf)" style="fill: #2279ac; fill-opacity: 0.479609"/>
   </g>
   <g id="patch_160">
    <path d="M 185.976388 474.246965 
L 66.445083 194.301524 
L 386.396412 437.158621 
z
" clip-path="url(#p2003178ddf)" style="fill: #0c0600"/>
   </g>
   <g id="patch_161">
    <path d="M 154.768412 538.705188 
L 1008.845686 476.09129 
L 953.281671 174.151329 
L 800.413914 570.869212 
z
" clip-path="url(#p2003178ddf)" style="fill: #f8ebff; fill-opacity: 0.451862"/>
   </g>
   <g id="patch_162">
    <path d="M 295.632153 325.688676 
L 534.113204 365.372573 
L 444.138527 328.966978 
L 284.726226 188.597349 
L 569.574642 306.050877 
z
" clip-path="url(#p2003178ddf)" style="fill: #326847; fill-opacity: 0.553123"/>
   </g>
   <g id="patch_163">
    <path d="M 387.27067 73.423482 
L 823.579701 320.748039 
L 904.175193 439.400181 
L 387.27067 73.423482 
z
" clip-path="url(#p2003178ddf)" style="fill: none"/>
   </g>
   <g id="patch_164">
    <path d="M 389.122823 360.996109 
L 156.846497 15.056411 
L 460.306683 53.891498 
L 806.266963 65.117217 
z
" clip-path="url(#p2003178ddf)" style="fill: #300a16; fill-opacity: 0.05464"/>
   </g>
   <g id="patch_165">
    <path d="M 2.392139 246.648388 
L 6.324391 320.800788 
L 80.717679 390.057865 
L 829.242371 325.703076 
z
" clip-path="url(#p2003178ddf)" style="fill: #80c2dd; fill-opacity: 0.689455"/>
   </g>
   <g id="patch_166">
    <path d="M 280.507091 248.07515 
L 687.269756 293.788629 
L 390.193519 418.581011 
z
" clip-path="url(#p2003178ddf)" style="fill: #9ac6d3; fill-opacity: 0.572101"/>
   </g>
   <g id="patch_167">
    <path d="M 379.575588 201.21222 
L 3.5547 451.985086 
L 921.370414 285.205588 
L 522.195896 240.146617 
z
" clip-path="url(#p2003178ddf)" style="fill: #ffefff"/>
   </g>
   <g id="patch_168">
    <path d="M 732.80151 508.059828 
L 321.019308 83.171745 
L 411.799729 537.310176 
L 117.933503 213.305112 
z
" clip-path="url(#p2003178ddf)" style="fill: #372918; fill-opacity: 0.800015"/>
   </g>
   <g id="patch_169">
    <path d="M 685.151975 26.525726 
L 712.325308 301.831972 
L 94.79949 341.900384 
L 226.224419 222.170272 
L 834.191491 221.610556 
z
" clip-path="url(#p2003178ddf)" style="fill: #b09337; fill-opacity: 0.96009"/>
   </g>
   <g id="patch_170">
    <path d="M 845.495762 471.803982 
L 94.366376 360.400725 
L 494.960482 572.177637 
L 649.559869 349.655535 
z
" clip-path="url(#p2003178ddf)" style="fill: #78bcd4; fill-opacity: 0.150069"/>
   </g>
   <g id="patch_171">
    <path d="M 129.568578 549.233976 
L 94.162425 222.705753 
L 308.178342 158.607735 
L 629.643504 367.334628 
z
" clip-path="url(#p2003178ddf)" style="fill: #ffff92; fill-opacity: 0.37909"/>
   </g>
   <g id="patch_172">
    <path d="M 919.410243 526.823779 
L 373.151645 10.087358 
L 633.147864 204.142464 
z
" clip-path="url(#p2003178ddf)" style="fill: #002551; fill-opacity: 0.162252"/>
   </g>
   <g id="patch_173">
    <path d="M 941.805699 216.569422 
L 744.037266 423.745768 
L 802.984051 240.366633 
L 880.138451 247.502088 
L 206.166772 169.033844 
z
" clip-path="url(#p2003178ddf)" style="fill: #ffddd2; fill-opacity: 0.754391"/>
   </g>
   <g id="patch_174">
    <path d="M 892.837012 271.930428 
L 410.220128 156.071692 
L 948.189125 174.999057 
z
" clip-path="url(#p2003178ddf)" style="fill: #fffbfe; fill-opacity: 0.948639"/>
   </g>
   <g id="patch_175">
    <path d="M 497.154272 502.151239 
L 978.182445 439.590188 
L 1006.983966 560.274917 
z
" clip-path="url(#p2003178ddf)" style="fill: #d3c0e5; fill-opacity: 0.56418"/>
   </g>
   <g id="patch_176">
    <path d="M 964.646485 291.70171 
L 695.988126 296.24295 
L 862.606546 312.761606 
L 0.814431 574.615311 
L 398.982351 205.73309 
z
" clip-path="url(#p2003178ddf)" style="fill: #ffe6db; fill-opacity: 0.237345"/>
   </g>
   <g id="patch_177">
    <path d="M 935.007914 32.355412 
L 389.979799 486.171212 
L 752.087349 571.215655 
L 743.504608 253.095823 
L 626.925903 336.246935 
z
" clip-path="url(#p2003178ddf)" style="fill: #a7ffe2; fill-opacity: 0.61017"/>
   </g>
   <g id="patch_178">
    <path d="M 833.939779 237.069182 
L 425.751392 346.462865 
L 205.402527 507.083009 
L 799.00914 116.789281 
z
" clip-path="url(#p2003178ddf)" style="fill: #12346e"/>
   </g>
   <g id="patch_179">
    <path d="M 1003.42342 193.825693 
L 826.546629 140.277338 
L 841.216798 181.502521 
L 727.461823 408.321111 
L 490.586347 123.924457 
z
" clip-path="url(#p2003178ddf)" style="fill: #1b1a76; fill-opacity: 0.241668"/>
   </g>
   <g id="patch_180">
    <path d="M 495.549866 365.761423 
L 793.532019 90.787695 
L 783.141855 510.887383 
z
" clip-path="url(#p2003178ddf)" style="fill: #59ffff; fill-opacity: 0.992813"/>
   </g>
   <g id="patch_181">
    <path d="M 475.915788 573.191964 
L 373.874237 513.910445 
L 52.501178 311.773935 
L 737.279727 166.826618 
z
" clip-path="url(#p2003178ddf)" style="fill: #00b7ff; fill-opacity: 0.227636"/>
   </g>
   <g id="patch_182">
    <path d="M 768.599918 1.843943 
L 864.07046 21.418024 
L 49.376268 372.231628 
z
" clip-path="url(#p2003178ddf)" style="fill: #e1e6ed"/>
   </g>
   <g id="patch_183">
    <path d="M 576.500115 461.29856 
L 48.444713 369.39705 
L 217.913569 257.532376 
z
" clip-path="url(#p2003178ddf)" style="fill: #f7fffe; fill-opacity: 0.57992"/>
   </g>
   <g id="patch_184">
    <path d="M 344.860227 252.102235 
L 671.905632 144.857612 
L 507.573497 399.453036 
L 856.504394 54.784628 
L 344.860227 252.102235 
z
" clip-path="url(#p2003178ddf)" style="fill: none"/>
   </g>
   <g id="patch_185">
    <path d="M 259.565432 518.116398 
L 180.524831 536.624725 
L 465.218056 139.36572 
L 643.308322 299.967649 
L 701.333688 291.08977 
z
" clip-path="url(#p2003178ddf)" style="fill: #ffe4be; fill-opacity: 0.473959"/>
   </g>
   <g id="patch_186">
    <path d="M 652.850458 144.029855 
L 567.852879 219.771978 
L 870.528439 308.953524 
L 812.305988 12.408856 
L 553.011905 1.258637 
z
" clip-path="url(#p2003178ddf)" style="fill: #9bb9d8; fill-opacity: 0.284913"/>
   </g>
   <g id="patch_187">
    <path d="M 694.568154 63.869836 
L 999.665636 7.687166 
L 923.904115 192.964956 
z
" clip-path="url(#p2003178ddf)" style="fill: #94b0d0; fill-opacity: 0.306991"/>
   </g>
   <g id="patch_188">
    <path d="M 181.366152 358.548258 
L 483.762224 297.00815 
L 945.919502 167.036805 
L 740.784798 395.477783 
L 201.499632 551.247486 
z
" clip-path="url(#p2003178ddf)" style="fill: #d3f9ff"/>
   </g>
   <g id="patch_189">
    <path d="M 984.713135 157.747736 
L 739.969367 120.489319 
L 378.771711 63.252945 
L 228.09207 506.976223 
z
" clip-path="url(#p2003178ddf)" style="fill: #9cdef0; fill-opacity: 0.244125"/>
   </g>
   <g id="patch_190">
    <path d="M 68.598324 155.535457 
L 687.332852 61.867588 
L 56.274038 198.586074 
L 42.219227 266.392019 
L 590.836572 534.226548 
z
" clip-path="url(#p2003178ddf)" style="fill: #262d3b; fill-opacity: 0.992552"/>
   </g>
   <g id="patch_191">
    <path d="M 265.327908 466.652615 
L 56.952767 373.916003 
L 934.285638 165.578652 
L 974.532966 33.913437 
z
" clip-path="url(#p2003178ddf)" style="fill: #ffcee1; fill-opacity: 0.315459"/>
   </g>
   <g id="patch_192">
    <path d="M 331.619259 514.629942 
L 532.5409 65.462419 
L 705.74931 53.103314 
z
" clip-path="url(#p2003178ddf)" style="fill: #d9e7ff; fill-opacity: 0.138252"/>
   </g>
   <g id="patch_193">
    <path d="M 620.488741 449.588556 
L 441.068491 293.629533 
L 578.476232 465.880348 
L 644.768801 451.824565 
L 786.032103 121.602367 
z
" clip-path="url(#p2003178ddf)" style="fill: #d5ff06; fill-opacity: 0.386692"/>
   </g>
   <g id="patch_194">
    <path d="M 163.923535 360.080232 
L 585.635382 539.076636 
L 266.989087 538.075084 
z
" clip-path="url(#p2003178ddf)" style="fill: #00acc5; fill-opacity: 0.484553"/>
   </g>
   <g id="patch_195">
    <path d="M 20.785199 128.873202 
L 39.463626 161.29769 
L 944.914061 65.171108 
L 367.065046 118.932067 
L 82.846015 65.487526 
z
" clip-path="url(#p2003178ddf)" style="fill: #242c40; fill-opacity: 0.848844"/>
   </g>
   <g id="patch_196">
    <path d="M 575.798577 148.629611 
L 616.232028 79.0984 
L 929.930903 205.373036 
L 194.568218 343.863213 
z
" clip-path="url(#p2003178ddf)" style="fill: #5f3b27; fill-opacity: 0.368247"/>
   </g>
   <g id="patch_197">
    <path d="M 580.786347 171.775147 
L 937.359191 451.500299 
L 397.666095 288.576901 
L 777.717497 508.93659 
L 581.603747 503.633327 
L 580.786347 171.775147 
z
" clip-path="url(#p2003178ddf)" style="fill: none"/>
   </g>
   <g id="patch_198">
    <path d="M 172.082652 267.115382 
L 588.483487 512.377085 
L 700.517494 78.317355 
L 811.319976 575.883405 
z
" clip-path="url(#p2003178ddf)" style="fill: #967a78; fill-opacity: 0.514471"/>
   </g>
   <g id="patch_199">
    <path d="M 408.835285 356.365348 
L 305.216741 566.264347 
L 945.351694 494.198746 
L 87.711034 386.868231 
L 158.106242 431.701736 
z
" clip-path="url(#p2003178ddf)" style="fill: #b5691c; fill-opacity: 0.572196"/>
   </g>
   <g id="patch_200">
    <path d="M 463.044005 569.838576 
L 200.881319 156.502876 
L 324.431502 536.767286 
L 687.686175 39.951185 
z
" clip-path="url(#p2003178ddf)" style="fill: #156ea1; fill-opacity: 0.141405"/>
   </g>
   <g id="patch_201">
    <path d="M 676.500919 228.079259 
L 817.453884 223.274131 
L 1020.844864 251.102035 
z
" clip-path="url(#p2003178ddf)" style="fill: #92bfa1"/>
   </g>
   <g id="patch_202">
    <path d="M 446.585172 552.105234 
L 341.374591 132.082094 
L 832.473679 549.727319 
L 518.068055 474.160436 
L 780.898746 308.476086 
z
" clip-path="url(#p2003178ddf)" style="fill: #aedfd3; fill-opacity: 0.88355"/>
   </g>
   <g id="patch_203">
    <path d="M 761.328371 281.950881 
L 772.65652 191.601799 
L 895.07573 126.190627 
z
" clip-path="url(#p2003178ddf)" style="fill-opacity: 0.969103"/>
   </g>
   <g id="patch_204">
    <path d="M 345.682745 198.990504 
L 429.191809 515.801419 
L 120.434811 198.561474 
z
" clip-path="url(#p2003178ddf)" style="fill: #dcffda; fill-opacity: 0.211515"/>
   </g>
   <g id="patch_205">
    <path d="M 352.461757 479.262017 
L 291.801048 243.123547 
L 167.174127 493.361877 
L 383.426453 266.934076 
z
" clip-path="url(#p2003178ddf)" style="fill: #0a0900; fill-opacity: 0.993186"/>
   </g>
   <g id="patch_206">
    <path d="M 722.031967 64.531501 
L 391.02827 75.088686 
L 1014.503084 2.798165 
L 129.046436 439.896641 
z
" clip-path="url(#p2003178ddf)" style="fill: #c3d9d6; fill-opacity: 0.226907"/>
   </g>
   <g id="patch_207">
    <path d="M 995.635747 80.174519 
L 865.640102 154.886629 
L 1002.82926 375.835525 
L 939.418496 190.723891 
L 342.473104 34.726037 
z
" clip-path="url(#p2003178ddf)" style="fill: #67bce3; fill-opacity: 0.196908"/>
   </g>
   <g id="patch_208">
    <path d="M 399.919514 172.654949 
L 520.330132 216.628986 
L 703.749609 503.150532 
L 403.55356 129.999689 
z
" clip-path="url(#p2003178ddf)" style="fill: #1b4225; fill-opacity: 0.500734"/>
   </g>
   <g id="patch_209">
    <path d="M 497.958506 75.62301 
L 678.775451 441.433804 
L 647.674868 309.215568 
z
" clip-path="url(#p2003178ddf)" style="fill: #33074f; fill-opacity: 0.883529"/>
   </g>
   <g id="patch_210">
    <path d="M 1016.636396 276.341602 
L 112.105578 110.833627 
L 875.233878 219.913927 
z
" clip-path="url(#p2003178ddf)" style="fill: #0f7ba5; fill-opacity: 0.146316"/>
   </g>
   <g id="patch_211">
    <path d="M 802.413335 138.006222 
L 381.834837 244.567116 
L 500.798973 554.373141 
L 627.573349 565.452412 
z
" clip-path="url(#p2003178ddf)" style="fill: #861600; fill-opacity: 0.920027"/>
   </g>
   <g id="patch_212">
    <path d="M 775.459884 525.573027 
L 1020.576897 222.462001 
L 996.610497 23.775006 
z
" clip-path="url(#p2003178ddf)" style="fill: #7993d9; fill-opacity: 0.266478"/>
   </g>
   <g id="patch_213">
    <path d="M 433.785094 510.388012 
L 553.836013 50.83793 
L 103.642104 227.156404 
L 288.954488 174.01515 
L 433.785094 510.388012 
z
" clip-path="url(#p2003178ddf)" style="fill: none"/>
   </g>
   <g id="patch_214">
    <path d="M 965.935626 60.526035 
L 236.29985 182.969738 
L 269.868226 230.482816 
z
" clip-path="url(#p2003178ddf)" style="fill: #ffe1c8"/>
   </g>
   <g id="patch_215">
    <path d="M 635.685854 177.295468 
L 477.214298 385.069389 
L 993.317943 562.837447 
L 675.043632 567.166729 
z
" clip-path="url(#p2003178ddf)" style="fill: #c8c2d7; fill-opacity: 0.606758"/>
   </g>
   <g id="patch_216">
    <path d="M 450.866541 230.172331 
L 647.95968 261.560194 
L 222.488831 237.53611 
L 1.265785 565.761967 
L 10.152493 454.129565 
z
" clip-path="url(#p2003178ddf)" style="fill: #f1f2f4; fill-opacity: 0.706951"/>
   </g>
   <g id="patch_217">
    <path d="M 322.087435 122.058891 
L 410.203827 428.576507 
L 738.431324 73.191784 
z
" clip-path="url(#p2003178ddf)" style="fill: #ffffdb; fill-opacity: 0.992899"/>
   </g>
   <g id="patch_218">
    <path d="M 442.374624 38.741067 
L 81.636226 420.361937 
L 593.525066 355.786267 
z
" clip-path="url(#p2003178ddf)" style="fill: #4fa6c8; fill-opacity: 0.573204"/>
   </g>
   <g id="patch_219">
    <path d="M 340.386668 520.781495 
L 533.172896 322.510545 
L 708.914869 240.109499 
z
" clip-path="url(#p2003178ddf)" style="fill: #ddff0b; fill-opacity: 0.802535"/>
   </g>
   <g id="patch_220">
    <path d="M 249.972028 464.927539 
L 698.224669 20.163955 
L 830.620186 115.020884 
L 386.928552 282.092092 
z
" clip-path="url(#p2003178ddf)" style="fill: #dbebff; fill-opacity: 0.900479"/>
   </g>
   <g id="patch_221">
    <path d="M 661.63862 159.256454 
L 249.604591 389.094624 
L 525.95949 17.512199 
L 266.270679 152.958106 
L 744.970176 248.311137 
z
" clip-path="url(#p2003178ddf)" style="fill: #4a98c7; fill-opacity: 0.624863"/>
   </g>
   <g id="patch_222">
    <path d="M 673.270132 432.33463 
L 817.198402 402.50674 
L 72.727037 453.874432 
L 309.583871 264.667718 
z
" clip-path="url(#p2003178ddf)" style="fill: #fcfff7; fill-opacity: 0.916813"/>
   </g>
   <g id="patch_223">
    <path d="M 478.929778 179.840738 
L 265.974807 378.417556 
L 180.924591 488.565685 
z
" clip-path="url(#p2003178ddf)" style="fill: #002427"/>
   </g>
   <g id="patch_224">
    <path d="M 369.002145 502.83288 
L 556.656829 554.232309 
L 900.058966 420.742278 
L 538.601315 320.153526 
L 14.203273 149.027306 
z
" clip-path="url(#p2003178ddf)" style="fill: #02102d; fill-opacity: 0.272947"/>
   </g>
   <g id="patch_225">
    <path d="M 424.498092 139.88489 
L 454.160307 525.947459 
L 158.566333 290.433848 
L 740.93152 172.64648 
z
" clip-path="url(#p2003178ddf)" style="fill: #21478a; fill-opacity: 0.998296"/>
   </g>
   <g id="patch_226">
    <path d="M 512.551201 265.335993 
L 689.415531 135.374012 
L 997.307407 154.839275 
z
" clip-path="url(#p2003178ddf)" style="fill: #022393; fill-opacity: 0.254346"/>
   </g>
   <g id="patch_227">
    <path d="M 833.868477 106.237105 
L 140.308539 286.370124 
L 965.715062 54.62588 
L 994.294665 145.016811 
z
" clip-path="url(#p2003178ddf)" style="fill: #e6d7d7; fill-opacity: 0.747244"/>
   </g>
   <g id="patch_228">
    <path d="M 422.669064 333.505299 
L 692.414948 487.977158 
L 630.965659 44.799991 
z
" clip-path="url(#p2003178ddf)" style="fill: #fff4f1; fill-opacity: 0.716914"/>
   </g>
   <g id="patch_229">
    <path d="M 21.228999 325.888537 
L 23.093706 571.825522 
L 426.858557 129.134009 
L 942.249361 177.802724 
L 829.154241 4.052558 
z
" clip-path="url(#p2003178ddf)" style="fill: #eee2d0; fill-opacity: 0.27534"/>
   </g>
   <g id="patch_230">
    <path d="M 434.450016 490.498399 
L 826.459079 233.301527 
L 241.249819 90.437306 
z
" clip-path="url(#p2003178ddf)" style="fill: #ffd5a0; fill-opacity: 0.880743"/>
   </g>
   <g id="patch_231">
    <path d="M 563.129486 204.228112 
L 864.604695 164.019982 
L 961.709612 473.107626 
L 1000.762393 450.420138 
L 876.377113 49.432673 
z
" clip-path="url(#p2003178ddf)" style="fill: #c8b6fc; fill-opacity: 0.053737"/>
   </g>
   <g id="patch_232">
    <path d="M 992.23721 575.008213 
L 604.045499 423.211966 
L 756.411392 393.653758 
L 606.309971 505.652633 
L 25.493992 414.645411 
z
" clip-path="url(#p2003178ddf)" style="fill: #d4f4ff; fill-opacity: 0.219492"/>
   </g>
   <g id="patch_233">
    <path d="M 600.302958 569.41564 
L 336.346396 99.22023 
L 956.588638 293.688341 
L 131.430818 574.76358 
z
" clip-path="url(#p2003178ddf)" style="fill: #c8d5df; fill-opacity: 0.347846"/>
   </g>
   <g id="patch_234">
    <path d="M 677.681579 276.249689 
L 646.77063 533.114696 
L 538.282899 347.986976 
L 687.889826 300.576577 
z
" clip-path="url(#p2003178ddf)" style="fill: #e5edd4"/>
   </g>
   <g id="patch_235">
    <path d="M 346.896009 92.995678 
L 201.991593 202.450021 
L 414.695006 1.792752 
L 78.609315 39.606035 
L 834.452855 270.010567 
z
" clip-path="url(#p2003178ddf)" style="fill: #465373; fill-opacity: 0.099128"/>
   </g>
   <g id="patch_236">
    <path d="M 111.183266 418.93604 
L 720.722154 419.478307 
L 1009.528887 523.058823 
z
" clip-path="url(#p2003178ddf)" style="fill: #a6a1ba; fill-opacity: 0.764148"/>
   </g>
   <g id="patch_237">
    <path d="M 582.358548 459.396356 
L 791.493689 266.44883 
L 339.42258 529.097844 
L 288.820432 84.392331 
L 333.461611 550.309487 
z
" clip-path="url(#p2003178ddf)" style="fill: #ffaa71; fill-opacity: 0.947055"/>
   </g>
   <g id="patch_238">
    <path d="M 535.39843 275.484416 
L 463.131904 277.907899 
L 4.047679 107.244844 
L 485.140877 286.635353 
L 212.084162 38.351822 
z
" clip-path="url(#p2003178ddf)" style="fill: #2d425c; fill-opacity: 0.962321"/>
   </g>
   <g id="patch_239">
    <path d="M 565.546596 370.131356 
L 839.197237 388.918518 
L 835.024212 143.151373 
z
" clip-path="url(#p2003178ddf)" style="fill: #5b2a00; fill-opacity: 0.125871"/>
   </g>
   <g id="patch_240">
    <path d="M 470.946305 133.902144 
L 10.343302 153.181955 
L 91.401074 130.908577 
L 270.657114 77.73422 
z
" clip-path="url(#p2003178ddf)" style="fill: #242f39; fill-opacity: 0.880386"/>
   </g>
   <g id="patch_241">
    <path d="M 699.189776 31.103314 
L 1012.846674 242.716975 
L 924.113853 337.537536 
L 259.233255 331.491902 
z
" clip-path="url(#p2003178ddf)" style="fill: #000591; fill-opacity: 0.051277"/>
   </g>
   <g id="patch_242">
    <path d="M 1020.207443 473.689269 
L 738.141043 562.742026 
L 770.384397 498.574871 
L 212.407277 430.36749 
z
" clip-path="url(#p2003178ddf)" style="fill: #d1cbda; fill-opacity: 0.901306"/>
   </g>
   <g id="patch_243">
    <path d="M 120.945587 358.468354 
L 108.882295 524.261214 
L 814.848173 92.267373 
z
" clip-path="url(#p2003178ddf)" style="fill: #ffffe7; fill-opacity: 0.305025"/>
   </g>
   <g id="patch_244">
    <path d="M 211.165786 560.818549 
L 837.703067 218.752783 
L 118.486775 170.367174 
L 495.581331 332.328634 
L 368.999099 485.598797 
L 211.165786 560.818549 
z
" clip-path="url(#p2003178ddf)" style="fill: none"/>
   </g>
   <g id="patch_245">
    <path d="M 927.561491 72.818641 
L 336.526962 110.301503 
L 613.248445 572.363964 
z
" clip-path="url(#p2003178ddf)" style="fill: #d4f4ff; fill-opacity: 0.249574"/>
   </g>
   <g id="patch_246">
    <path d="M 790.969999 108.848845 
L 244.168563 518.123899 
L 150.097476 472.28301 
L 646.315219 250.027772 
z
" clip-path="url(#p2003178ddf)" style="fill: #0063a5; fill-opacity: 0.402195"/>
   </g>
   <g id="patch_247">
    <path d="M 992.72174 143.364628 
L 842.552366 23.984612 
L 313.82925 380.470915 
L 521.371309 439.44629 
z
" clip-path="url(#p2003178ddf)" style="fill: #fee0e9; fill-opacity: 0.254962"/>
   </g>
   <g id="patch_248">
    <path d="M 784.174384 386.546373 
L 898.236479 496.716112 
L 617.846559 497.011858 
L 478.944213 246.099681 
z
" clip-path="url(#p2003178ddf)" style="fill: #3d1342; fill-opacity: 0.789202"/>
   </g>
   <g id="patch_249">
    <path d="M 437.858629 151.646858 
L 585.051341 393.989298 
L 819.768898 338.272385 
z
" clip-path="url(#p2003178ddf)" style="fill: #f1baa6; fill-opacity: 0.894639"/>
   </g>
   <g id="patch_250">
    <path d="M 773.000355 286.842039 
L 933.206798 479.4383 
L 582.475435 293.535757 
L 330.987414 420.513846 
L 987.974708 424.015134 
z
" clip-path="url(#p2003178ddf)" style="fill: #ffffff; fill-opacity: 0.142722"/>
   </g>
   <g id="patch_251">
    <path d="M 835.568332 338.569082 
L 987.2487 196.443787 
L 992.681143 415.089957 
L 697.107906 114.031294 
z
" clip-path="url(#p2003178ddf)" style="fill: #007246; fill-opacity: 0.054114"/>
   </g>
   <g id="patch_252">
    <path d="M 211.655304 290.883615 
L 214.15496 197.128033 
L 583.699101 205.868175 
L 990.677211 573.981292 
z
" clip-path="url(#p2003178ddf)" style="fill: #fffbff; fill-opacity: 0.221841"/>
   </g>
   <g id="patch_253">
    <path d="M 61.321375 437.591584 
L 872.381758 539.872421 
L 778.762153 415.241919 
z
" clip-path="url(#p2003178ddf)" style="fill: #82a4da; fill-opacity: 0.662646"/>
   </g>
   <g id="patch_254">
    <path d="M 759.778248 493.256235 
L 832.287196 421.65893 
L 529.220012 197.017599 
L 579.477172 476.645723 
z
" clip-path="url(#p2003178ddf)" style="fill: #ccffff; fill-opacity: 0.577653"/>
   </g>
   <g id="patch_255">
    <path d="M 451.833356 507.872321 
L 570.477901 574.820025 
L 298.129135 283.854351 
z
" clip-path="url(#p2003178ddf)" style="fill: #91c5ff; fill-opacity: 0.833571"/>
   </g>
   <g id="patch_256">
    <path d="M 565.910102 184.148795 
L 55.270051 476.863446 
L 363.257477 217.585125 
L 545.740256 71.154302 
L 307.972537 229.181404 
z
" clip-path="url(#p2003178ddf)" style="fill: #a72947; fill-opacity: 0.710756"/>
   </g>
   <g id="patch_257">
    <path d="M 117.435728 455.992502 
L 562.226523 283.352216 
L 847.832381 246.402335 
L 959.646775 251.407403 
z
" clip-path="url(#p2003178ddf)" style="fill: #edcbcf; fill-opacity: 0.612924"/>
   </g>
   <g id="patch_258">
    <path d="M 237.456651 313.751481 
L 736.038088 60.980014 
L 882.773809 223.408888 
L 784.948471 2.172717 
L 688.032998 0.76925 
z
" clip-path="url(#p2003178ddf)" style="fill: #e9e4e5; fill-opacity: 0.758829"/>
   </g>
   <g id="patch_259">
    <path d="M 484.777761 465.335691 
L 343.406231 200.907452 
L 701.735359 489.304876 
L 798.373402 449.195788 
z
" clip-path="url(#p2003178ddf)" style="fill: #ffffff"/>
   </g>
   <g id="patch_260">
    <path d="M 680.263838 471.258604 
L 445.988479 106.501681 
L 38.807907 471.045961 
L 80.160859 406.622713 
L 357.030044 273.645442 
z
" clip-path="url(#p2003178ddf)" style="fill: #e2a180; fill-opacity: 0.836174"/>
   </g>
   <g id="patch_261">
    <path d="M 734.441606 570.420257 
L 482.865997 564.157438 
L 337.84598 187.595294 
z
" clip-path="url(#p2003178ddf)" style="fill: #8cc7d6; fill-opacity: 0.385695"/>
   </g>
   <g id="patch_262">
    <path d="M 783.542407 95.160601 
L 180.315873 296.474801 
L 431.231076 285.167023 
z
" clip-path="url(#p2003178ddf)" style="fill: #ffffff"/>
   </g>
   <g id="patch_263">
    <path d="M 697.0587 469.217899 
L 658.103797 544.994933 
L 471.577806 276.609678 
L 377.561339 197.139283 
z
" clip-path="url(#p2003178ddf)" style="fill: #d1f1ef; fill-opacity: 0.879886"/>
   </g>
   <g id="patch_264">
    <path d="M 561.667954 292.424724 
L 662.938831 528.225714 
L 769.060508 563.2409 
L 679.614298 99.15786 
L 321.461599 444.63503 
z
" clip-path="url(#p2003178ddf)" style="fill: #11b7c4; fill-opacity: 0.170801"/>
   </g>
   <g id="patch_265">
    <path d="M 579.842222 110.704502 
L 785.132357 371.729767 
L 611.621929 352.981496 
z
" clip-path="url(#p2003178ddf)" style="fill: #ffd9bc; fill-opacity: 0.665769"/>
   </g>
   <g id="patch_266">
    <path d="M 559.288296 336.455308 
L 524.206635 286.424639 
L 480.999998 547.383711 
L 731.855765 472.086849 
z
" clip-path="url(#p2003178ddf)" style="fill: #7acdf1; fill-opacity: 0.792743"/>
   </g>
   <g id="patch_267">
    <path d="M 33.975372 500.164949 
L 247.251392 318.177865 
L 835.979465 340.464823 
L 736.486319 8.305769 
L 978.619017 187.767252 
z
" clip-path="url(#p2003178ddf)" style="fill: #fff7e7; fill-opacity: 0.170069"/>
   </g>
   <g id="patch_268">
    <path d="M 331.362802 143.910727 
L 361.953994 302.246999 
L 811.560111 426.843742 
z
" clip-path="url(#p2003178ddf)" style="fill: #a5ffef; fill-opacity: 0.111136"/>
   </g>
   <g id="patch_269">
    <path d="M 758.404117 63.215646 
L 996.707645 28.375154 
L 727.554566 167.978849 
L 451.03619 199.659348 
z
" clip-path="url(#p2003178ddf)" style="fill: #eae1d2; fill-opacity: 0.233163"/>
   </g>
   <g id="patch_270">
    <path d="M 474.270956 435.320113 
L 140.32191 445.777538 
L 569.192449 474.58404 
L 470.073035 507.696774 
z
" clip-path="url(#p2003178ddf)" style="fill: #00f3ff; fill-opacity: 0.959954"/>
   </g>
   <g id="patch_271">
    <path d="M 208.125907 352.342464 
L 838.797569 321.302107 
L 248.106523 170.687801 
L 264.057478 440.016372 
L 518.20226 242.433193 
z
" clip-path="url(#p2003178ddf)" style="fill: #ffe7c8; fill-opacity: 0.769068"/>
   </g>
   <g id="patch_272">
    <path d="M 357.449621 370.238807 
L 602.960192 533.858151 
L 326.951364 170.299625 
L 662.410846 193.643793 
z
" clip-path="url(#p2003178ddf)" style="fill: #d1dbd4; fill-opacity: 0.99029"/>
   </g>
   <g id="patch_273">
    <path d="M 178.691963 403.36795 
L 732.181526 287.067617 
L 213.306341 227.899952 
L 578.950931 12.070871 
L 382.224162 416.367338 
z
" clip-path="url(#p2003178ddf)" style="fill: #5d9cc4; fill-opacity: 0.575307"/>
   </g>
   <g id="patch_274">
    <path d="M 476.970872 338.313967 
L 981.938541 471.087171 
L 362.842738 0.187541 
L 110.721646 331.485734 
L 605.649806 225.454846 
z
" clip-path="url(#p2003178ddf)" style="fill: #aff7fc; fill-opacity: 0.114036"/>
   </g>
   <g id="patch_275">
    <path d="M 533.623752 251.212587 
L 59.812067 351.177639 
L 515.983364 390.664263 
L 809.913904 453.3975 
z
" clip-path="url(#p2003178ddf)" style="fill: #c7d1d9; fill-opacity: 0.980941"/>
   </g>
   <g id="patch_276">
    <path d="M 292.919751 231.366161 
L 563.009874 430.759977 
L 549.307216 6.498178 
z
" clip-path="url(#p2003178ddf)" style="fill: #37a5d0; fill-opacity: 0.727399"/>
   </g>
   <g id="patch_277">
    <path d="M 413.580909 521.830259 
L 538.64523 500.878076 
L 638.767786 61.783758 
L 995.422233 57.001802 
z
" clip-path="url(#p2003178ddf)" style="fill: #c7e2ff; fill-opacity: 0.269663"/>
   </g>
   <g id="patch_278">
    <path d="M 628.897802 451.33949 
L 320.071008 524.684572 
L 357.471385 380.135304 
z
" clip-path="url(#p2003178ddf)" style="fill: #ffbd62"/>
   </g>
   <g id="patch_279">
    <path d="M 165.504223 454.820133 
L 155.481331 173.569224 
L 657.565375 324.140101 
z
" clip-path="url(#p2003178ddf)" style="fill: #ffdbc8; fill-opacity: 0.714348"/>
   </g>
   <g id="patch_280">
    <path d="M 569.495813 356.530681 
L 5.504714 415.123637 
L 510.085812 488.872507 
L 701.287326 304.079807 
L 575.608242 123.289736 
z
" clip-path="url(#p2003178ddf)" style="fill: #ffffff"/>
   </g>
   <g id="patch_281">
    <path d="M 683.109106 462.647013 
L 844.22331 303.163961 
L 999.486695 80.303895 
z
" clip-path="url(#p2003178ddf)" style="fill: #c6b7bc; fill-opacity: 0.927429"/>
   </g>
   <g id="patch_282">
    <path d="M 308.320764 225.191054 
L 502.621519 277.333906 
L 836.416516 140.88531 
L 706.816435 123.619931 
L 810.143826 458.120046 
z
" clip-path="url(#p2003178ddf)" style="fill: #fffffd; fill-opacity: 0.554668"/>
   </g>
   <g id="patch_283">
    <path d="M 649.458171 57.89523 
L 622.150265 498.035082 
L 941.712048 18.259471 
L 434.098975 90.063286 
z
" clip-path="url(#p2003178ddf)" style="fill: #ffe8ea; fill-opacity: 0.225779"/>
   </g>
   <g id="patch_284">
    <path d="M 64.614567 72.482782 
L 205.183829 16.610054 
L 848.880992 497.06224 
L 126.75639 529.224972 
z
" clip-path="url(#p2003178ddf)" style="fill: #2c0014; fill-opacity: 0.139176"/>
   </g>
   <g id="patch_285">
    <path d="M 89.998897 43.974917 
L 109.634472 210.223892 
L 326.56596 380.529123 
L 575.20846 306.345544 
L 929.113886 12.676572 
L 89.998897 43.974917 
z
" clip-path="url(#p2003178ddf)" style="fill: none"/>
   </g>
   <g id="patch_286">
    <path d="M 42.992165 308.375771 
L 681.305048 413.436543 
L 593.236929 194.959585 
L 838.816413 518.48472 
z
" clip-path="url(#p2003178ddf)" style="fill: #eae1ec; fill-opacity: 0.822821"/>
   </g>
   <g id="patch_287">
    <path d="M 219.437053 211.891029 
L 51.099261 409.183057 
L 380.045071 120.33177 
z
" clip-path="url(#p2003178ddf)" style="fill: #fad69c; fill-opacity: 0.251822"/>
   </g>
   <g id="patch_288">
    <path d="M 565.821 463.231762 
L 114.266553 73.998815 
L 392.013668 513.87526 
L 270.311908 518.272685 
L 565.821 463.231762 
z
" clip-path="url(#p2003178ddf)" style="fill: none"/>
   </g>
   <g id="patch_289">
    <path d="M 180.36951 543.135895 
L 668.481717 517.860904 
L 359.244008 255.588889 
L 496.630466 346.794296 
L 870.682223 470.221752 
L 180.36951 543.135895 
z
" clip-path="url(#p2003178ddf)" style="fill: none"/>
   </g>
   <g id="patch_290">
    <path d="M 532.772713 424.04271 
L 419.717129 547.264833 
L 586.559912 222.745433 
z
" clip-path="url(#p2003178ddf)" style="fill: #55c9ee; fill-opacity: 0.948321"/>
   </g>
   <g id="patch_291">
    <path d="M 662.651739 471.336499 
L 309.611072 554.355693 
L 686.338971 305.968982 
L 274.402727 431.530858 
z
" clip-path="url(#p2003178ddf)" style="fill: #ff9100; fill-opacity: 0.123849"/>
   </g>
   <g id="patch_292">
    <path d="M 669.479156 569.923761 
L 255.107251 306.764958 
L 466.138849 298.563281 
L 539.800805 240.525494 
L 707.37299 572.021023 
z
" clip-path="url(#p2003178ddf)" style="fill: #ffb2a7; fill-opacity: 0.419826"/>
   </g>
   <g id="patch_293">
    <path d="M 427.294512 49.721872 
L 688.985003 438.388553 
L 766.584843 1.823193 
z
" clip-path="url(#p2003178ddf)" style="fill: #ffbf8e; fill-opacity: 0.113219"/>
   </g>
   <g id="patch_294">
    <path d="M 598.42924 282.001333 
L 154.188646 393.633537 
L 757.460277 170.353163 
z
" clip-path="url(#p2003178ddf)" style="fill: #2c5380; fill-opacity: 0.281558"/>
   </g>
   <g id="patch_295">
    <path d="M 443.134889 459.693484 
L 182.642055 425.905406 
L 911.622326 558.546341 
L 305.849463 136.378783 
L 117.578689 335.952338 
z
" clip-path="url(#p2003178ddf)" style="fill: #f8d0b6; fill-opacity: 0.448941"/>
   </g>
   <g id="patch_296">
    <path d="M 906.696204 269.265865 
L 985.168163 139.552238 
L 454.673461 285.226965 
L 319.148799 238.100622 
z
" clip-path="url(#p2003178ddf)" style="fill: #d9c6d9; fill-opacity: 0.366536"/>
   </g>
   <g id="patch_297">
    <path d="M 92.097314 308.530079 
L 382.823999 271.359979 
L 790.984554 404.234647 
L 105.487928 459.841232 
L 677.723033 427.910021 
z
" clip-path="url(#p2003178ddf)" style="fill: #dda38b; fill-opacity: 0.554618"/>
   </g>
   <g id="patch_298">
    <path d="M 314.002916 327.841593 
L 408.388248 454.763337 
L 458.292187 393.763531 
L 501.522969 128.924366 
z
" clip-path="url(#p2003178ddf)" style="fill: #ffffe8; fill-opacity: 0.157399"/>
   </g>
   <g id="patch_299">
    <path d="M 964.019689 261.504527 
L 939.264284 62.72534 
L 575.520474 142.664914 
L 802.222469 243.087366 
z
" clip-path="url(#p2003178ddf)" style="fill: #dfd4d8; fill-opacity: 0.480101"/>
   </g>
   <g id="patch_300">
    <path d="M 360.650769 232.452079 
L 9.826655 440.175392 
L 982.726574 228.994756 
z
" clip-path="url(#p2003178ddf)" style="fill: #fff6e7; fill-opacity: 0.319864"/>
   </g>
   <g id="patch_301">
    <path d="M 536.510784 323.320412 
L 666.812307 484.169369 
L 537.621268 425.691533 
z
" clip-path="url(#p2003178ddf)" style="fill: #95c5ff; fill-opacity: 0.716313"/>
   </g>
   <g id="patch_302">
    <path d="M 488.08234 86.127167 
L 596.051787 569.721848 
L 56.319314 152.62566 
L 588.7481 360.752329 
z
" clip-path="url(#p2003178ddf)" style="fill: #fdff82; fill-opacity: 0.033431"/>
   </g>
   <g id="patch_303">
    <path d="M 107.457212 126.870141 
L 161.549157 178.188734 
L 46.00446 231.643885 
L 287.482738 49.71289 
L 107.457212 126.870141 
z
" clip-path="url(#p2003178ddf)" style="fill: none"/>
   </g>
   <g id="patch_304">
    <path d="M 702.3046 498.160949 
L 794.116585 530.284575 
L 633.321745 313.781173 
L 376.871377 342.474511 
L 337.164183 69.960024 
z
" clip-path="url(#p2003178ddf)" style="fill: #4fe1ff; fill-opacity: 0.310655"/>
   </g>
   <g id="patch_305">
    <path d="M 344.603811 311.443239 
L 687.356042 564.455232 
L 38.960492 554.183818 
z
" clip-path="url(#p2003178ddf)" style="fill: #c2ccce; fill-opacity: 0.518761"/>
   </g>
   <g id="patch_306">
    <path d="M 236.690862 254.829662 
L 472.8952 237.472706 
L 857.209515 216.502986 
L 446.014656 110.104558 
z
" clip-path="url(#p2003178ddf)" style="fill: #515b5e; fill-opacity: 0.085021"/>
   </g>
   <g id="patch_307">
    <path d="M 682.985775 142.233202 
L 512.461005 448.11182 
L 193.31401 448.733747 
L 625.56054 505.532234 
z
" clip-path="url(#p2003178ddf)" style="fill: #bea1ae; fill-opacity: 0.607441"/>
   </g>
   <g id="patch_308">
    <path d="M 243.360782 571.19213 
L 196.981274 546.060844 
L 531.609481 162.130295 
z
" clip-path="url(#p2003178ddf)" style="fill: #a7d9f0; fill-opacity: 0.463464"/>
   </g>
   <g id="patch_309">
    <path d="M 632.140942 297.203769 
L 829.564341 476.071047 
L 697.874829 114.548952 
L 666.991563 33.822291 
L 115.821098 247.595656 
z
" clip-path="url(#p2003178ddf)" style="fill: #fffffd; fill-opacity: 0.062685"/>
   </g>
   <g id="patch_310">
    <path d="M 614.697748 342.827039 
L 794.566775 505.425278 
L 730.539502 248.623123 
L 714.733189 334.821152 
z
" clip-path="url(#p2003178ddf)" style="fill: #ffffee; fill-opacity: 0.579063"/>
   </g>
   <g id="patch_311">
    <path d="M 648.992584 196.310587 
L 566.054408 474.895179 
L 334.719201 237.442805 
L 9.310468 420.404312 
L 4.469929 500.090728 
z
" clip-path="url(#p2003178ddf)" style="fill: #d7ceba; fill-opacity: 0.806371"/>
   </g>
   <g id="patch_312">
    <path d="M 963.68627 534.724186 
L 570.873756 242.280523 
L 1.358433 387.948803 
z
" clip-path="url(#p2003178ddf)" style="fill: #b0cedc; fill-opacity: 0.47206"/>
   </g>
   <g id="patch_313">
    <path d="M 678.805443 497.129613 
L 105.510657 442.65904 
L 654.162095 353.709664 
z
" clip-path="url(#p2003178ddf)" style="fill: #c1c3ba; fill-opacity: 0.630915"/>
   </g>
   <g id="patch_314">
    <path d="M 696.883491 289.168964 
L 368.781363 101.809493 
L 588.195981 301.600287 
L 519.723932 558.226934 
L 523.878321 279.41719 
z
" clip-path="url(#p2003178ddf)" style="fill: #57a3cf; fill-opacity: 0.258541"/>
   </g>
   <g id="patch_315">
    <path d="M 447.116326 448.457933 
L 765.050092 417.104098 
L 20.39692 303.170934 
z
" clip-path="url(#p2003178ddf)" style="fill: #a0866c; fill-opacity: 0.334848"/>
   </g>
   <g id="patch_316">
    <path d="M 910.955315 430.631939 
L 818.691987 350.306293 
L 514.448066 303.283654 
L 18.991681 165.90089 
L 556.33618 237.210279 
z
" clip-path="url(#p2003178ddf)" style="fill: #051b94; fill-opacity: 0.014895"/>
   </g>
   <g id="patch_317">
    <path d="M 9.195183 4.122266 
L 389.335476 230.097938 
L 767.920436 491.309297 
L 959.195507 419.820873 
z
" clip-path="url(#p2003178ddf)" style="fill: #4175b9; fill-opacity: 0.062642"/>
   </g>
   <g id="patch_318">
    <path d="M 822.577156 384.819126 
L 148.967966 290.244426 
L 598.421714 501.228366 
L 609.649155 121.531604 
L 439.39586 558.586042 
z
" clip-path="url(#p2003178ddf)" style="fill: #009cc8; fill-opacity: 0.178894"/>
   </g>
   <g id="patch_319">
    <path d="M 119.649432 128.303123 
L 193.509441 366.340694 
L 191.147019 269.177495 
z
" clip-path="url(#p2003178ddf)" style="fill: #582739; fill-opacity: 0.201527"/>
   </g>
   <g id="patch_320">
    <path d="M 681.527371 394.843104 
L 314.375622 460.252874 
L 291.83073 193.791485 
L 216.795844 537.716207 
L 630.120919 241.094228 
z
" clip-path="url(#p2003178ddf)" style="fill: #a2d5d8; fill-opacity: 0.290175"/>
   </g>
   <g id="patch_321">
    <path d="M 70.566329 107.562336 
L 423.664201 265.594601 
L 758.2947 194.388202 
L 70.566329 107.562336 
z
" clip-path="url(#p2003178ddf)" style="fill: none"/>
   </g>
   <g id="patch_322">
    <path d="M 25.321854 512.429727 
L 513.75968 99.175442 
L 899.113378 367.667641 
z
" clip-path="url(#p2003178ddf)" style="fill: #0e0ad5; fill-opacity: 0.028544"/>
   </g>
   <g id="patch_323">
    <path d="M 540.056394 394.183792 
L 769.888501 353.786798 
L 581.322837 550.329711 
L 1.629039 381.248485 
L 90.300724 504.447101 
z
" clip-path="url(#p2003178ddf)" style="fill: #ccc7b7; fill-opacity: 0.301461"/>
   </g>
   <g id="patch_324">
    <path d="M 2.779015 420.456856 
L 154.466464 283.451691 
L 748.135356 2.699963 
z
" clip-path="url(#p2003178ddf)" style="fill: #ffb5f3; fill-opacity: 0.017807"/>
   </g>
   <g id="patch_325">
    <path d="M 274.54889 454.722174 
L 64.601971 437.39115 
L 474.077118 219.679466 
L 354.448081 373.658192 
z
" clip-path="url(#p2003178ddf)" style="fill: #5edcff; fill-opacity: 0.175588"/>
   </g>
   <g id="patch_326">
    <path d="M 637.464352 430.053426 
L 387.21157 544.141985 
L 433.453236 504.958615 
L 654.59961 22.753981 
L 438.346596 8.89243 
z
" clip-path="url(#p2003178ddf)" style="fill: #63a8de; fill-opacity: 0.211417"/>
   </g>
   <g id="patch_327">
    <path d="M 768.449582 301.928364 
L 500.94595 38.490256 
L 774.096622 509.898807 
L 947.163176 212.102167 
z
" clip-path="url(#p2003178ddf)" style="fill: #fff4bc; fill-opacity: 0.084565"/>
   </g>
   <g id="patch_328">
    <path d="M 937.163645 364.275372 
L 979.579742 107.240451 
L 827.335293 349.787483 
L 901.742821 496.292118 
L 211.285017 119.551039 
z
" clip-path="url(#p2003178ddf)" style="fill: #000055; fill-opacity: 0.064039"/>
   </g>
   <g id="patch_329">
    <path d="M 299.606532 566.52872 
L 117.339233 357.317061 
L 203.62621 141.536939 
L 275.216139 39.233478 
L 169.140778 525.94863 
z
" clip-path="url(#p2003178ddf)" style="fill: #421220; fill-opacity: 0.100759"/>
   </g>
   <g id="patch_330">
    <path d="M 451.432784 359.43558 
L 550.180254 142.303102 
L 468.490152 74.717081 
z
" clip-path="url(#p2003178ddf)" style="fill: #4a8bd7; fill-opacity: 0.140592"/>
   </g>
   <g id="patch_331">
    <path d="M 768.684854 518.022526 
L 620.95454 344.646042 
L 413.241575 306.900511 
z
" clip-path="url(#p2003178ddf)" style="fill: #9fb1c6; fill-opacity: 0.482254"/>
   </g>
   <g id="patch_332">
    <path d="M 250.852087 451.110814 
L 371.389967 232.060527 
L 29.095874 351.138929 
L 75.129867 530.525074 
L 348.705377 380.808575 
z
" clip-path="url(#p2003178ddf)" style="fill: #ff9243; fill-opacity: 0.118524"/>
   </g>
   <g id="patch_333">
    <path d="M 26.360824 469.142943 
L 72.658343 395.697659 
L 205.833782 327.588875 
L 975.855649 80.842691 
z
" clip-path="url(#p2003178ddf)" style="fill: #be1219; fill-opacity: 0.050858"/>
   </g>
   <g id="patch_334">
    <path d="M 373.216418 11.137538 
L 91.432698 157.395817 
L 876.652062 37.683664 
z
" clip-path="url(#p2003178ddf)" style="fill: #0283c5; fill-opacity: 0.012459"/>
   </g>
   <g id="patch_335">
    <path d="M 447.67714 152.128089 
L 477.206325 99.162201 
L 762.121798 437.328971 
L 495.06361 431.902903 
z
" clip-path="url(#p2003178ddf)" style="fill: #3fb1ca; fill-opacity: 0.334952"/>
   </g>
   <g id="patch_336">
    <path d="M 177.120414 562.160842 
L 67.737135 480.648196 
L 182.846012 117.079967 
L 176.499733 395.549028 
L 219.378334 77.90204 
z
" clip-path="url(#p2003178ddf)" style="fill: #ffc678; fill-opacity: 0.181188"/>
   </g>
   <g id="patch_337">
    <path d="M 905.27276 573.396346 
L 277.603281 23.444951 
L 883.980451 575.012757 
z
" clip-path="url(#p2003178ddf)" style="fill: #70c0ff; fill-opacity: 0.065375"/>
   </g>
   <g id="patch_338">
    <path d="M 897.972012 547.400011 
L 970.102548 181.989687 
L 141.388902 19.381071 
z
" clip-path="url(#p2003178ddf)" style="fill: #260030; fill-opacity: 0.046317"/>
   </g>
   <g id="patch_339">
    <path d="M 410.979695 541.945185 
L 781.992523 399.701696 
L 202.77171 508.020692 
L 845.898124 568.994037 
L 589.323079 13.156506 
z
" clip-path="url(#p2003178ddf)" style="fill: #ace0fe; fill-opacity: 0.13294"/>
   </g>
  </g>
 </g>
 <defs>
  <clipPath id="p2003178ddf">
   <rect x="0" y="0" width="1022.4" height="576"/>
  </clipPath>
 </defs>
</svg>
