<?xml version="1.0" encoding="utf-8" standalone="no"?>
<!DOCTYPE svg PUBLIC "-//W3C//DTD SVG 1.1//EN"
  "http://www.w3.org/Graphics/SVG/1.1/DTD/svg11.dtd">
<svg xmlns:xlink="http://www.w3.org/1999/xlink" width="576pt" height="682.56pt" viewBox="0 0 576 682.56" xmlns="http://www.w3.org/2000/svg" version="1.1">
 <metadata>
  <rdf:RDF xmlns:dc="http://purl.org/dc/elements/1.1/" xmlns:cc="http://creativecommons.org/ns#" xmlns:rdf="http://www.w3.org/1999/02/22-rdf-syntax-ns#">
   <cc:Work>
    <dc:type rdf:resource="http://purl.org/dc/dcmitype/StillImage"/>
    <dc:date>2022-05-10T16:27:00.130066</dc:date>
    <dc:format>image/svg+xml</dc:format>
    <dc:creator>
     <cc:Agent>
      <dc:title>Matplotlib v3.5.2, https://matplotlib.org/</dc:title>
     </cc:Agent>
    </dc:creator>
   </cc:Work>
  </rdf:RDF>
 </metadata>
 <defs>
  <style type="text/css">*{stroke-linejoin: round; stroke-linecap: butt}</style>
 </defs>
 <g id="figure_1">
  <g id="patch_1">
   <path d="M 0 682.56 
L 576 682.56 
L 576 0 
L 0 0 
z
" style="fill: #ffffff"/>
  </g>
  <g id="axes_1">
   <g id="patch_2">
    <path d="M 0 682.56 
L 0 0 
L 576 0 
L 576 682.56 
z
" clip-path="url(#pc42b422c06)" style="fill: #808080"/>
   </g>
   <g id="patch_3">
    <path d="M 561.91053 461.894819 
L 30.248103 660.473209 
L 66.181381 671.966927 
L 374.5717 425.026456 
L 311.927399 9.789122 
z
" clip-path="url(#pc42b422c06)" style="fill: #543245; fill-opacity: 0.065715"/>
   </g>
   <g id="patch_4">
    <path d="M 62.689579 207.86058 
L 538.867245 242.694644 
L 8.056283 45.754368 
z
" clip-path="url(#pc42b422c06)" style="fill: #1166ca; fill-opacity: 0.933957"/>
   </g>
   <g id="patch_5">
    <path d="M 295.380736 48.630926 
L 210.908075 583.728224 
L 152.595263 41.536669 
L 494.08717 469.941111 
z
" clip-path="url(#pc42b422c06)" style="fill: #0026bd; fill-opacity: 0.790034"/>
   </g>
   <g id="patch_6">
    <path d="M 27.243161 667.95019 
L 77.686809 677.29973 
L 276.696108 223.091443 
L 286.066394 374.365931 
z
" clip-path="url(#pc42b422c06)" style="fill: #202814"/>
   </g>
   <g id="patch_7">
    <path d="M 133.986955 666.458782 
L 205.472998 501.621693 
L 570.219626 597.4268 
z
" clip-path="url(#pc42b422c06)" style="fill: #f287b8; fill-opacity: 0.214814"/>
   </g>
   <g id="patch_8">
    <path d="M 502.792374 81.274683 
L 575.779417 67.931535 
L 570.731867 298.021779 
z
" clip-path="url(#pc42b422c06)"/>
   </g>
   <g id="patch_9">
    <path d="M 571.781531 177.666884 
L 320.309087 624.067553 
L 131.572102 129.167311 
L 572.392479 596.479798 
z
" clip-path="url(#pc42b422c06)" style="fill: #b2e511; fill-opacity: 0.945357"/>
   </g>
   <g id="patch_10">
    <path d="M 554.640629 680.555179 
L 71.240298 209.820199 
L 189.011038 285.286195 
L 219.326521 202.328151 
L 278.255706 195.989121 
z
" clip-path="url(#pc42b422c06)" style="fill: #50090c; fill-opacity: 0.523687"/>
   </g>
   <g id="patch_11">
    <path d="M 405.004612 464.738729 
L 493.969825 405.519156 
L 345.631932 338.334433 
L 303.64839 607.130469 
z
" clip-path="url(#pc42b422c06)" style="fill: #273b1a; fill-opacity: 0.490377"/>
   </g>
   <g id="patch_12">
    <path d="M 467.290377 488.509577 
L 512.54494 179.687479 
L 369.093403 167.805921 
L 486.02214 326.381757 
z
" clip-path="url(#pc42b422c06)" style="fill: #d900c7; fill-opacity: 0.500842"/>
   </g>
   <g id="patch_13">
    <path d="M 457.232935 398.983067 
L 479.489344 77.323725 
L 228.447326 665.001403 
z
" clip-path="url(#pc42b422c06)" style="fill: #b21e00; fill-opacity: 0.089378"/>
   </g>
   <g id="patch_14">
    <path d="M 198.778284 161.756476 
L 336.144075 98.738615 
L 154.562519 409.227924 
z
" clip-path="url(#pc42b422c06)" style="fill: #870653; fill-opacity: 0.789267"/>
   </g>
   <g id="patch_15">
    <path d="M 115.058903 286.537276 
L 370.653149 183.304488 
L 172.450555 347.750831 
L 368.317683 667.141668 
z
" clip-path="url(#pc42b422c06)" style="fill: #9b3815; fill-opacity: 0.504349"/>
   </g>
   <g id="patch_16">
    <path d="M 540.541172 436.511275 
L 108.698232 360.008939 
L 375.561416 206.767214 
L 76.063879 672.004336 
z
" clip-path="url(#pc42b422c06)" style="fill: #5c1d60; fill-opacity: 0.694173"/>
   </g>
   <g id="patch_17">
    <path d="M 133.908311 329.111193 
L 187.898832 594.753957 
L 192.539574 651.874871 
L 133.908311 329.111193 
z
" clip-path="url(#pc42b422c06)" style="fill: none"/>
   </g>
   <g id="patch_18">
    <path d="M 446.045972 669.328496 
L 34.174414 506.511582 
L 465.492722 117.453358 
L 358.181852 70.828405 
L 382.467619 467.839502 
z
" clip-path="url(#pc42b422c06)" style="fill: #571d3b; fill-opacity: 0.725821"/>
   </g>
   <g id="patch_19">
    <path d="M 248.144879 367.615843 
L 3.996196 483.0808 
L 6.033577 310.27576 
L 401.025568 594.855221 
z
" clip-path="url(#pc42b422c06)" style="fill-opacity: 0.963691"/>
   </g>
   <g id="patch_20">
    <path d="M 18.77196 527.324499 
L 433.645193 1.954443 
L 180.605103 568.081905 
L 384.406709 74.25967 
z
" clip-path="url(#pc42b422c06)" style="fill: #522647; fill-opacity: 0.814163"/>
   </g>
   <g id="patch_21">
    <path d="M 415.527772 373.369491 
L 33.480436 181.502645 
L 38.421476 268.754185 
L 93.201226 68.724007 
L 538.403774 345.855567 
L 415.527772 373.369491 
z
" clip-path="url(#pc42b422c06)" style="fill: none"/>
   </g>
   <g id="patch_22">
    <path d="M 44.549952 253.610172 
L 424.292195 610.288021 
L 55.776334 213.219431 
z
" clip-path="url(#pc42b422c06)" style="fill: #320062; fill-opacity: 0.650751"/>
   </g>
   <g id="patch_23">
    <path d="M 326.628761 657.390673 
L 2.724592 576.100205 
L 11.326448 431.341378 
L 166.818046 156.65154 
z
" clip-path="url(#pc42b422c06)" style="fill: #0a0000"/>
   </g>
   <g id="patch_24">
    <path d="M 167.633039 375.224396 
L 548.018754 489.978507 
L 408.39739 634.086083 
L 147.988821 80.676613 
L 450.124131 321.531645 
z
" clip-path="url(#pc42b422c06)" style="fill: #1800d4; fill-opacity: 0.307428"/>
   </g>
   <g id="patch_25">
    <path d="M 288.807467 121.67704 
L 565.758482 63.302622 
L 215.943055 623.095686 
L 502.006113 116.65825 
L 538.34249 58.678398 
z
" clip-path="url(#pc42b422c06)" style="fill: #ac3a96; fill-opacity: 0.792415"/>
   </g>
   <g id="patch_26">
    <path d="M 82.674903 38.06796 
L 402.030768 476.586104 
L 447.805877 276.879253 
L 286.164066 424.328765 
L 245.58725 53.272659 
z
" clip-path="url(#pc42b422c06)" style="fill: #ec5741; fill-opacity: 0.118785"/>
   </g>
   <g id="patch_27">
    <path d="M 224.957711 33.977073 
L 365.201712 321.543608 
L 476.9692 505.489035 
L 575.99794 108.578382 
L 114.946976 311.158685 
z
" clip-path="url(#pc42b422c06)" style="fill: #1c2726; fill-opacity: 0.928307"/>
   </g>
   <g id="patch_28">
    <path d="M 570.345615 513.157349 
L 417.622227 147.329738 
L 493.366882 59.908637 
L 457.801319 464.877388 
L 565.68625 460.554409 
z
" clip-path="url(#pc42b422c06)" style="fill: #3aef7c; fill-opacity: 0.692577"/>
   </g>
   <g id="patch_29">
    <path d="M 347.365425 186.094103 
L 232.06941 290.902187 
L 143.601239 508.0072 
L 532.507084 562.137992 
z
" clip-path="url(#pc42b422c06)" style="fill: #ffe3b7"/>
   </g>
   <g id="patch_30">
    <path d="M 287.754345 204.498324 
L 55.594847 435.485497 
L 489.488684 661.048177 
L 509.513246 2.887405 
z
" clip-path="url(#pc42b422c06)" style="fill: #3c220e; fill-opacity: 0.748975"/>
   </g>
   <g id="patch_31">
    <path d="M 131.51165 174.089914 
L 51.246286 679.569195 
L 447.543934 574.896423 
L 63.178222 494.613516 
L 481.116481 467.051727 
z
" clip-path="url(#pc42b422c06)" style="fill: #170a00"/>
   </g>
   <g id="patch_32">
    <path d="M 238.70773 557.2186 
L 291.834106 498.596884 
L 510.246938 608.012455 
z
" clip-path="url(#pc42b422c06)" style="fill: #e6a551; fill-opacity: 0.070752"/>
   </g>
   <g id="patch_33">
    <path d="M 166.795912 669.606931 
L 238.650489 662.322698 
L 167.067391 449.674977 
L 288.238912 201.367472 
L 233.05263 391.861329 
z
" clip-path="url(#pc42b422c06)" style="fill: #f2b851; fill-opacity: 0.431864"/>
   </g>
   <g id="patch_34">
    <path d="M 182.796163 377.184734 
L 308.487303 384.054047 
L 417.147616 145.359876 
L 393.047515 588.634126 
L 536.025903 373.087458 
z
" clip-path="url(#pc42b422c06)" style="fill: #debdff; fill-opacity: 0.585707"/>
   </g>
   <g id="patch_35">
    <path d="M 553.973323 455.481317 
L 295.773154 515.065616 
L 149.307813 616.487136 
L 444.866803 280.857491 
L 319.205537 149.756944 
z
" clip-path="url(#pc42b422c06)" style="fill: #ed30b7; fill-opacity: 0.04772"/>
   </g>
   <g id="patch_36">
    <path d="M 363.435923 623.656572 
L 54.766103 101.659678 
L 200.001481 0.045922 
L 411.59793 48.646893 
z
" clip-path="url(#pc42b422c06)" style="fill-opacity: 0.978251"/>
   </g>
   <g id="patch_37">
    <path d="M 64.178164 11.084565 
L 283.13216 328.856142 
L 363.043898 455.232573 
L 37.664566 500.621918 
z
" clip-path="url(#pc42b422c06)" style="fill: #3e0866; fill-opacity: 0.200326"/>
   </g>
   <g id="patch_38">
    <path d="M 491.487497 11.603291 
L 460.42794 503.591171 
L 161.038519 677.202324 
L 56.888016 672.064262 
z
" clip-path="url(#pc42b422c06)" style="fill: #113d19; fill-opacity: 0.849574"/>
   </g>
   <g id="patch_39">
    <path d="M 268.567539 263.219934 
L 483.583588 503.113672 
L 42.138169 427.382965 
L 558.787981 348.800858 
L 570.021103 145.227169 
z
" clip-path="url(#pc42b422c06)" style="fill: #e09d19; fill-opacity: 0.879233"/>
   </g>
   <g id="patch_40">
    <path d="M 38.036663 432.606655 
L 180.583026 544.643483 
L 375.818298 115.795652 
L 345.259896 586.276354 
L 21.19393 309.247861 
z
" clip-path="url(#pc42b422c06)" style="fill: #4267ec"/>
   </g>
   <g id="patch_41">
    <path d="M 3.329294 50.684334 
L 228.162674 107.0662 
L 58.949321 153.312468 
L 113.141577 501.626914 
z
" clip-path="url(#pc42b422c06)"/>
   </g>
   <g id="patch_42">
    <path d="M 41.267067 474.232012 
L 349.886237 362.033837 
L 95.745034 260.368713 
L 163.613928 595.30758 
L 341.881368 363.94353 
z
" clip-path="url(#pc42b422c06)" style="fill: #c795ff; fill-opacity: 0.871977"/>
   </g>
   <g id="patch_43">
    <path d="M 472.288312 621.672306 
L 77.027306 460.012928 
L 572.335624 325.452129 
L 390.257578 344.007723 
z
" clip-path="url(#pc42b422c06)" style="fill: #68e9ff; fill-opacity: 0.093293"/>
   </g>
   <g id="patch_44">
    <path d="M 227.609612 650.013261 
L 287.37481 439.087131 
L 527.782559 129.495375 
L 94.343171 316.485766 
L 511.945888 679.607309 
z
" clip-path="url(#pc42b422c06)" style="fill: #eec9d6"/>
   </g>
   <g id="patch_45">
    <path d="M 80.365076 220.514159 
L 493.769504 655.501125 
L 474.116108 629.54292 
L 278.272655 23.855553 
L 312.996802 503.231796 
z
" clip-path="url(#pc42b422c06)" style="fill: #00733c; fill-opacity: 0.127946"/>
   </g>
   <g id="patch_46">
    <path d="M 427.360848 637.703691 
L 240.502368 501.880392 
L 573.358469 168.466635 
L 575.986555 526.989115 
L 320.016497 623.304818 
z
" clip-path="url(#pc42b422c06)" style="fill: #170e00"/>
   </g>
   <g id="patch_47">
    <path d="M 179.429267 338.588418 
L 379.504904 517.55273 
L 58.925769 3.431827 
L 534.328975 401.287881 
z
" clip-path="url(#pc42b422c06)" style="fill: #5e613d; fill-opacity: 0.777487"/>
   </g>
   <g id="patch_48">
    <path d="M 411.386614 357.035839 
L 573.327414 452.544893 
L 174.605647 549.860174 
L 329.822027 73.655204 
L 509.422676 571.866755 
z
" clip-path="url(#pc42b422c06)" style="fill: #645f92; fill-opacity: 0.789804"/>
   </g>
   <g id="patch_49">
    <path d="M 397.842314 360.50913 
L 219.136916 336.417878 
L 301.496736 490.448059 
L 225.09313 534.819828 
L 529.831974 53.018817 
z
" clip-path="url(#pc42b422c06)" style="fill: #8b86ef; fill-opacity: 0.593879"/>
   </g>
   <g id="patch_50">
    <path d="M 451.51409 586.525186 
L 177.497791 475.168395 
L 281.756938 170.257977 
L 539.860677 39.665897 
L 24.043298 46.400663 
z
" clip-path="url(#pc42b422c06)" style="fill: #4840ff; fill-opacity: 0.756732"/>
   </g>
   <g id="patch_51">
    <path d="M 571.050392 357.167721 
L 424.99638 566.875866 
L 456.506683 207.480993 
z
" clip-path="url(#pc42b422c06)" style="fill: #340e7e; fill-opacity: 0.349047"/>
   </g>
   <g id="patch_52">
    <path d="M 435.296045 83.574577 
L 176.176174 3.686355 
L 327.432417 574.357333 
L 1.873339 668.136819 
L 115.575721 34.349252 
z
" clip-path="url(#pc42b422c06)" style="fill: #131c00; fill-opacity: 0.984364"/>
   </g>
   <g id="patch_53">
    <path d="M 391.324709 194.658798 
L 18.685115 564.893194 
L 24.920752 199.624487 
L 139.381954 298.948298 
z
" clip-path="url(#pc42b422c06)" style="fill: #e3dadd; fill-opacity: 0.763133"/>
   </g>
   <g id="patch_54">
    <path d="M 528.546428 626.154801 
L 281.996299 34.62904 
L 557.491687 422.531732 
z
" clip-path="url(#pc42b422c06)" style="fill: #d155ff; fill-opacity: 0.569566"/>
   </g>
   <g id="patch_55">
    <path d="M 94.509902 314.506294 
L 314.242666 55.896307 
L 205.987666 0.607792 
L 67.497692 310.087089 
z
" clip-path="url(#pc42b422c06)" style="fill: #372d34"/>
   </g>
   <g id="patch_56">
    <path d="M 158.779494 582.053052 
L 98.290966 333.637153 
L 192.020515 350.943816 
L 354.879831 181.873062 
L 365.72155 608.826099 
z
" clip-path="url(#pc42b422c06)" style="fill: #154895; fill-opacity: 0.940273"/>
   </g>
   <g id="patch_57">
    <path d="M 550.591307 483.335843 
L 198.018049 496.33676 
L 235.618074 642.711993 
L 417.795683 40.638097 
z
" clip-path="url(#pc42b422c06)" style="fill: #5568ba; fill-opacity: 0.60938"/>
   </g>
   <g id="patch_58">
    <path d="M 33.018113 651.47985 
L 290.008213 137.177625 
L 182.964113 160.948796 
z
" clip-path="url(#pc42b422c06)" style="fill: #975e9d; fill-opacity: 0.288915"/>
   </g>
   <g id="patch_59">
    <path d="M 403.577664 416.169459 
L 116.833973 597.380219 
L 300.661639 564.938519 
L 528.224736 211.146432 
L 450.553564 221.607901 
L 403.577664 416.169459 
z
" clip-path="url(#pc42b422c06)" style="fill: none"/>
   </g>
   <g id="patch_60">
    <path d="M 433.169313 116.54422 
L 51.718629 282.661027 
L 543.389346 677.250916 
L 29.917963 553.10754 
L 217.966719 522.808604 
z
" clip-path="url(#pc42b422c06)" style="fill: #8ba8e0; fill-opacity: 0.408255"/>
   </g>
   <g id="patch_61">
    <path d="M 344.580411 47.795135 
L 60.46809 144.748185 
L 417.199387 515.979776 
L 562.053903 250.678653 
L 271.983661 582.790756 
z
" clip-path="url(#pc42b422c06)" style="fill: #0b48df; fill-opacity: 0.123366"/>
   </g>
   <g id="patch_62">
    <path d="M 263.23372 429.523927 
L 292.521642 148.667021 
L 173.20916 382.242644 
L 11.36459 120.830293 
L 273.910926 0.508154 
z
" clip-path="url(#pc42b422c06)" style="fill: #0f7800; fill-opacity: 0.680233"/>
   </g>
   <g id="patch_63">
    <path d="M 20.986816 483.603857 
L 368.458409 615.498227 
L 510.226562 209.275748 
L 433.914224 594.511486 
L 20.986816 483.603857 
z
" clip-path="url(#pc42b422c06)" style="fill: none"/>
   </g>
   <g id="patch_64">
    <path d="M 396.438193 125.327472 
L 530.397826 19.580016 
L 320.743398 131.235039 
z
" clip-path="url(#pc42b422c06)" style="fill: #2d5b04; fill-opacity: 0.235438"/>
   </g>
   <g id="patch_65">
    <path d="M 50.559544 560.721213 
L 445.904065 462.161662 
L 289.994009 605.109542 
z
" clip-path="url(#pc42b422c06)" style="fill: #9e5a64; fill-opacity: 0.784135"/>
   </g>
   <g id="patch_66">
    <path d="M 356.039951 625.047164 
L 438.584995 213.961528 
L 508.742439 126.722018 
L 512.575696 268.918871 
z
" clip-path="url(#pc42b422c06)" style="fill: #22b05a"/>
   </g>
   <g id="patch_67">
    <path d="M 422.007777 679.062776 
L 532.739961 568.250138 
L 136.183017 368.144756 
L 156.954154 599.766027 
L 516.644997 680.4644 
z
" clip-path="url(#pc42b422c06)" style="fill: #030000"/>
   </g>
   <g id="patch_68">
    <path d="M 169.839398 629.964103 
L 327.796579 127.292015 
L 189.654162 471.974836 
L 428.408945 678.694505 
z
" clip-path="url(#pc42b422c06)" style="fill: #5e6200; fill-opacity: 0.964354"/>
   </g>
   <g id="patch_69">
    <path d="M 437.079973 422.024671 
L 400.306784 348.094017 
L 425.686283 200.074815 
L 171.762117 263.532944 
z
" clip-path="url(#pc42b422c06)" style="fill: #0042d1; fill-opacity: 0.22899"/>
   </g>
   <g id="patch_70">
    <path d="M 40.85955 188.114501 
L 272.050981 416.668987 
L 440.781024 552.300508 
L 325.899265 678.70627 
z
" clip-path="url(#pc42b422c06)" style="fill: #12191e; fill-opacity: 0.544384"/>
   </g>
   <g id="patch_71">
    <path d="M 510.476577 530.710216 
L 414.130226 678.606939 
L 125.777628 428.242076 
L 294.182804 579.76021 
z
" clip-path="url(#pc42b422c06)" style="fill: #ace4a9; fill-opacity: 0.612549"/>
   </g>
   <g id="patch_72">
    <path d="M 236.71092 405.477643 
L 150.456505 478.426779 
L 257.711807 35.179192 
L 446.991686 141.7057 
L 488.52783 680.76132 
z
" clip-path="url(#pc42b422c06)" style="fill: #66460e; fill-opacity: 0.263099"/>
   </g>
   <g id="patch_73">
    <path d="M 354.700173 481.890136 
L 465.911945 489.36937 
L 193.328331 260.267928 
L 74.806552 400.265707 
L 542.060825 146.639114 
z
" clip-path="url(#pc42b422c06)" style="fill: #00493e; fill-opacity: 0.128872"/>
   </g>
   <g id="patch_74">
    <path d="M 137.778386 393.75144 
L 288.849096 211.977912 
L 342.210986 658.724383 
L 204.737287 320.273755 
z
" clip-path="url(#pc42b422c06)" style="fill: #443466; fill-opacity: 0.395586"/>
   </g>
   <g id="patch_75">
    <path d="M 299.596992 191.215999 
L 3.847256 492.581265 
L 12.023579 325.804366 
z
" clip-path="url(#pc42b422c06)" style="fill: #003600"/>
   </g>
   <g id="patch_76">
    <path d="M 526.477017 579.902042 
L 389.797712 110.874791 
L 100.598133 246.972869 
L 24.135765 243.883777 
L 555.478759 161.992689 
z
" clip-path="url(#pc42b422c06)" style="fill: #2e2232; fill-opacity: 0.115776"/>
   </g>
   <g id="patch_77">
    <path d="M 434.259835 556.765887 
L 60.358006 266.739936 
L 458.901862 114.328379 
L 509.613173 377.835375 
z
" clip-path="url(#pc42b422c06)" style="fill: #65004c; fill-opacity: 0.967685"/>
   </g>
   <g id="patch_78">
    <path d="M 104.134713 29.719087 
L 413.028759 87.880229 
L 181.070503 327.782894 
L 353.032603 616.410264 
z
" clip-path="url(#pc42b422c06)" style="fill: #742311; fill-opacity: 0.198225"/>
   </g>
   <g id="patch_79">
    <path d="M 360.704073 512.150333 
L 215.548755 565.069884 
L 506.314321 11.31631 
L 289.959326 312.457184 
z
" clip-path="url(#pc42b422c06)" style="fill: #0d6143; fill-opacity: 0.447298"/>
   </g>
   <g id="patch_80">
    <path d="M 574.224293 31.844642 
L 137.228043 454.417849 
L 350.349642 271.544015 
L 488.187347 453.794573 
z
" clip-path="url(#pc42b422c06)" style="fill: #1d0000; fill-opacity: 0.98756"/>
   </g>
   <g id="patch_81">
    <path d="M 78.682497 304.408571 
L 571.903203 135.403859 
L 571.664974 382.445494 
L 149.675442 162.106445 
L 564.967702 178.853048 
z
" clip-path="url(#pc42b422c06)" style="fill: #291413; fill-opacity: 0.673738"/>
   </g>
   <g id="patch_82">
    <path d="M 271.019233 316.112792 
L 358.065074 195.085335 
L 93.330761 425.39492 
z
" clip-path="url(#pc42b422c06)" style="fill: #0e181c; fill-opacity: 0.88244"/>
   </g>
   <g id="patch_83">
    <path d="M 310.055002 237.312596 
L 553.058312 382.979379 
L 414.168906 396.819138 
z
" clip-path="url(#pc42b422c06)" style="fill: #507644; fill-opacity: 0.638588"/>
   </g>
   <g id="patch_84">
    <path d="M 553.667735 679.783939 
L 384.855908 680.52128 
L 67.078897 297.207873 
z
" clip-path="url(#pc42b422c06)" style="fill: #322224"/>
   </g>
   <g id="patch_85">
    <path d="M 346.136348 130.742153 
L 413.655048 296.840965 
L 89.246938 200.91308 
L 243.503167 642.511973 
z
" clip-path="url(#pc42b422c06)" style="fill: #85cfff; fill-opacity: 0.074356"/>
   </g>
   <g id="patch_86">
    <path d="M 450.042343 418.702542 
L 527.354401 221.239131 
L 264.041303 680.755915 
L 163.11853 26.52854 
z
" clip-path="url(#pc42b422c06)" style="fill: #4e4639; fill-opacity: 0.751529"/>
   </g>
   <g id="patch_87">
    <path d="M 24.896667 308.852347 
L 439.102201 211.417679 
L 247.605756 320.544565 
L 17.300421 596.200099 
L 493.767081 383.318011 
z
" clip-path="url(#pc42b422c06)" style="fill: #31657d; fill-opacity: 0.354125"/>
   </g>
   <g id="patch_88">
    <path d="M 179.076483 640.43054 
L 192.952869 458.058856 
L 514.885232 650.890586 
L 13.230792 216.269639 
L 78.932463 620.851452 
z
" clip-path="url(#pc42b422c06)" style="fill: #30a544; fill-opacity: 0.867328"/>
   </g>
   <g id="patch_89">
    <path d="M 222.732513 680.83494 
L 21.720044 182.475007 
L 11.951011 3.916839 
L 387.009378 560.761976 
L 334.432877 260.181313 
z
" clip-path="url(#pc42b422c06)" style="fill: #ffbf70; fill-opacity: 0.710714"/>
   </g>
   <g id="patch_90">
    <path d="M 478.661126 253.616031 
L 276.553763 548.239793 
L 2.312147 547.727837 
z
" clip-path="url(#pc42b422c06)" style="fill: #8d3000; fill-opacity: 0.640737"/>
   </g>
   <g id="patch_91">
    <path d="M 249.987208 605.653853 
L 352.637083 66.069267 
L 413.381194 268.644784 
L 169.916883 263.60925 
z
" clip-path="url(#pc42b422c06)" style="fill: #3d2d27; fill-opacity: 0.810687"/>
   </g>
   <g id="patch_92">
    <path d="M 287.091478 179.918564 
L 349.909342 237.116752 
L 163.459873 52.749819 
L 113.01376 305.828875 
z
" clip-path="url(#pc42b422c06)" style="fill: #226052; fill-opacity: 0.09741"/>
   </g>
   <g id="patch_93">
    <path d="M 509.599557 189.721743 
L 178.078429 146.541799 
L 222.933051 206.422281 
L 444.935675 358.643101 
L 564.923912 671.04443 
z
" clip-path="url(#pc42b422c06)" style="fill: #060000; fill-opacity: 0.939183"/>
   </g>
   <g id="patch_94">
    <path d="M 308.023719 158.199606 
L 102.077247 352.913079 
L 312.365296 429.785271 
L 264.219202 538.761637 
L 567.100012 660.779046 
z
" clip-path="url(#pc42b422c06)" style="fill: #001c0f; fill-opacity: 0.98109"/>
   </g>
   <g id="patch_95">
    <path d="M 571.24819 75.079197 
L 14.762497 3.032418 
L 284.14936 179.740775 
z
" clip-path="url(#pc42b422c06)" style="fill: #070000; fill-opacity: 0.985262"/>
   </g>
   <g id="patch_96">
    <path d="M 507.877545 283.587255 
L 421.332179 284.185448 
L 575.754381 470.762312 
z
" clip-path="url(#pc42b422c06)" style="fill: #471658; fill-opacity: 0.562869"/>
   </g>
   <g id="patch_97">
    <path d="M 289.736381 274.660241 
L 249.609796 518.919317 
L 61.519103 119.333964 
L 118.251321 200.193995 
z
" clip-path="url(#pc42b422c06)" style="fill: #2b3f22; fill-opacity: 0.247114"/>
   </g>
   <g id="patch_98">
    <path d="M 285.062449 371.653843 
L 193.174411 662.824134 
L 0.485827 634.579833 
L 86.395252 137.421899 
L 562.597016 491.924349 
z
" clip-path="url(#pc42b422c06)" style="fill: #1d1800; fill-opacity: 0.918782"/>
   </g>
   <g id="patch_99">
    <path d="M 526.512105 653.181393 
L 249.644728 176.774713 
L 398.530139 674.256916 
L 560.81352 563.868551 
z
" clip-path="url(#pc42b422c06)" style="fill: #ffffeb"/>
   </g>
   <g id="patch_100">
    <path d="M 455.378004 147.267619 
L 506.992997 512.931453 
L 328.209286 131.532579 
z
" clip-path="url(#pc42b422c06)" style="fill: #907030; fill-opacity: 0.677016"/>
   </g>
   <g id="patch_101">
    <path d="M 325.680119 221.742402 
L 133.91643 632.698444 
L 430.485009 608.400141 
L 575.774781 305.200926 
L 267.337591 128.835776 
z
" clip-path="url(#pc42b422c06)" style="fill: #000018; fill-opacity: 0.857463"/>
   </g>
   <g id="patch_102">
    <path d="M 526.409747 388.502529 
L 84.806802 675.555849 
L 174.538645 250.372621 
z
" clip-path="url(#pc42b422c06)" style="fill: #31a027; fill-opacity: 0.720368"/>
   </g>
   <g id="patch_103">
    <path d="M 190.315633 681.497096 
L 68.282562 681.278106 
L 379.308537 479.72134 
L 18.210533 414.874075 
z
" clip-path="url(#pc42b422c06)" style="fill: #250e07; fill-opacity: 0.808796"/>
   </g>
   <g id="patch_104">
    <path d="M 188.919023 59.620802 
L 502.427329 424.386337 
L 187.636127 665.417966 
L 187.86626 462.661249 
L 159.912703 672.094168 
z
" clip-path="url(#pc42b422c06)" style="fill: #f6bcba; fill-opacity: 0.826427"/>
   </g>
   <g id="patch_105">
    <path d="M 181.246393 51.5602 
L 143.536486 3.978586 
L 475.564591 146.49496 
z
" clip-path="url(#pc42b422c06)" style="fill: #bf64e7; fill-opacity: 0.599575"/>
   </g>
   <g id="patch_106">
    <path d="M 425.283691 15.550228 
L 75.493053 21.321751 
L 57.091027 189.660984 
L 262.064028 286.102335 
z
" clip-path="url(#pc42b422c06)" style="fill: #730f50; fill-opacity: 0.208651"/>
   </g>
   <g id="patch_107">
    <path d="M 48.536198 570.760462 
L 306.4609 177.548531 
L 224.907171 664.205324 
L 352.843083 601.685807 
L 174.196493 444.982126 
z
" clip-path="url(#pc42b422c06)" style="fill: #ceca79; fill-opacity: 0.323527"/>
   </g>
   <g id="patch_108">
    <path d="M 146.617123 493.915798 
L 478.777222 613.78525 
L 403.983763 567.999941 
L 400.383839 621.139735 
L 377.154386 77.993501 
z
" clip-path="url(#pc42b422c06)" style="fill: #4d8382; fill-opacity: 0.409729"/>
   </g>
   <g id="patch_109">
    <path d="M 509.087391 504.618861 
L 556.228301 500.044139 
L 442.785631 408.892908 
L 108.676947 559.473653 
z
" clip-path="url(#pc42b422c06)" style="fill: #d08167; fill-opacity: 0.943748"/>
   </g>
   <g id="patch_110">
    <path d="M 311.174479 362.731156 
L 319.259027 476.365329 
L 298.559711 368.369776 
L 338.22192 457.678208 
z
" clip-path="url(#pc42b422c06)" style="fill: #3e0066; fill-opacity: 0.355836"/>
   </g>
   <g id="patch_111">
    <path d="M 237.129164 58.566472 
L 10.095273 600.578397 
L 570.834292 153.808982 
L 568.265025 287.481559 
L 548.391373 583.73613 
z
" clip-path="url(#pc42b422c06)" style="fill: #262083; fill-opacity: 0.034336"/>
   </g>
   <g id="patch_112">
    <path d="M 422.091239 65.45201 
L 308.04573 462.921951 
L 242.678415 608.126732 
L 498.130769 153.506538 
L 477.45281 587.569862 
L 422.091239 65.45201 
z
" clip-path="url(#pc42b422c06)" style="fill: none"/>
   </g>
   <g id="patch_113">
    <path d="M 73.226862 25.057624 
L 97.067686 557.40465 
L 258.761573 43.876218 
L 85.887078 670.420005 
z
" clip-path="url(#pc42b422c06)" style="fill: #a62b71; fill-opacity: 0.834719"/>
   </g>
   <g id="patch_114">
    <path d="M 298.057697 561.215817 
L 329.023607 628.905031 
L 164.615169 427.886418 
L 305.683144 673.779772 
z
" clip-path="url(#pc42b422c06)" style="fill: #219556; fill-opacity: 0.455259"/>
   </g>
   <g id="patch_115">
    <path d="M 11.79971 98.777615 
L 187.68457 505.130255 
L 85.267404 5.101135 
z
" clip-path="url(#pc42b422c06)" style="fill: #615df9; fill-opacity: 0.176823"/>
   </g>
   <g id="patch_116">
    <path d="M 536.461822 129.557843 
L 477.784977 504.510002 
L 142.28507 87.031648 
L 537.463142 349.452881 
L 472.443099 48.944451 
z
" clip-path="url(#pc42b422c06)" style="fill: #d7111b; fill-opacity: 0.819787"/>
   </g>
   <g id="patch_117">
    <path d="M 43.05593 680.325888 
L 573.060521 464.784327 
L 69.770068 431.717737 
L 109.481599 239.874685 
L 49.537868 380.710913 
z
" clip-path="url(#pc42b422c06)" style="fill: #201003; fill-opacity: 0.929366"/>
   </g>
   <g id="patch_118">
    <path d="M 455.082595 660.460604 
L 126.552638 141.569822 
L 250.139532 66.61759 
L 143.664021 98.397965 
L 305.806459 100.345549 
z
" clip-path="url(#pc42b422c06)" style="fill: #496adb; fill-opacity: 0.412367"/>
   </g>
   <g id="patch_119">
    <path d="M 430.099817 304.261746 
L 1.69306 55.107289 
L 0.846497 471.319189 
z
" clip-path="url(#pc42b422c06)" style="fill: #161400"/>
   </g>
   <g id="patch_120">
    <path d="M 398.884014 125.041991 
L 496.583367 85.382185 
L 556.752994 128.093117 
L 16.175851 279.637775 
z
" clip-path="url(#pc42b422c06)" style="fill: #5bf48f; fill-opacity: 0.742886"/>
   </g>
   <g id="patch_121">
    <path d="M 479.509778 134.797571 
L 452.025432 558.009501 
L 382.767032 255.522877 
L 405.371737 176.160801 
z
" clip-path="url(#pc42b422c06)" style="fill: #ff5011; fill-opacity: 0.738993"/>
   </g>
   <g id="patch_122">
    <path d="M 147.176551 145.510155 
L 518.904483 553.844216 
L 167.488106 453.073464 
L 338.483313 80.779394 
z
" clip-path="url(#pc42b422c06)" style="fill: #f80074; fill-opacity: 0.581259"/>
   </g>
   <g id="patch_123">
    <path d="M 568.044714 520.228296 
L 470.424282 536.7568 
L 56.363444 167.233587 
L 78.423721 92.394624 
z
" clip-path="url(#pc42b422c06)" style="fill: #2de5a6"/>
   </g>
   <g id="patch_124">
    <path d="M 316.671563 666.786541 
L 520.247823 35.023486 
L 504.672448 321.326134 
z
" clip-path="url(#pc42b422c06)" style="fill: #004c00; fill-opacity: 0.715775"/>
   </g>
   <g id="patch_125">
    <path d="M 49.10073 597.847701 
L 256.80757 237.230205 
L 184.512037 109.167622 
L 31.422448 259.189892 
L 481.69634 682.24628 
z
" clip-path="url(#pc42b422c06)" style="fill: #433827; fill-opacity: 0.951613"/>
   </g>
   <g id="patch_126">
    <path d="M 512.815127 677.695383 
L 60.420333 534.466359 
L 527.544743 651.058152 
L 254.70788 51.528224 
z
" clip-path="url(#pc42b422c06)" style="fill: #0b236d; fill-opacity: 0.371531"/>
   </g>
   <g id="patch_127">
    <path d="M 174.223337 535.621671 
L 469.266794 142.852615 
L 426.143474 386.847613 
L 363.913122 341.265187 
L 425.102681 147.621778 
z
" clip-path="url(#pc42b422c06)" style="fill: #498989; fill-opacity: 0.784088"/>
   </g>
   <g id="patch_128">
    <path d="M 492.692102 213.89479 
L 432.225285 323.483033 
L 201.364277 573.890478 
L 564.669328 681.848447 
z
" clip-path="url(#pc42b422c06)" style="fill: #202117"/>
   </g>
   <g id="patch_129">
    <path d="M 159.743231 175.888253 
L 492.846381 197.969336 
L 185.742689 19.565283 
L 33.332101 56.785268 
z
" clip-path="url(#pc42b422c06)" style="fill: #9975ba"/>
   </g>
   <g id="patch_130">
    <path d="M 4.812228 17.624394 
L 4.870497 601.302531 
L 387.010119 337.197227 
L 74.832085 432.476178 
z
" clip-path="url(#pc42b422c06)" style="fill: #2a2019; fill-opacity: 0.869476"/>
   </g>
   <g id="patch_131">
    <path d="M 55.964363 679.948982 
L 518.339641 328.927648 
L 475.187828 560.497618 
z
" clip-path="url(#pc42b422c06)" style="fill: #1d160c; fill-opacity: 0.974982"/>
   </g>
   <g id="patch_132">
    <path d="M 396.888749 682.551155 
L 337.989273 529.869463 
L 504.07367 439.889718 
L 518.026591 631.505484 
L 555.590613 648.081254 
z
" clip-path="url(#pc42b422c06)" style="fill: #1b0f16; fill-opacity: 0.765474"/>
   </g>
   <g id="patch_133">
    <path d="M 145.972558 228.051946 
L 60.435232 97.959049 
L 575.156296 11.893851 
L 524.806917 232.097142 
z
" clip-path="url(#pc42b422c06)" style="fill: #211100"/>
   </g>
   <g id="patch_134">
    <path d="M 568.305294 569.753825 
L 295.930893 435.455166 
L 373.917448 196.588928 
z
" clip-path="url(#pc42b422c06)" style="fill: #420063; fill-opacity: 0.060495"/>
   </g>
   <g id="patch_135">
    <path d="M 244.928831 3.509962 
L 253.678145 252.701717 
L 249.355794 280.782213 
L 415.072011 265.297141 
L 32.208292 353.490667 
z
" clip-path="url(#pc42b422c06)" style="fill: #00136e; fill-opacity: 0.579242"/>
   </g>
   <g id="patch_136">
    <path d="M 379.60172 483.624797 
L 436.04136 454.816239 
L 354.228275 589.971312 
L 195.03645 561.035105 
z
" clip-path="url(#pc42b422c06)" style="fill: #2d3a00; fill-opacity: 0.917437"/>
   </g>
   <g id="patch_137">
    <path d="M 457.006395 427.811434 
L 526.251582 613.991247 
L 302.035434 154.862906 
z
" clip-path="url(#pc42b422c06)" style="fill: #91b2f8; fill-opacity: 0.268368"/>
   </g>
   <g id="patch_138">
    <path d="M 538.814463 388.048394 
L 80.086549 336.167208 
L 295.943661 30.072593 
L 113.135614 292.278797 
z
" clip-path="url(#pc42b422c06)" style="fill: #e71908; fill-opacity: 0.178826"/>
   </g>
   <g id="patch_139">
    <path d="M 331.875665 624.577506 
L 410.123176 145.901291 
L 567.239755 484.1231 
L 575.518121 39.277089 
z
" clip-path="url(#pc42b422c06)" style="fill: #1e120a"/>
   </g>
   <g id="patch_140">
    <path d="M 368.790917 304.395032 
L 57.882246 389.037152 
L 413.969298 478.680046 
z
" clip-path="url(#pc42b422c06)" style="fill: #1c1300; fill-opacity: 0.278071"/>
   </g>
   <g id="patch_141">
    <path d="M 531.512333 618.584008 
L 177.790045 288.647303 
L 83.332546 549.100397 
L 65.079738 541.056417 
L 201.784992 159.446253 
z
" clip-path="url(#pc42b422c06)" style="fill: #37a950; fill-opacity: 0.454085"/>
   </g>
   <g id="patch_142">
    <path d="M 46.96149 299.664768 
L 419.526265 425.839293 
L 247.02311 242.569628 
L 77.865371 648.650308 
L 9.66891 407.440826 
z
" clip-path="url(#pc42b422c06)" style="fill: #6d3b8e; fill-opacity: 0.108355"/>
   </g>
   <g id="patch_143">
    <path d="M 479.876839 538.466008 
L 513.931152 624.034387 
L 259.19284 333.730421 
z
" clip-path="url(#pc42b422c06)" style="fill: #00b3d6; fill-opacity: 0.193149"/>
   </g>
   <g id="patch_144">
    <path d="M 14.985931 441.153308 
L 105.436176 191.976497 
L 531.205951 396.368906 
L 1.687418 617.517669 
z
" clip-path="url(#pc42b422c06)" style="fill: #221c05"/>
   </g>
   <g id="patch_145">
    <path d="M 121.757394 433.718108 
L 466.356799 533.747032 
L 402.345734 478.435676 
z
" clip-path="url(#pc42b422c06)" style="fill: #88b319; fill-opacity: 0.222989"/>
   </g>
   <g id="patch_146">
    <path d="M 358.156005 411.142932 
L 432.488819 117.767343 
L 475.188386 111.965335 
L 357.388026 19.626394 
L 126.759975 644.340138 
z
" clip-path="url(#pc42b422c06)" style="fill: #4b712b; fill-opacity: 0.030942"/>
   </g>
   <g id="patch_147">
    <path d="M 256.454858 618.877292 
L 100.92499 369.390048 
L 415.250854 282.743868 
L 177.510694 152.712792 
L 306.102185 588.973831 
z
" clip-path="url(#pc42b422c06)" style="fill: #54157b; fill-opacity: 0.689462"/>
   </g>
   <g id="patch_148">
    <path d="M 209.317733 143.951149 
L 36.546973 402.014852 
L 546.713451 112.775762 
L 490.060626 1.143774 
z
" clip-path="url(#pc42b422c06)" style="fill: #000015; fill-opacity: 0.939"/>
   </g>
   <g id="patch_149">
    <path d="M 17.7926 170.509494 
L 6.983527 679.750161 
L 100.840039 356.467001 
L 130.086515 411.301873 
z
" clip-path="url(#pc42b422c06)" style="fill: #181600; fill-opacity: 0.969573"/>
   </g>
   <g id="patch_150">
    <path d="M 186.556633 227.671415 
L 88.042146 74.363235 
L 456.239567 412.885045 
z
" clip-path="url(#pc42b422c06)" style="fill: #0b2a90; fill-opacity: 0.336739"/>
   </g>
   <g id="patch_151">
    <path d="M 138.749026 229.896305 
L 538.244542 496.390125 
L 484.422004 577.433134 
L 229.757633 664.530589 
z
" clip-path="url(#pc42b422c06)" style="fill: #dab379; fill-opacity: 0.45376"/>
   </g>
   <g id="patch_152">
    <path d="M 529.231228 530.33581 
L 95.696431 295.241743 
L 359.712388 598.93448 
L 296.927313 238.783606 
z
" clip-path="url(#pc42b422c06)" style="fill: #001a55; fill-opacity: 0.512394"/>
   </g>
   <g id="patch_153">
    <path d="M 252.053812 229.138635 
L 362.71069 90.763067 
L 279.973663 556.722705 
L 485.745822 608.360845 
z
" clip-path="url(#pc42b422c06)" style="fill: #849d2e; fill-opacity: 0.460206"/>
   </g>
   <g id="patch_154">
    <path d="M 574.925311 421.802239 
L 367.417134 380.489534 
L 250.062714 209.043102 
L 572.72315 650.415971 
z
" clip-path="url(#pc42b422c06)" style="fill: #271a06"/>
   </g>
   <g id="patch_155">
    <path d="M 0.04406 331.739771 
L 571.544531 633.800166 
L 340.099041 662.364011 
z
" clip-path="url(#pc42b422c06)" style="fill: #021500; fill-opacity: 0.923517"/>
   </g>
   <g id="patch_156">
    <path d="M 365.86399 462.385782 
L 209.398559 336.751302 
L 147.262705 156.004014 
L 121.960284 324.346589 
z
" clip-path="url(#pc42b422c06)" style="fill: #e7296b; fill-opacity: 0.410323"/>
   </g>
   <g id="patch_157">
    <path d="M 561.049195 388.231901 
L 423.235546 646.936449 
L 152.960842 639.524491 
L 536.379971 257.689159 
L 194.856033 252.114201 
z
" clip-path="url(#pc42b422c06)" style="fill: #5b3731; fill-opacity: 0.624001"/>
   </g>
   <g id="patch_158">
    <path d="M 72.041958 619.810353 
L 353.08736 307.091665 
L 48.454361 651.285275 
z
" clip-path="url(#pc42b422c06)" style="fill: #82ee73; fill-opacity: 0.097587"/>
   </g>
   <g id="patch_159">
    <path d="M 153.7359 586.584195 
L 336.942313 335.569529 
L 331.591713 552.478689 
z
" clip-path="url(#pc42b422c06)" style="fill: #8619f8; fill-opacity: 0.877772"/>
   </g>
   <g id="patch_160">
    <path d="M 336.393764 338.40079 
L 511.563116 226.582104 
L 541.192383 442.354746 
L 154.50407 382.155635 
L 142.570548 40.360785 
z
" clip-path="url(#pc42b422c06)" style="fill: #e0fbff"/>
   </g>
   <g id="patch_161">
    <path d="M 40.013508 485.308039 
L 6.361228 213.642871 
L 154.318533 310.550297 
L 421.537691 7.842312 
L 153.782328 28.359803 
z
" clip-path="url(#pc42b422c06)" style="fill: #35e7ff; fill-opacity: 0.941311"/>
   </g>
   <g id="patch_162">
    <path d="M 131.561838 358.66371 
L 320.281921 331.823712 
L 234.413413 291.647126 
L 23.00029 237.167198 
z
" clip-path="url(#pc42b422c06)" style="fill: #2b0000; fill-opacity: 0.698666"/>
   </g>
   <g id="patch_163">
    <path d="M 246.542442 648.704324 
L 514.698098 679.192361 
L 397.801927 486.21514 
z
" clip-path="url(#pc42b422c06)" style="fill: #3c3b28"/>
   </g>
   <g id="patch_164">
    <path d="M 59.571953 497.425244 
L 7.5297 48.293058 
L 85.502377 252.080438 
L 121.55247 100.654319 
L 461.235548 456.31332 
z
" clip-path="url(#pc42b422c06)" style="fill: #d403f0; fill-opacity: 0.876167"/>
   </g>
   <g id="patch_165">
    <path d="M 298.009851 505.851369 
L 310.471686 2.543816 
L 510.811616 15.594735 
z
" clip-path="url(#pc42b422c06)" style="fill: #260537; fill-opacity: 0.689616"/>
   </g>
   <g id="patch_166">
    <path d="M 49.551925 68.714406 
L 566.243912 569.131548 
L 154.297056 630.76125 
L 534.34883 559.764753 
z
" clip-path="url(#pc42b422c06)" style="fill: #e0e2a3; fill-opacity: 0.864339"/>
   </g>
   <g id="patch_167">
    <path d="M 517.832145 527.197255 
L 90.098801 370.33583 
L 415.243252 487.417799 
L 335.707384 574.742039 
L 449.645445 43.553533 
z
" clip-path="url(#pc42b422c06)"/>
   </g>
   <g id="patch_168">
    <path d="M 558.971539 512.116864 
L 95.076335 379.64044 
L 29.69503 237.468392 
L 45.308951 622.065549 
L 353.975036 522.658036 
z
" clip-path="url(#pc42b422c06)" style="fill: #80eb72"/>
   </g>
   <g id="patch_169">
    <path d="M 350.898699 55.871707 
L 194.919247 452.942426 
L 494.498136 651.065713 
L 198.374245 181.605502 
L 350.898699 55.871707 
z
" clip-path="url(#pc42b422c06)" style="fill: none"/>
   </g>
   <g id="patch_170">
    <path d="M 283.061029 403.271331 
L 281.534168 6.323699 
L 130.625466 321.388679 
L 252.073268 602.836955 
z
" clip-path="url(#pc42b422c06)" style="fill: #b0e580; fill-opacity: 0.629545"/>
   </g>
   <g id="patch_171">
    <path d="M 207.056265 12.816657 
L 53.172527 127.670843 
L 360.924908 323.919573 
L 121.917289 44.699405 
L 69.504166 109.408196 
z
" clip-path="url(#pc42b422c06)" style="fill: #8d0d60; fill-opacity: 0.049055"/>
   </g>
   <g id="patch_172">
    <path d="M 1.428556 135.366928 
L 412.654079 13.914429 
L 396.607129 663.036967 
L 12.928885 220.473036 
z
" clip-path="url(#pc42b422c06)" style="fill: #2c2923; fill-opacity: 0.681846"/>
   </g>
   <g id="patch_173">
    <path d="M 166.755428 438.628005 
L 386.941021 489.086349 
L 317.412729 13.570801 
L 309.638788 290.058596 
L 45.23892 100.04568 
z
" clip-path="url(#pc42b422c06)" style="fill: #480cd1"/>
   </g>
   <g id="patch_174">
    <path d="M 506.303775 455.697561 
L 460.480697 254.4889 
L 142.342337 140.32069 
z
" clip-path="url(#pc42b422c06)" style="fill: #d8ff48; fill-opacity: 0.976735"/>
   </g>
   <g id="patch_175">
    <path d="M 436.665658 467.554526 
L 250.619243 379.671341 
L 248.935996 657.139795 
z
" clip-path="url(#pc42b422c06)" style="fill: #9b12b7; fill-opacity: 0.098264"/>
   </g>
   <g id="patch_176">
    <path d="M 351.768067 288.913292 
L 189.029747 346.53172 
L 273.506488 234.90745 
L 65.203912 636.60701 
L 473.28911 418.905726 
z
" clip-path="url(#pc42b422c06)" style="fill: #28437b; fill-opacity: 0.682708"/>
   </g>
   <g id="patch_177">
    <path d="M 461.904123 451.27937 
L 118.316839 611.768084 
L 466.494951 254.265675 
L 451.715999 285.359692 
z
" clip-path="url(#pc42b422c06)" style="fill: #aefef6; fill-opacity: 0.699937"/>
   </g>
   <g id="patch_178">
    <path d="M 110.311694 299.277042 
L 180.73079 614.714948 
L 278.431054 72.814182 
L 453.189411 496.314262 
L 95.031557 344.363759 
z
" clip-path="url(#pc42b422c06)" style="fill: #ffb854; fill-opacity: 0.238237"/>
   </g>
   <g id="patch_179">
    <path d="M 77.575687 314.139592 
L 455.066015 3.391619 
L 255.85231 0.040495 
L 8.801087 75.463122 
z
" clip-path="url(#pc42b422c06)"/>
   </g>
   <g id="patch_180">
    <path d="M 431.936403 193.67853 
L 141.773939 119.883674 
L 6.259316 610.404516 
L 4.204141 634.368442 
L 323.115183 569.646393 
z
" clip-path="url(#pc42b422c06)" style="fill: #23071c"/>
   </g>
   <g id="patch_181">
    <path d="M 28.772312 225.831177 
L 572.776784 670.8838 
L 511.132871 12.800482 
L 323.283691 624.119468 
z
" clip-path="url(#pc42b422c06)" style="fill: #2c180b; fill-opacity: 0.816664"/>
   </g>
   <g id="patch_182">
    <path d="M 508.521777 406.72042 
L 162.180818 641.931931 
L 455.653776 677.948354 
L 473.850376 472.663934 
z
" clip-path="url(#pc42b422c06)" style="fill: #7e6140; fill-opacity: 0.830708"/>
   </g>
   <g id="patch_183">
    <path d="M 22.207729 220.338602 
L 478.508489 489.733811 
L 240.467303 151.476901 
L 40.869483 456.493879 
L 59.160637 277.14533 
z
" clip-path="url(#pc42b422c06)" style="fill: #766c80; fill-opacity: 0.829687"/>
   </g>
   <g id="patch_184">
    <path d="M 354.744991 173.745071 
L 376.737542 410.855825 
L 44.877592 216.509463 
L 390.273549 600.21091 
L 7.217435 608.58838 
z
" clip-path="url(#pc42b422c06)" style="fill: #ffaf1f; fill-opacity: 0.983086"/>
   </g>
   <g id="patch_185">
    <path d="M 20.803814 232.510623 
L 425.907524 62.923823 
L 514.349778 522.267218 
L 229.75793 537.563805 
L 105.450936 42.973614 
z
" clip-path="url(#pc42b422c06)" style="fill: #ffffc2"/>
   </g>
   <g id="patch_186">
    <path d="M 406.21854 510.03808 
L 307.655156 556.758954 
L 498.073206 115.761214 
z
" clip-path="url(#pc42b422c06)" style="fill: #a46529; fill-opacity: 0.492495"/>
   </g>
   <g id="patch_187">
    <path d="M 559.4363 32.830531 
L 443.981236 220.941486 
L 456.738891 145.997334 
L 409.107262 89.595326 
z
" clip-path="url(#pc42b422c06)" style="fill: #99a41c; fill-opacity: 0.16686"/>
   </g>
   <g id="patch_188">
    <path d="M 260.593625 128.591401 
L 470.16091 232.984113 
L 209.746442 578.770155 
L 151.74627 103.181154 
L 160.641951 660.167831 
z
" clip-path="url(#pc42b422c06)" style="fill: #53b97f; fill-opacity: 0.196008"/>
   </g>
   <g id="patch_189">
    <path d="M 249.044015 248.263903 
L 436.917148 16.975023 
L 228.563459 372.862169 
z
" clip-path="url(#pc42b422c06)" style="fill: #49490a; fill-opacity: 0.605646"/>
   </g>
   <g id="patch_190">
    <path d="M 288.862148 78.528022 
L 210.704549 388.295383 
L 90.786262 126.628531 
z
" clip-path="url(#pc42b422c06)" style="fill: #65ff75; fill-opacity: 0.609708"/>
   </g>
   <g id="patch_191">
    <path d="M 416.942815 434.167129 
L 296.424223 622.622833 
L 424.582394 680.067384 
z
" clip-path="url(#pc42b422c06)" style="fill: #464237; fill-opacity: 0.657589"/>
   </g>
   <g id="patch_192">
    <path d="M 567.086637 582.118328 
L 538.679756 477.698758 
L 527.041015 551.375543 
z
" clip-path="url(#pc42b422c06)" style="fill: #ffe6aa; fill-opacity: 0.079426"/>
   </g>
   <g id="patch_193">
    <path d="M 186.772521 665.220542 
L 360.016997 122.60608 
L 262.621409 647.247558 
z
" clip-path="url(#pc42b422c06)" style="fill: #ffd350; fill-opacity: 0.308936"/>
   </g>
   <g id="patch_194">
    <path d="M 560.100999 680.55793 
L 126.296715 615.526933 
L 21.150162 620.469201 
L 530.733082 668.021589 
L 385.366496 331.845179 
z
" clip-path="url(#pc42b422c06)" style="fill: #241f11; fill-opacity: 0.932214"/>
   </g>
   <g id="patch_195">
    <path d="M 40.206991 197.038397 
L 330.739856 386.177075 
L 148.592109 451.498573 
L 355.897916 628.866082 
z
" clip-path="url(#pc42b422c06)" style="fill: #e69658; fill-opacity: 0.731662"/>
   </g>
   <g id="patch_196">
    <path d="M 307.010645 422.065137 
L 446.571665 26.341404 
L 402.439511 0.932009 
L 194.668645 93.255361 
z
" clip-path="url(#pc42b422c06)"/>
   </g>
   <g id="patch_197">
    <path d="M 279.483586 514.563021 
L 449.491697 472.158872 
L 428.570542 343.430274 
L 180.5258 545.58374 
z
" clip-path="url(#pc42b422c06)" style="fill: #2c0029; fill-opacity: 0.617157"/>
   </g>
   <g id="patch_198">
    <path d="M 411.428816 395.374096 
L 101.834019 506.840739 
L 93.834948 228.234955 
L 77.570279 583.427148 
z
" clip-path="url(#pc42b422c06)" style="fill: #766a6b; fill-opacity: 0.892796"/>
   </g>
   <g id="patch_199">
    <path d="M 31.043168 17.03449 
L 404.733102 113.559946 
L 19.586027 454.664829 
L 297.244975 409.502233 
z
" clip-path="url(#pc42b422c06)" style="fill: #e707c0; fill-opacity: 0.454151"/>
   </g>
   <g id="patch_200">
    <path d="M 228.2331 610.33419 
L 78.695656 378.736764 
L 28.192079 680.372049 
z
" clip-path="url(#pc42b422c06)" style="fill: #110600; fill-opacity: 0.995381"/>
   </g>
   <g id="patch_201">
    <path d="M 481.863194 61.733513 
L 433.397682 246.669808 
L 168.485266 336.629025 
L 377.275606 558.255992 
z
" clip-path="url(#pc42b422c06)" style="fill: #03fbf7; fill-opacity: 0.006456"/>
   </g>
   <g id="patch_202">
    <path d="M 69.313888 338.23816 
L 286.782807 394.014078 
L 303.334594 396.80743 
z
" clip-path="url(#pc42b422c06)" style="fill: #329a97; fill-opacity: 0.489368"/>
   </g>
   <g id="patch_203">
    <path d="M 364.753922 498.06069 
L 45.721396 177.891159 
L 28.725465 0.59841 
L 76.205098 59.400167 
L 61.229908 435.21065 
z
" clip-path="url(#pc42b422c06)" style="fill: #040014; fill-opacity: 0.994275"/>
   </g>
   <g id="patch_204">
    <path d="M 522.013664 396.106794 
L 461.310569 617.750071 
L 536.931411 94.255097 
L 444.931585 225.389477 
z
" clip-path="url(#pc42b422c06)" style="fill: #f1ffff"/>
   </g>
   <g id="patch_205">
    <path d="M 565.685374 65.939051 
L 50.79395 117.356774 
L 41.020831 442.341192 
z
" clip-path="url(#pc42b422c06)" style="fill: #3e2300; fill-opacity: 0.951192"/>
   </g>
   <g id="patch_206">
    <path d="M 117.026018 21.879155 
L 43.454887 408.752205 
L 156.060422 588.63366 
z
" clip-path="url(#pc42b422c06)" style="fill: #4fda8e; fill-opacity: 0.934401"/>
   </g>
   <g id="patch_207">
    <path d="M 538.902479 496.880025 
L 225.027234 209.696118 
L 160.735399 395.298572 
L 575.154228 60.601141 
L 271.58835 557.158472 
z
" clip-path="url(#pc42b422c06)" style="fill: #4f3510; fill-opacity: 0.408002"/>
   </g>
   <g id="patch_208">
    <path d="M 98.731688 618.222386 
L 462.864653 133.440393 
L 438.795475 557.56465 
L 307.941979 678.123182 
L 67.975417 323.542936 
z
" clip-path="url(#pc42b422c06)" style="fill: #444e65"/>
   </g>
   <g id="patch_209">
    <path d="M 340.796215 62.200861 
L 230.852504 242.318055 
L 314.003014 596.972187 
L 527.853077 535.32422 
z
" clip-path="url(#pc42b422c06)" style="fill: #000022; fill-opacity: 0.519929"/>
   </g>
   <g id="patch_210">
    <path d="M 342.27414 641.95193 
L 177.308305 94.788969 
L 500.103385 234.477813 
z
" clip-path="url(#pc42b422c06)" style="fill: #fae4ce"/>
   </g>
   <g id="patch_211">
    <path d="M 531.083988 4.221759 
L 44.206895 374.845622 
L 376.461174 481.967313 
L 559.526626 6.802434 
z
" clip-path="url(#pc42b422c06)" style="fill: #1d1100; fill-opacity: 0.991605"/>
   </g>
   <g id="patch_212">
    <path d="M 45.149932 372.679551 
L 381.0404 358.602433 
L 568.689543 569.141521 
L 388.813087 593.988649 
z
" clip-path="url(#pc42b422c06)" style="fill: #201411; fill-opacity: 0.814207"/>
   </g>
   <g id="patch_213">
    <path d="M 107.374382 268.017093 
L 475.500279 462.050077 
L 129.97567 658.756189 
L 276.789203 135.581467 
z
" clip-path="url(#pc42b422c06)" style="fill: #5e2bff; fill-opacity: 0.128685"/>
   </g>
   <g id="patch_214">
    <path d="M 557.296224 311.894433 
L 65.334489 108.006924 
L 319.501276 565.138307 
L 47.039545 395.282415 
z
" clip-path="url(#pc42b422c06)" style="fill: #000100; fill-opacity: 0.881257"/>
   </g>
   <g id="patch_215">
    <path d="M 184.966297 434.679744 
L 187.014643 523.885227 
L 486.040606 557.88149 
L 230.595731 430.232429 
z
" clip-path="url(#pc42b422c06)" style="fill: #2f0749; fill-opacity: 0.726828"/>
   </g>
   <g id="patch_216">
    <path d="M 303.866688 318.364577 
L 501.133189 248.49715 
L 0.333316 414.205733 
L 322.311617 299.761791 
z
" clip-path="url(#pc42b422c06)" style="fill: #b0d49d; fill-opacity: 0.995533"/>
   </g>
   <g id="patch_217">
    <path d="M 176.127736 676.519955 
L 438.282989 318.648295 
L 118.138942 22.390303 
z
" clip-path="url(#pc42b422c06)" style="fill: #d2936f; fill-opacity: 0.470573"/>
   </g>
   <g id="patch_218">
    <path d="M 128.062849 236.412426 
L 306.355683 489.327009 
L 149.150281 385.173256 
L 333.366052 590.628895 
L 372.771604 218.886132 
z
" clip-path="url(#pc42b422c06)" style="fill: #4016e9; fill-opacity: 0.283501"/>
   </g>
   <g id="patch_219">
    <path d="M 128.940404 656.176033 
L 488.776828 634.083041 
L 295.600199 35.569601 
L 33.912158 62.155608 
L 465.742322 346.905723 
z
" clip-path="url(#pc42b422c06)" style="fill: #faa786; fill-opacity: 0.275129"/>
   </g>
   <g id="patch_220">
    <path d="M 52.408069 645.689273 
L 238.027211 248.727688 
L 281.353579 343.418273 
L 163.137174 10.053656 
z
" clip-path="url(#pc42b422c06)" style="fill: #4d5188; fill-opacity: 0.617995"/>
   </g>
   <g id="patch_221">
    <path d="M 7.575901 467.578508 
L 160.407368 585.92129 
L 570.974837 511.401885 
L 36.269517 269.99357 
z
" clip-path="url(#pc42b422c06)" style="fill: #9ca895; fill-opacity: 0.771829"/>
   </g>
   <g id="patch_222">
    <path d="M 202.973932 278.053245 
L 362.122176 335.61242 
L 267.353697 12.729271 
z
" clip-path="url(#pc42b422c06)" style="fill: #08edff; fill-opacity: 0.357801"/>
   </g>
   <g id="patch_223">
    <path d="M 362.944497 144.423125 
L 367.241434 380.607737 
L 176.034355 473.200818 
z
" clip-path="url(#pc42b422c06)" style="fill: #e02dd3; fill-opacity: 0.870258"/>
   </g>
   <g id="patch_224">
    <path d="M 136.327334 412.162186 
L 93.375045 79.066133 
L 285.172231 535.456637 
L 290.38385 413.206617 
z
" clip-path="url(#pc42b422c06)" style="fill: #1b0f6a; fill-opacity: 0.830803"/>
   </g>
   <g id="patch_225">
    <path d="M 193.84567 185.458753 
L 40.044882 493.190366 
L 449.688911 567.682038 
L 327.562064 315.982164 
z
" clip-path="url(#pc42b422c06)" style="fill: #e4e070; fill-opacity: 0.063934"/>
   </g>
   <g id="patch_226">
    <path d="M 321.647638 81.553888 
L 326.054347 81.439187 
L 511.997622 619.300997 
L 44.425322 160.528443 
z
" clip-path="url(#pc42b422c06)" style="fill: #001602; fill-opacity: 0.566294"/>
   </g>
   <g id="patch_227">
    <path d="M 571.392313 586.834225 
L 108.422587 362.420685 
L 448.802399 608.430589 
L 549.730511 615.728615 
L 378.10264 375.621371 
z
" clip-path="url(#pc42b422c06)" style="fill: #1d2b13; fill-opacity: 0.469096"/>
   </g>
   <g id="patch_228">
    <path d="M 202.296342 482.160285 
L 129.285908 80.319586 
L 421.093512 342.178871 
L 444.073141 37.045832 
L 239.039941 590.822034 
z
" clip-path="url(#pc42b422c06)" style="fill: #3c261b; fill-opacity: 0.822593"/>
   </g>
   <g id="patch_229">
    <path d="M 369.681009 332.307249 
L 175.626642 627.825097 
L 88.101873 416.738681 
L 369.681009 332.307249 
z
" clip-path="url(#pc42b422c06)" style="fill: none"/>
   </g>
   <g id="patch_230">
    <path d="M 223.622375 41.634327 
L 301.837385 461.035318 
L 66.28748 112.684876 
z
" clip-path="url(#pc42b422c06)" style="fill: #a3c582; fill-opacity: 0.054055"/>
   </g>
   <g id="patch_231">
    <path d="M 450.837185 626.248567 
L 529.082191 449.923111 
L 346.673921 195.436857 
L 522.414996 13.755747 
L 244.16229 136.754755 
z
" clip-path="url(#pc42b422c06)" style="fill: #98b9b4; fill-opacity: 0.892119"/>
   </g>
   <g id="patch_232">
    <path d="M 13.578138 466.798455 
L 237.295046 116.786994 
L 184.609694 105.217625 
L 489.456326 493.163143 
L 465.247326 38.256769 
z
" clip-path="url(#pc42b422c06)" style="fill: #f7ffff; fill-opacity: 0.542146"/>
   </g>
   <g id="patch_233">
    <path d="M 40.024103 442.882065 
L 377.946343 528.2367 
L 198.279101 652.571269 
L 163.611441 164.560532 
z
" clip-path="url(#pc42b422c06)" style="fill: #000041"/>
   </g>
   <g id="patch_234">
    <path d="M 410.902004 494.405239 
L 289.497721 474.644185 
L 556.028866 411.529174 
z
" clip-path="url(#pc42b422c06)" style="fill: #c7ffff; fill-opacity: 0.724224"/>
   </g>
   <g id="patch_235">
    <path d="M 436.004794 297.530044 
L 468.562186 670.013745 
L 298.345994 397.120076 
L 286.841605 158.856596 
z
" clip-path="url(#pc42b422c06)" style="fill: #ff8b42; fill-opacity: 0.325634"/>
   </g>
   <g id="patch_236">
    <path d="M 161.570267 290.318806 
L 260.089742 417.599373 
L 467.528799 282.364856 
L 501.098013 122.163758 
z
" clip-path="url(#pc42b422c06)" style="fill: #88005b; fill-opacity: 0.072095"/>
   </g>
   <g id="patch_237">
    <path d="M 307.945352 329.808491 
L 466.554598 13.84171 
L 12.997558 386.253359 
L 399.011062 301.209116 
z
" clip-path="url(#pc42b422c06)" style="fill: #c2e2b7; fill-opacity: 0.733397"/>
   </g>
   <g id="patch_238">
    <path d="M 332.590155 271.267845 
L 122.979817 435.028368 
L 349.819634 536.889372 
L 108.681547 336.708513 
L 62.300688 57.676427 
z
" clip-path="url(#pc42b422c06)" style="fill: #c762ff; fill-opacity: 0.685034"/>
   </g>
   <g id="patch_239">
    <path d="M 68.197529 87.815658 
L 548.772253 145.812691 
L 181.124692 206.950611 
L 412.251493 323.831187 
z
" clip-path="url(#pc42b422c06)" style="fill: #d24b25; fill-opacity: 0.380963"/>
   </g>
   <g id="patch_240">
    <path d="M 381.788159 427.743228 
L 452.658517 323.744964 
L 365.687104 363.076294 
L 175.074909 511.510642 
L 372.586742 541.432703 
z
" clip-path="url(#pc42b422c06)" style="fill: #31783f; fill-opacity: 0.353458"/>
   </g>
   <g id="patch_241">
    <path d="M 575.315979 562.62485 
L 42.84435 238.627695 
L 108.082276 75.573534 
L 393.736706 287.967792 
L 434.184436 636.825858 
z
" clip-path="url(#pc42b422c06)" style="fill: #2a8032; fill-opacity: 0.015221"/>
   </g>
   <g id="patch_242">
    <path d="M 364.799402 575.103115 
L 319.867107 140.294579 
L 276.450326 256.878433 
L 493.848298 418.564179 
z
" clip-path="url(#pc42b422c06)" style="fill: #38182b; fill-opacity: 0.644445"/>
   </g>
   <g id="patch_243">
    <path d="M 182.025102 175.475568 
L 519.333763 282.686377 
L 179.032646 366.087095 
L 323.902398 481.609525 
z
" clip-path="url(#pc42b422c06)" style="fill: #550f13; fill-opacity: 0.993176"/>
   </g>
   <g id="patch_244">
    <path d="M 73.621968 215.163916 
L 73.841304 192.901511 
L 485.162311 364.540657 
L 392.067972 242.743479 
z
" clip-path="url(#pc42b422c06)" style="fill: #ecffc9; fill-opacity: 0.72587"/>
   </g>
   <g id="patch_245">
    <path d="M 338.839552 327.706011 
L 210.039616 66.471433 
L 238.036163 608.784921 
L 213.492304 322.892722 
z
" clip-path="url(#pc42b422c06)" style="fill: #7561a6; fill-opacity: 0.800994"/>
   </g>
   <g id="patch_246">
    <path d="M 42.852611 380.943079 
L 573.044817 48.776502 
L 376.924963 491.757017 
L 258.886896 431.009626 
z
" clip-path="url(#pc42b422c06)" style="fill: #1c1107"/>
   </g>
   <g id="patch_247">
    <path d="M 414.242892 370.751765 
L 26.657549 72.20536 
L 563.76995 58.648106 
z
" clip-path="url(#pc42b422c06)" style="fill: #97bc19; fill-opacity: 0.315314"/>
   </g>
   <g id="patch_248">
    <path d="M 176.283225 512.780063 
L 153.416872 612.785795 
L 79.907099 157.526543 
L 434.550221 223.627855 
L 466.251793 147.654406 
z
" clip-path="url(#pc42b422c06)" style="fill: #0ba9dd; fill-opacity: 0.522021"/>
   </g>
   <g id="patch_249">
    <path d="M 546.150169 484.060776 
L 472.464326 527.434544 
L 20.625701 630.813895 
L 354.874911 113.774642 
z
" clip-path="url(#pc42b422c06)" style="fill: #e8e4c1"/>
   </g>
   <g id="patch_250">
    <path d="M 450.308242 396.53848 
L 568.74524 80.435097 
L 507.156262 78.858891 
L 298.625268 391.927145 
L 354.427028 330.422106 
z
" clip-path="url(#pc42b422c06)" style="fill: #2f200b; fill-opacity: 0.597721"/>
   </g>
   <g id="patch_251">
    <path d="M 356.812273 560.473804 
L 128.100071 522.309794 
L 76.330403 429.300295 
L 19.229401 224.66268 
L 573.939178 433.413082 
z
" clip-path="url(#pc42b422c06)" style="fill: #af5c7e; fill-opacity: 0.278673"/>
   </g>
   <g id="patch_252">
    <path d="M 243.388338 649.473906 
L 146.670525 22.715342 
L 314.9949 253.591844 
L 386.673234 169.618111 
L 411.043679 408.721866 
z
" clip-path="url(#pc42b422c06)" style="fill: #ddaa7d; fill-opacity: 0.68557"/>
   </g>
   <g id="patch_253">
    <path d="M 430.177151 617.678373 
L 574.25559 478.095935 
L 112.33766 336.816498 
z
" clip-path="url(#pc42b422c06)" style="fill: #d9fbff; fill-opacity: 0.251292"/>
   </g>
   <g id="patch_254">
    <path d="M 342.227361 99.34438 
L 90.623431 594.24406 
L 404.595117 270.742688 
L 559.01532 133.978618 
L 118.117604 172.485734 
z
" clip-path="url(#pc42b422c06)" style="fill: #3a2819; fill-opacity: 0.926204"/>
   </g>
   <g id="patch_255">
    <path d="M 393.944045 659.332425 
L 136.505224 636.159058 
L 393.562186 298.62417 
L 199.436845 650.815253 
L 290.493967 126.511849 
z
" clip-path="url(#pc42b422c06)" style="fill: #b58d58; fill-opacity: 0.635727"/>
   </g>
   <g id="patch_256">
    <path d="M 188.290202 464.960788 
L 291.814568 378.079666 
L 26.992226 580.422241 
L 371.172958 496.178914 
L 146.077401 117.297317 
z
" clip-path="url(#pc42b422c06)" style="fill: #830bb6; fill-opacity: 0.468563"/>
   </g>
   <g id="patch_257">
    <path d="M 575.628167 177.135505 
L 284.735855 360.031284 
L 117.252074 132.060444 
z
" clip-path="url(#pc42b422c06)" style="fill: #170701; fill-opacity: 0.900229"/>
   </g>
   <g id="patch_258">
    <path d="M 302.339542 500.41579 
L 44.897321 1.021644 
L 266.68494 183.042717 
L 487.6588 431.700747 
L 394.627641 204.134658 
z
" clip-path="url(#pc42b422c06)" style="fill: #592f01; fill-opacity: 0.902192"/>
   </g>
   <g id="patch_259">
    <path d="M 42.560119 1.810555 
L 515.197208 33.531118 
L 262.499177 62.32894 
L 290.157854 475.102975 
z
" clip-path="url(#pc42b422c06)" style="fill: #061100; fill-opacity: 0.981173"/>
   </g>
   <g id="patch_260">
    <path d="M 165.215264 46.149445 
L 311.428263 307.235135 
L 484.07374 649.203772 
L 326.904036 563.600341 
L 158.091483 399.136709 
z
" clip-path="url(#pc42b422c06)" style="fill: #ffbd98; fill-opacity: 0.253215"/>
   </g>
   <g id="patch_261">
    <path d="M 376.458438 535.774184 
L 153.621761 634.464628 
L 35.201455 226.334454 
L 220.937515 629.084883 
z
" clip-path="url(#pc42b422c06)" style="fill: #fffea6; fill-opacity: 0.967865"/>
   </g>
   <g id="patch_262">
    <path d="M 538.914623 3.322791 
L 346.128548 344.436775 
L 14.988879 62.033445 
L 27.079854 92.725317 
z
" clip-path="url(#pc42b422c06)" style="fill: #1f0e23; fill-opacity: 0.938751"/>
   </g>
   <g id="patch_263">
    <path d="M 165.593891 324.57583 
L 29.586637 203.961695 
L 94.860709 305.434467 
L 310.836314 607.22628 
z
" clip-path="url(#pc42b422c06)" style="fill: #65cc0c; fill-opacity: 0.990947"/>
   </g>
   <g id="patch_264">
    <path d="M 524.988832 41.345716 
L 325.675628 32.937533 
L 447.668571 471.46323 
L 228.54132 532.390962 
z
" clip-path="url(#pc42b422c06)" style="fill: #050026"/>
   </g>
   <g id="patch_265">
    <path d="M 1.786152 2.662528 
L 37.335778 588.779839 
L 75.1705 647.387874 
L 327.406097 116.333999 
L 575.133803 27.320211 
z
" clip-path="url(#pc42b422c06)" style="fill: #201c16"/>
   </g>
   <g id="patch_266">
    <path d="M 297.450451 5.519795 
L 446.209359 73.993868 
L 520.729493 255.090074 
L 161.789865 602.060073 
L 252.017138 353.354096 
z
" clip-path="url(#pc42b422c06)" style="fill: #110015; fill-opacity: 0.835592"/>
   </g>
   <g id="patch_267">
    <path d="M 148.68879 384.488646 
L 382.812318 176.064023 
L 472.817614 650.73141 
z
" clip-path="url(#pc42b422c06)" style="fill: #7a471f"/>
   </g>
   <g id="patch_268">
    <path d="M 103.890605 508.092925 
L 458.66121 547.113911 
L 458.141288 393.291011 
z
" clip-path="url(#pc42b422c06)" style="fill: #746d5a; fill-opacity: 0.001682"/>
   </g>
   <g id="patch_269">
    <path d="M 346.779735 359.118499 
L 479.012291 241.840049 
L 386.493072 184.71421 
z
" clip-path="url(#pc42b422c06)" style="fill: #734328; fill-opacity: 0.169983"/>
   </g>
   <g id="patch_270">
    <path d="M 510.835581 591.112515 
L 521.983447 678.284818 
L 165.491098 355.905881 
L 506.021758 616.128234 
z
" clip-path="url(#pc42b422c06)" style="fill: #5622ff; fill-opacity: 0.007152"/>
   </g>
   <g id="patch_271">
    <path d="M 553.566072 461.211735 
L 272.903833 197.726566 
L 201.803023 223.372464 
L 208.304761 609.337503 
z
" clip-path="url(#pc42b422c06)" style="fill: #ffeb9b; fill-opacity: 0.469625"/>
   </g>
   <g id="patch_272">
    <path d="M 445.653037 464.349779 
L 564.372856 681.918096 
L 14.837676 296.670401 
L 101.486821 345.676545 
z
" clip-path="url(#pc42b422c06)" style="fill: #0f001b; fill-opacity: 0.098417"/>
   </g>
   <g id="patch_273">
    <path d="M 32.95131 501.248938 
L 207.36036 27.875559 
L 476.505502 586.843942 
L 293.670367 234.681736 
L 486.202059 594.417347 
z
" clip-path="url(#pc42b422c06)" style="fill: #08140d; fill-opacity: 0.923701"/>
   </g>
   <g id="patch_274">
    <path d="M 24.493186 273.381099 
L 169.143649 225.123893 
L 487.276281 18.578117 
L 87.679745 644.263592 
L 342.483552 120.814244 
z
" clip-path="url(#pc42b422c06)" style="fill: #080000; fill-opacity: 0.418789"/>
   </g>
   <g id="patch_275">
    <path d="M 244.112368 583.017129 
L 11.713787 488.317441 
L 506.607312 256.884573 
L 8.259326 212.120459 
z
" clip-path="url(#pc42b422c06)" style="fill: #231d0f; fill-opacity: 0.290172"/>
   </g>
   <g id="patch_276">
    <path d="M 222.69053 632.17833 
L 119.583324 641.655053 
L 389.353347 358.183535 
z
" clip-path="url(#pc42b422c06)" style="fill: #ffffeb; fill-opacity: 0.998995"/>
   </g>
   <g id="patch_277">
    <path d="M 246.089435 527.482192 
L 213.037517 380.962839 
L 243.285908 93.591817 
z
" clip-path="url(#pc42b422c06)" style="fill: #31aaf1"/>
   </g>
   <g id="patch_278">
    <path d="M 466.62795 217.212153 
L 434.810244 62.611609 
L 558.261918 28.109284 
L 289.784265 305.762615 
z
" clip-path="url(#pc42b422c06)" style="fill: #f79967; fill-opacity: 0.539065"/>
   </g>
   <g id="patch_279">
    <path d="M 1.628449 656.524687 
L 150.407792 123.920977 
L 574.195627 1.10119 
L 67.199449 2.497359 
L 364.556584 504.470415 
z
" clip-path="url(#pc42b422c06)" style="fill: #1b1711; fill-opacity: 0.989263"/>
   </g>
   <g id="patch_280">
    <path d="M 469.529337 502.228438 
L 132.907103 161.345176 
L 558.802922 563.099779 
L 13.193938 470.338754 
L 371.914763 80.910915 
L 469.529337 502.228438 
z
" clip-path="url(#pc42b422c06)" style="fill: none"/>
   </g>
   <g id="patch_281">
    <path d="M 229.440334 493.070979 
L 161.198376 637.517261 
L 381.89594 110.247772 
L 73.220146 661.621706 
z
" clip-path="url(#pc42b422c06)" style="fill: #a56648; fill-opacity: 0.162646"/>
   </g>
   <g id="patch_282">
    <path d="M 261.346333 92.874091 
L 72.223013 239.361353 
L 348.678609 562.430131 
z
" clip-path="url(#pc42b422c06)" style="fill: #14006c; fill-opacity: 0.821947"/>
   </g>
   <g id="patch_283">
    <path d="M 291.015297 477.280057 
L 270.068526 630.067213 
L 242.623468 14.350521 
L 241.894799 17.725658 
L 425.020442 66.357791 
z
" clip-path="url(#pc42b422c06)" style="fill: #a437e0; fill-opacity: 0.082412"/>
   </g>
   <g id="patch_284">
    <path d="M 442.066627 213.591699 
L 118.420322 83.431156 
L 41.198558 327.595959 
L 509.499061 263.615934 
z
" clip-path="url(#pc42b422c06)" style="fill: #2877a7; fill-opacity: 0.535719"/>
   </g>
   <g id="patch_285">
    <path d="M 228.32874 435.372787 
L 139.853653 213.118439 
L 33.471035 70.057785 
z
" clip-path="url(#pc42b422c06)" style="fill: #02677b; fill-opacity: 0.226923"/>
   </g>
   <g id="patch_286">
    <path d="M 438.099408 541.114346 
L 308.332663 430.351779 
L 543.062485 0.550922 
L 273.371389 4.482708 
z
" clip-path="url(#pc42b422c06)" style="fill: #1d0d10; fill-opacity: 0.848899"/>
   </g>
   <g id="patch_287">
    <path d="M 122.846849 115.313188 
L 177.245498 349.675758 
L 385.809803 249.35673 
L 409.071105 259.820213 
z
" clip-path="url(#pc42b422c06)" style="fill: #fffff5; fill-opacity: 0.669431"/>
   </g>
   <g id="patch_288">
    <path d="M 32.382189 658.873984 
L 305.213779 118.717669 
L 229.8178 208.122551 
L 442.63354 29.423915 
z
" clip-path="url(#pc42b422c06)" style="fill: #a99060; fill-opacity: 0.215171"/>
   </g>
   <g id="patch_289">
    <path d="M 138.191799 2.555845 
L 97.179583 676.803965 
L 9.807494 372.78633 
L 210.204767 420.038221 
L 281.594141 548.91635 
z
" clip-path="url(#pc42b422c06)" style="fill: #716b7d; fill-opacity: 0.020742"/>
   </g>
   <g id="patch_290">
    <path d="M 255.523369 653.081262 
L 37.92086 562.365358 
L 70.402531 682.212654 
z
" clip-path="url(#pc42b422c06)" style="fill-opacity: 0.200313"/>
   </g>
   <g id="patch_291">
    <path d="M 564.216087 619.801473 
L 482.415685 429.503161 
L 111.673376 495.734343 
L 358.561506 112.371011 
L 95.339446 663.229413 
z
" clip-path="url(#pc42b422c06)" style="fill: #2b051f; fill-opacity: 0.141136"/>
   </g>
   <g id="patch_292">
    <path d="M 399.612826 15.070818 
L 101.049138 369.744722 
L 325.841238 2.8545 
z
" clip-path="url(#pc42b422c06)" style="fill: #65d128; fill-opacity: 0.649621"/>
   </g>
   <g id="patch_293">
    <path d="M 509.100029 570.68663 
L 232.635525 566.15028 
L 102.792491 330.029827 
z
" clip-path="url(#pc42b422c06)" style="fill: #161410"/>
   </g>
   <g id="patch_294">
    <path d="M 456.092544 92.343234 
L 324.43225 612.215909 
L 423.557551 455.998149 
L 255.010989 11.035099 
L 62.169397 204.510123 
z
" clip-path="url(#pc42b422c06)" style="fill: #2185fd; fill-opacity: 0.561362"/>
   </g>
   <g id="patch_295">
    <path d="M 472.707747 253.771248 
L 75.711183 461.592071 
L 444.803722 159.532783 
z
" clip-path="url(#pc42b422c06)" style="fill: #f6c0ee"/>
   </g>
   <g id="patch_296">
    <path d="M 147.819791 323.743257 
L 163.447966 382.370076 
L 22.583955 140.566097 
L 406.567969 428.817683 
z
" clip-path="url(#pc42b422c06)" style="fill: #865d9b; fill-opacity: 0.722552"/>
   </g>
   <g id="patch_297">
    <path d="M 366.164817 289.758142 
L 19.674146 281.606435 
L 270.437409 655.284656 
z
" clip-path="url(#pc42b422c06)" style="fill: #463747; fill-opacity: 0.834251"/>
   </g>
   <g id="patch_298">
    <path d="M 436.019507 60.069323 
L 463.204529 27.394264 
L 471.777625 20.128563 
z
" clip-path="url(#pc42b422c06)" style="fill: #0b3b2d; fill-opacity: 0.206781"/>
   </g>
   <g id="patch_299">
    <path d="M 18.788832 63.958868 
L 41.631587 184.446446 
L 190.618753 369.14493 
L 474.379913 394.139893 
L 407.220138 110.33774 
z
" clip-path="url(#pc42b422c06)" style="fill: #34291b; fill-opacity: 0.614765"/>
   </g>
   <g id="patch_300">
    <path d="M 249.315417 645.986228 
L 33.610064 189.378691 
L 560.424492 217.844485 
L 249.315417 645.986228 
z
" clip-path="url(#pc42b422c06)" style="fill: none"/>
   </g>
   <g id="patch_301">
    <path d="M 404.277326 679.958911 
L 328.71103 280.309529 
L 122.220422 225.257072 
L 404.277326 679.958911 
z
" clip-path="url(#pc42b422c06)" style="fill: none"/>
   </g>
   <g id="patch_302">
    <path d="M 433.457513 312.160724 
L 473.703246 67.892641 
L 292.883508 443.200317 
L 18.109578 582.406304 
z
" clip-path="url(#pc42b422c06)" style="fill: #ffbc83; fill-opacity: 0.888742"/>
   </g>
   <g id="patch_303">
    <path d="M 493.225167 35.931341 
L 266.54355 195.501836 
L 42.592455 172.207755 
L 423.41327 595.858162 
z
" clip-path="url(#pc42b422c06)" style="fill: #030000; fill-opacity: 0.500285"/>
   </g>
   <g id="patch_304">
    <path d="M 33.914263 659.900002 
L 33.053098 556.971277 
L 38.432241 29.552255 
L 8.291578 681.023831 
z
" clip-path="url(#pc42b422c06)" style="fill: #1f140a"/>
   </g>
   <g id="patch_305">
    <path d="M 499.199862 630.328989 
L 201.659217 625.707782 
L 346.784977 33.690301 
L 119.265923 408.880565 
L 430.426238 527.606582 
z
" clip-path="url(#pc42b422c06)" style="fill: #ffee51; fill-opacity: 0.248343"/>
   </g>
   <g id="patch_306">
    <path d="M 62.33316 321.37551 
L 334.137728 319.293215 
L 238.227876 657.136771 
L 54.747625 633.055545 
L 312.245898 610.496544 
z
" clip-path="url(#pc42b422c06)" style="fill: #eab76a; fill-opacity: 0.869548"/>
   </g>
   <g id="patch_307">
    <path d="M 5.780684 285.068305 
L 418.989692 401.615006 
L 452.383621 230.103038 
L 2.860784 192.77266 
L 0.401767 440.211118 
z
" clip-path="url(#pc42b422c06)" style="fill: #21180f; fill-opacity: 0.98945"/>
   </g>
   <g id="patch_308">
    <path d="M 349.272579 337.039207 
L 442.471355 547.145168 
L 384.277125 137.917916 
L 349.272579 337.039207 
z
" clip-path="url(#pc42b422c06)" style="fill: none"/>
   </g>
   <g id="patch_309">
    <path d="M 401.144424 656.479351 
L 475.756935 210.846058 
L 325.891431 188.07745 
z
" clip-path="url(#pc42b422c06)" style="fill: #692923; fill-opacity: 0.544287"/>
   </g>
   <g id="patch_310">
    <path d="M 91.014285 197.344174 
L 445.483361 328.103206 
L 305.994871 527.797697 
z
" clip-path="url(#pc42b422c06)" style="fill: #00000e; fill-opacity: 0.991619"/>
   </g>
   <g id="patch_311">
    <path d="M 180.883421 132.424034 
L 542.736139 1.981482 
L 76.59513 1.110284 
L 469.595767 495.725029 
z
" clip-path="url(#pc42b422c06)" style="fill: #1c180b"/>
   </g>
   <g id="patch_312">
    <path d="M 377.707466 87.784154 
L 80.508912 306.232055 
L 134.314853 675.868678 
z
" clip-path="url(#pc42b422c06)" style="fill: #0c1307; fill-opacity: 0.994895"/>
   </g>
   <g id="patch_313">
    <path d="M 480.192272 605.145496 
L 212.604718 533.010444 
L 404.723483 308.287363 
L 17.730461 131.059239 
z
" clip-path="url(#pc42b422c06)" style="fill: #ff7b34; fill-opacity: 0.343693"/>
   </g>
   <g id="patch_314">
    <path d="M 509.391093 156.318898 
L 153.651881 632.318154 
L 490.674271 222.764052 
L 553.152164 488.963609 
z
" clip-path="url(#pc42b422c06)" style="fill: #342200; fill-opacity: 0.700851"/>
   </g>
   <g id="patch_315">
    <path d="M 141.196351 438.418679 
L 466.196502 45.916997 
L 19.448364 548.16282 
L 356.880819 667.966263 
L 294.09689 678.956305 
z
" clip-path="url(#pc42b422c06)" style="fill: #bb8035; fill-opacity: 0.436855"/>
   </g>
   <g id="patch_316">
    <path d="M 236.883895 268.470784 
L 49.467557 672.672142 
L 247.143491 247.575698 
L 70.18194 143.33697 
L 270.408197 501.19473 
z
" clip-path="url(#pc42b422c06)" style="fill: #fef2be"/>
   </g>
   <g id="patch_317">
    <path d="M 454.353561 498.037245 
L 188.823303 480.410342 
L 6.541499 646.252917 
L 226.705282 30.195134 
z
" clip-path="url(#pc42b422c06)" style="fill: #001100; fill-opacity: 0.897078"/>
   </g>
   <g id="patch_318">
    <path d="M 370.66065 24.272819 
L 77.007847 306.592911 
L 271.981613 506.822151 
L 359.097185 51.844831 
z
" clip-path="url(#pc42b422c06)" style="fill: #664a89; fill-opacity: 0.516221"/>
   </g>
   <g id="patch_319">
    <path d="M 550.88393 263.167661 
L 213.210011 580.397611 
L 432.250516 312.521268 
L 122.626778 103.689047 
L 275.095869 224.701818 
z
" clip-path="url(#pc42b422c06)" style="fill: #2c0000; fill-opacity: 0.34864"/>
   </g>
   <g id="patch_320">
    <path d="M 419.401622 376.298 
L 201.52513 369.579525 
L 507.907015 463.944107 
L 231.408496 23.349744 
L 97.182615 623.18748 
z
" clip-path="url(#pc42b422c06)" style="fill: #8f5c1a; fill-opacity: 0.17454"/>
   </g>
   <g id="patch_321">
    <path d="M 60.835678 105.865927 
L 349.888753 271.611979 
L 247.778387 62.598386 
L 383.591454 682.387039 
L 519.746748 654.978966 
z
" clip-path="url(#pc42b422c06)" style="fill: #383526; fill-opacity: 0.718801"/>
   </g>
   <g id="patch_322">
    <path d="M 369.705553 272.862247 
L 329.878382 649.279065 
L 302.036959 22.790979 
L 470.53224 68.928243 
L 549.909232 663.341792 
z
" clip-path="url(#pc42b422c06)" style="fill: #185c4a; fill-opacity: 0.044245"/>
   </g>
   <g id="patch_323">
    <path d="M 113.572419 646.205422 
L 32.076858 660.333555 
L 163.106055 644.148968 
L 531.457325 22.086684 
L 258.217164 162.978371 
z
" clip-path="url(#pc42b422c06)" style="fill: #5f144e; fill-opacity: 0.156043"/>
   </g>
   <g id="patch_324">
    <path d="M 130.837384 655.605732 
L 204.166484 74.373709 
L 210.161616 264.687266 
L 343.960688 346.234511 
L 3.145069 681.380292 
z
" clip-path="url(#pc42b422c06)" style="fill: #1b140a"/>
   </g>
   <g id="patch_325">
    <path d="M 406.401737 231.82175 
L 395.971088 446.894601 
L 421.302515 144.199636 
L 18.315172 552.723272 
L 381.838949 409.960452 
z
" clip-path="url(#pc42b422c06)" style="fill: #ffffff"/>
   </g>
   <g id="patch_326">
    <path d="M 147.169194 561.203061 
L 553.394818 575.490569 
L 103.786903 399.778895 
z
" clip-path="url(#pc42b422c06)" style="fill: #282a10; fill-opacity: 0.389266"/>
   </g>
   <g id="patch_327">
    <path d="M 461.656221 468.327648 
L 94.147105 631.600445 
L 80.866374 210.493305 
L 269.23622 442.923781 
z
" clip-path="url(#pc42b422c06)" style="fill: #00045c; fill-opacity: 0.068541"/>
   </g>
   <g id="patch_328">
    <path d="M 16.346838 112.337227 
L 139.328958 480.918146 
L 77.502836 482.43894 
L 2.969351 141.970827 
z
" clip-path="url(#pc42b422c06)" style="fill: #262113; fill-opacity: 0.96362"/>
   </g>
   <g id="patch_329">
    <path d="M 44.665697 373.006074 
L 507.123547 191.225293 
L 15.335234 376.558005 
L 11.466207 476.437729 
L 394.823951 29.355441 
z
" clip-path="url(#pc42b422c06)" style="fill: #68606f; fill-opacity: 0.979619"/>
   </g>
   <g id="patch_330">
    <path d="M 349.679166 656.83989 
L 74.540946 549.356185 
L 131.569866 219.411915 
L 247.375506 508.478594 
L 502.515368 501.917622 
z
" clip-path="url(#pc42b422c06)" style="fill: #90a4ae; fill-opacity: 0.153466"/>
   </g>
   <g id="patch_331">
    <path d="M 199.988143 555.837203 
L 465.184157 90.322754 
L 153.679368 148.277914 
L 263.644538 493.16589 
L 380.138982 74.09733 
L 199.988143 555.837203 
z
" clip-path="url(#pc42b422c06)" style="fill: none"/>
   </g>
   <g id="patch_332">
    <path d="M 330.83949 209.515944 
L 220.092484 241.759925 
L 443.095712 314.14881 
L 230.756896 502.155102 
L 489.134436 667.262416 
L 330.83949 209.515944 
z
" clip-path="url(#pc42b422c06)" style="fill: none"/>
   </g>
   <g id="patch_333">
    <path d="M 116.020098 400.001069 
L 127.401288 223.653907 
L 481.051643 60.253749 
L 114.526665 25.722181 
z
" clip-path="url(#pc42b422c06)" style="fill: #001b30; fill-opacity: 0.280183"/>
   </g>
   <g id="patch_334">
    <path d="M 245.130124 394.298554 
L 395.68375 200.497741 
L 112.963351 482.632318 
L 12.456599 92.226926 
L 120.058279 136.208748 
z
" clip-path="url(#pc42b422c06)" style="fill: #2f007e; fill-opacity: 0.09987"/>
   </g>
   <g id="patch_335">
    <path d="M 437.432523 176.772753 
L 197.243136 3.650993 
L 178.234175 272.240813 
z
" clip-path="url(#pc42b422c06)" style="fill: #06004c; fill-opacity: 0.018079"/>
   </g>
   <g id="patch_336">
    <path d="M 0.423401 643.926379 
L 462.305749 35.715552 
L 512.511432 258.751059 
L 500.330675 458.707095 
L 445.949572 99.392209 
z
" clip-path="url(#pc42b422c06)" style="fill-opacity: 0.675699"/>
   </g>
   <g id="patch_337">
    <path d="M 142.086073 679.101528 
L 193.698461 649.11048 
L 107.666213 93.289338 
z
" clip-path="url(#pc42b422c06)" style="fill: #1c1306"/>
   </g>
   <g id="patch_338">
    <path d="M 142.945222 233.924142 
L 473.748221 361.360758 
L 346.802762 194.233279 
L 249.352933 431.569518 
z
" clip-path="url(#pc42b422c06)" style="fill: #0d0004; fill-opacity: 0.903813"/>
   </g>
   <g id="patch_339">
    <path d="M 285.993666 420.421337 
L 174.997839 666.350938 
L 250.669573 653.726985 
L 465.900247 397.777276 
L 194.752435 92.289584 
z
" clip-path="url(#pc42b422c06)" style="fill: #dbfff2; fill-opacity: 0.157192"/>
   </g>
   <g id="patch_340">
    <path d="M 217.803338 288.605144 
L 136.905752 326.963788 
L 376.585542 166.534985 
L 265.134844 614.231859 
z
" clip-path="url(#pc42b422c06)" style="fill: #feb979; fill-opacity: 0.359735"/>
   </g>
   <g id="patch_341">
    <path d="M 50.053511 530.597264 
L 303.930026 656.395589 
L 279.865651 438.463228 
z
" clip-path="url(#pc42b422c06)" style="fill: #b18d61; fill-opacity: 0.810524"/>
   </g>
   <g id="patch_342">
    <path d="M 83.524291 337.974182 
L 263.289626 488.463024 
L 349.244103 351.707374 
L 502.157757 60.957744 
L 226.222876 316.575329 
z
" clip-path="url(#pc42b422c06)" style="fill: #e3f2b1"/>
   </g>
   <g id="patch_343">
    <path d="M 565.831235 57.835826 
L 124.88088 5.510867 
L 174.752274 122.389358 
L 452.259614 242.702459 
z
" clip-path="url(#pc42b422c06)" style="fill: #22160f; fill-opacity: 0.5837"/>
   </g>
   <g id="patch_344">
    <path d="M 564.984103 35.440313 
L 391.169543 3.045031 
L 196.629596 167.110174 
z
" clip-path="url(#pc42b422c06)" style="fill: #3b2218; fill-opacity: 0.21778"/>
   </g>
   <g id="patch_345">
    <path d="M 235.780377 479.047615 
L 111.402504 475.331101 
L 351.338125 35.033351 
z
" clip-path="url(#pc42b422c06)" style="fill: #b4ed69; fill-opacity: 0.207391"/>
   </g>
   <g id="patch_346">
    <path d="M 566.632232 10.905662 
L 53.895278 151.135885 
L 383.065815 333.485095 
z
" clip-path="url(#pc42b422c06)" style="fill: #1c1d0d; fill-opacity: 0.838675"/>
   </g>
   <g id="patch_347">
    <path d="M 360.007729 47.747615 
L 454.858767 495.378406 
L 177.792798 66.846614 
z
" clip-path="url(#pc42b422c06)" style="fill: #000300; fill-opacity: 0.72466"/>
   </g>
   <g id="patch_348">
    <path d="M 145.706743 266.369171 
L 6.224405 267.501865 
L 20.165673 382.013244 
L 86.22404 479.248558 
L 424.069066 378.858447 
z
" clip-path="url(#pc42b422c06)" style="fill: #4d4a00; fill-opacity: 0.461296"/>
   </g>
   <g id="patch_349">
    <path d="M 16.932275 169.854663 
L 395.354596 115.853952 
L 269.556016 348.888512 
L 86.68542 182.670848 
L 228.109278 624.271915 
z
" clip-path="url(#pc42b422c06)" style="fill: #9bb09f; fill-opacity: 0.988026"/>
   </g>
   <g id="patch_350">
    <path d="M 171.935457 137.817692 
L 199.086964 132.110747 
L 557.384785 387.081249 
z
" clip-path="url(#pc42b422c06)" style="fill: #ab7e73; fill-opacity: 0.322254"/>
   </g>
   <g id="patch_351">
    <path d="M 483.824262 586.22179 
L 564.082956 365.278666 
L 144.823717 10.507565 
L 261.57215 50.587242 
L 485.652804 473.568753 
z
" clip-path="url(#pc42b422c06)" style="fill: #000017; fill-opacity: 0.185754"/>
   </g>
   <g id="patch_352">
    <path d="M 357.736247 64.130621 
L 260.40495 369.348766 
L 65.273154 143.53641 
L 337.399071 44.325419 
z
" clip-path="url(#pc42b422c06)" style="fill: #ffe6c2; fill-opacity: 0.134661"/>
   </g>
   <g id="patch_353">
    <path d="M 359.176485 361.062509 
L 389.549021 95.620717 
L 191.645716 638.164335 
L 119.663958 369.72106 
L 192.278297 340.617047 
z
" clip-path="url(#pc42b422c06)" style="fill: #1e220f; fill-opacity: 0.821733"/>
   </g>
   <g id="patch_354">
    <path d="M 423.980423 656.805727 
L 234.619361 217.687704 
L 246.614344 5.913186 
L 0.546712 557.588394 
L 19.190447 78.78227 
z
" clip-path="url(#pc42b422c06)" style="fill: #212115; fill-opacity: 0.881716"/>
   </g>
   <g id="patch_355">
    <path d="M 423.45972 362.984206 
L 320.761147 348.578661 
L 560.016009 647.275302 
L 164.52333 545.466387 
z
" clip-path="url(#pc42b422c06)" style="fill: #614b63; fill-opacity: 0.165529"/>
   </g>
   <g id="patch_356">
    <path d="M 298.271105 648.120999 
L 355.502204 510.595483 
L 539.12896 66.94164 
L 61.289094 296.380721 
L 410.095801 309.412806 
z
" clip-path="url(#pc42b422c06)" style="fill: #002b53; fill-opacity: 0.084735"/>
   </g>
   <g id="patch_357">
    <path d="M 195.170456 124.16277 
L 309.716996 119.352243 
L 351.804321 630.339217 
L 116.221644 592.249485 
L 126.122117 515.514212 
z
" clip-path="url(#pc42b422c06)" style="fill: #c4a27f"/>
   </g>
   <g id="patch_358">
    <path d="M 431.898406 132.177329 
L 538.754421 384.83402 
L 5.978884 536.600311 
z
" clip-path="url(#pc42b422c06)" style="fill: #ffffff; fill-opacity: 0.177227"/>
   </g>
   <g id="patch_359">
    <path d="M 532.752267 284.793684 
L 548.739561 614.427082 
L 444.121295 328.867791 
L 488.810141 179.644339 
L 532.752267 284.793684 
z
" clip-path="url(#pc42b422c06)" style="fill: none"/>
   </g>
   <g id="patch_360">
    <path d="M 12.080633 372.764305 
L 210.461395 587.39722 
L 177.671825 209.637164 
z
" clip-path="url(#pc42b422c06)" style="fill: #212013; fill-opacity: 0.706884"/>
   </g>
   <g id="patch_361">
    <path d="M 189.846404 659.172045 
L 396.20783 422.852411 
L 486.279585 517.394144 
z
" clip-path="url(#pc42b422c06)" style="fill: #cc913f; fill-opacity: 0.074677"/>
   </g>
   <g id="patch_362">
    <path d="M 399.380045 266.537955 
L 294.408384 377.932032 
L 246.003648 162.223485 
z
" clip-path="url(#pc42b422c06)" style="fill: #7d420a; fill-opacity: 0.764755"/>
   </g>
   <g id="patch_363">
    <path d="M 291.554926 372.226099 
L 186.917962 58.585981 
L 306.006869 164.789595 
L 503.048329 154.900243 
z
" clip-path="url(#pc42b422c06)" style="fill: #8deaef; fill-opacity: 0.217381"/>
   </g>
   <g id="patch_364">
    <path d="M 287.636086 44.10234 
L 116.449328 410.120742 
L 335.070019 223.258082 
L 524.644692 263.862926 
L 465.416685 592.31538 
z
" clip-path="url(#pc42b422c06)" style="fill: #ffffff; fill-opacity: 0.091618"/>
   </g>
   <g id="patch_365">
    <path d="M 43.951309 574.670836 
L 132.034212 672.121562 
L 276.137679 469.280553 
z
" clip-path="url(#pc42b422c06)" style="fill: #26150f; fill-opacity: 0.593464"/>
   </g>
   <g id="patch_366">
    <path d="M 266.85559 245.725687 
L 457.210552 186.696389 
L 177.011446 332.690782 
z
" clip-path="url(#pc42b422c06)" style="fill: #551b03; fill-opacity: 0.316322"/>
   </g>
   <g id="patch_367">
    <path d="M 66.304127 292.545569 
L 3.605703 618.225693 
L 20.676121 670.336225 
L 130.8106 649.040178 
L 187.666955 250.936591 
z
" clip-path="url(#pc42b422c06)" style="fill: #1a1309; fill-opacity: 0.954437"/>
   </g>
   <g id="patch_368">
    <path d="M 458.752811 282.163516 
L 496.445883 128.634786 
L 145.817878 592.080768 
L 309.842108 0.806515 
z
" clip-path="url(#pc42b422c06)" style="fill: #775404; fill-opacity: 0.08671"/>
   </g>
   <g id="patch_369">
    <path d="M 10.626133 677.204927 
L 131.738593 77.899975 
L 515.312571 197.671246 
z
" clip-path="url(#pc42b422c06)" style="fill: #fa40fd; fill-opacity: 0.05292"/>
   </g>
   <g id="patch_370">
    <path d="M 299.859336 454.004571 
L 542.705384 598.388475 
L 325.740854 63.173941 
L 552.780729 673.203816 
z
" clip-path="url(#pc42b422c06)" style="fill: #1f1b13; fill-opacity: 0.151031"/>
   </g>
   <g id="patch_371">
    <path d="M 97.284087 585.872415 
L 244.014998 484.006707 
L 503.427331 291.724021 
z
" clip-path="url(#pc42b422c06)" style="fill: #ffffff; fill-opacity: 0.948788"/>
   </g>
   <g id="patch_372">
    <path d="M 242.127782 86.772441 
L 372.785149 77.546087 
L 294.740485 266.626785 
L 106.79873 149.65844 
L 48.729528 293.352172 
z
" clip-path="url(#pc42b422c06)" style="fill: #108eff; fill-opacity: 0.271448"/>
   </g>
   <g id="patch_373">
    <path d="M 353.359604 366.001925 
L 305.424697 60.950434 
L 473.783952 109.813119 
z
" clip-path="url(#pc42b422c06)" style="fill: #969b8d"/>
   </g>
   <g id="patch_374">
    <path d="M 98.207394 587.689365 
L 382.884787 593.616988 
L 139.486936 605.948024 
L 545.118029 622.864953 
z
" clip-path="url(#pc42b422c06)" style="fill: #102800; fill-opacity: 0.069958"/>
   </g>
   <g id="patch_375">
    <path d="M 27.739793 678.649188 
L 286.22075 657.377118 
L 131.6316 479.017104 
L 32.012175 33.994276 
z
" clip-path="url(#pc42b422c06)" style="fill: #de2135; fill-opacity: 0.022153"/>
   </g>
   <g id="patch_376">
    <path d="M 31.390077 665.947023 
L 5.913022 373.485895 
L 214.751218 550.722935 
L 74.735043 623.874934 
L 332.86748 96.043963 
z
" clip-path="url(#pc42b422c06)" style="fill: #201e0b; fill-opacity: 0.291861"/>
   </g>
   <g id="patch_377">
    <path d="M 275.476371 508.942198 
L 504.532136 318.249375 
L 119.498061 662.290943 
z
" clip-path="url(#pc42b422c06)" style="fill: #054f4f; fill-opacity: 0.125063"/>
   </g>
   <g id="patch_378">
    <path d="M 473.493318 264.291046 
L 411.622816 555.771658 
L 404.852799 221.403118 
z
" clip-path="url(#pc42b422c06)" style="fill: #364b50; fill-opacity: 0.380918"/>
   </g>
   <g id="patch_379">
    <path d="M 206.114902 537.738521 
L 329.968488 335.880865 
L 226.7427 99.767628 
L 417.361671 434.228121 
L 499.25404 43.788105 
z
" clip-path="url(#pc42b422c06)" style="fill: #001700; fill-opacity: 0.124686"/>
   </g>
   <g id="patch_380">
    <path d="M 455.209887 188.578821 
L 538.680933 37.03266 
L 394.674745 29.099429 
z
" clip-path="url(#pc42b422c06)" style="fill: #1e1405; fill-opacity: 0.626762"/>
   </g>
   <g id="patch_381">
    <path d="M 110.113615 135.590459 
L 10.989015 101.227585 
L 258.917085 473.606564 
L 106.776947 658.607988 
z
" clip-path="url(#pc42b422c06)" style="fill: #272917; fill-opacity: 0.97543"/>
   </g>
   <g id="patch_382">
    <path d="M 279.832928 403.518422 
L 161.696488 404.186489 
L 128.824206 624.247336 
L 319.535656 492.958285 
L 10.466962 613.729882 
z
" clip-path="url(#pc42b422c06)" style="fill: #140000; fill-opacity: 0.202729"/>
   </g>
   <g id="patch_383">
    <path d="M 340.285217 77.140766 
L 140.702011 164.890295 
L 302.3244 401.387346 
L 296.530045 189.8028 
z
" clip-path="url(#pc42b422c06)" style="fill: #fdeac7; fill-opacity: 0.357778"/>
   </g>
   <g id="patch_384">
    <path d="M 210.780804 472.672375 
L 45.406562 619.113104 
L 479.387737 111.178153 
L 307.363016 416.575256 
z
" clip-path="url(#pc42b422c06)" style="fill: #84662a; fill-opacity: 0.495812"/>
   </g>
   <g id="patch_385">
    <path d="M 418.89144 159.066446 
L 398.811312 519.779908 
L 373.524297 504.43264 
z
" clip-path="url(#pc42b422c06)" style="fill: #363432; fill-opacity: 0.828035"/>
   </g>
   <g id="patch_386">
    <path d="M 251.357986 33.073848 
L 522.838524 333.47629 
L 562.472404 154.911567 
L 452.05393 216.109368 
z
" clip-path="url(#pc42b422c06)" style="fill: #590c00; fill-opacity: 0.028605"/>
   </g>
   <g id="patch_387">
    <path d="M 130.503385 453.438367 
L 2.215708 548.960197 
L 11.83547 186.241021 
z
" clip-path="url(#pc42b422c06)" style="fill: #295e25; fill-opacity: 0.01683"/>
   </g>
   <g id="patch_388">
    <path d="M 24.661799 334.989869 
L 132.824393 336.263073 
L 264.742304 443.629979 
L 208.617684 504.716606 
z
" clip-path="url(#pc42b422c06)" style="fill: #000a0f"/>
   </g>
   <g id="patch_389">
    <path d="M 329.51126 530.688978 
L 351.66659 439.865198 
L 354.427764 640.312051 
L 226.357031 502.013969 
z
" clip-path="url(#pc42b422c06)" style="fill: #9b8e6c; fill-opacity: 0.568527"/>
   </g>
   <g id="patch_390">
    <path d="M 435.121689 447.436772 
L 506.689093 99.831342 
L 91.509626 21.806907 
L 132.029483 169.877039 
L 354.380337 77.443149 
z
" clip-path="url(#pc42b422c06)" style="fill: #6d3600; fill-opacity: 0.187886"/>
   </g>
   <g id="patch_391">
    <path d="M 106.498193 410.614254 
L 90.180736 636.644685 
L 469.881405 195.299659 
L 414.268208 388.831228 
z
" clip-path="url(#pc42b422c06)" style="fill: #1e120e; fill-opacity: 0.402382"/>
   </g>
   <g id="patch_392">
    <path d="M 122.865046 74.729909 
L 69.354788 635.83361 
L 252.673004 36.128823 
z
" clip-path="url(#pc42b422c06)" style="fill: #000014; fill-opacity: 0.190172"/>
   </g>
   <g id="patch_393">
    <path d="M 416.270504 484.319502 
L 414.474354 424.04602 
L 236.42392 509.34192 
L 475.043892 503.363241 
z
" clip-path="url(#pc42b422c06)" style="fill: #000100; fill-opacity: 0.141583"/>
   </g>
   <g id="patch_394">
    <path d="M 92.060481 431.736358 
L 120.382229 599.38585 
L 3.11746 645.073644 
z
" clip-path="url(#pc42b422c06)" style="fill: #251b0d; fill-opacity: 0.993715"/>
   </g>
   <g id="patch_395">
    <path d="M 130.048715 577.062606 
L 414.654143 389.861043 
L 387.912834 395.484786 
L 278.03067 454.866577 
L 351.813798 423.554472 
z
" clip-path="url(#pc42b422c06)" style="fill: #756f40; fill-opacity: 0.464661"/>
   </g>
   <g id="patch_396">
    <path d="M 340.989373 59.377663 
L 502.079739 557.384803 
L 466.925251 397.110621 
L 444.694609 280.22805 
L 488.623469 389.581431 
z
" clip-path="url(#pc42b422c06)" style="fill: #bea48a; fill-opacity: 0.850305"/>
   </g>
   <g id="patch_397">
    <path d="M 384.759852 426.591379 
L 293.15436 203.591509 
L 467.057777 195.925966 
z
" clip-path="url(#pc42b422c06)" style="fill: #2f434a; fill-opacity: 0.980519"/>
   </g>
   <g id="patch_398">
    <path d="M 155.910275 58.608659 
L 383.32939 584.161737 
L 128.867849 392.782567 
L 150.738508 555.386382 
z
" clip-path="url(#pc42b422c06)" style="fill: #ffe09c; fill-opacity: 0.179618"/>
   </g>
   <g id="patch_399">
    <path d="M 221.669233 602.654081 
L 242.151709 547.3691 
L 178.164216 664.862424 
L 300.976746 146.009133 
L 262.692785 298.229051 
z
" clip-path="url(#pc42b422c06)" style="fill: #070000; fill-opacity: 0.150785"/>
   </g>
   <g id="patch_400">
    <path d="M 417.894733 105.739376 
L 220.958357 335.606502 
L 472.084472 25.932605 
L 177.650101 254.264179 
L 202.594321 200.932128 
z
" clip-path="url(#pc42b422c06)" style="fill: #fffcfd; fill-opacity: 0.117233"/>
   </g>
   <g id="patch_401">
    <path d="M 283.008433 358.014101 
L 213.917096 638.462346 
L 144.256674 595.192196 
z
" clip-path="url(#pc42b422c06)" style="fill: #000400; fill-opacity: 0.355928"/>
   </g>
   <g id="patch_402">
    <path d="M 128.23621 247.973632 
L 52.548466 249.46412 
L 431.310269 23.973321 
L 231.587621 11.989026 
L 87.634745 131.608877 
z
" clip-path="url(#pc42b422c06)" style="fill: #211a0b; fill-opacity: 0.696481"/>
   </g>
   <g id="patch_403">
    <path d="M 188.342086 520.493451 
L 57.717811 115.702922 
L 300.559117 529.555777 
z
" clip-path="url(#pc42b422c06)" style="fill-opacity: 0.077355"/>
   </g>
   <g id="patch_404">
    <path d="M 44.615485 427.658439 
L 81.3128 517.270995 
L 217.044874 477.789081 
L 184.406115 196.099833 
L 44.615485 427.658439 
z
" clip-path="url(#pc42b422c06)" style="fill: none"/>
   </g>
   <g id="patch_405">
    <path d="M 215.784958 528.755884 
L 28.444195 294.209441 
L 220.520803 495.475079 
z
" clip-path="url(#pc42b422c06)" style="fill: #1c1a08; fill-opacity: 0.806835"/>
   </g>
   <g id="patch_406">
    <path d="M 203.411553 682.549166 
L 544.859999 92.670076 
L 406.60251 648.941034 
z
" clip-path="url(#pc42b422c06)" style="fill: #8f752d; fill-opacity: 0.217722"/>
   </g>
   <g id="patch_407">
    <path d="M 194.37197 457.464498 
L 112.617303 629.694538 
L 87.654563 216.158069 
z
" clip-path="url(#pc42b422c06)" style="fill: #2b190c; fill-opacity: 0.688591"/>
   </g>
   <g id="patch_408">
    <path d="M 223.893211 535.07355 
L 83.966471 599.537267 
L 177.31627 21.738985 
L 165.111058 371.833067 
L 193.972999 663.475416 
z
" clip-path="url(#pc42b422c06)" style="fill: #1b1a0e; fill-opacity: 0.565965"/>
   </g>
   <g id="patch_409">
    <path d="M 540.237916 148.173111 
L 489.228556 187.146012 
L 530.742855 450.533434 
L 533.40028 440.436392 
z
" clip-path="url(#pc42b422c06)" style="fill: #0c0000; fill-opacity: 0.683875"/>
   </g>
   <g id="patch_410">
    <path d="M 173.455647 671.220766 
L 197.790483 522.745547 
L 478.580533 360.622834 
L 511.39351 239.537258 
z
" clip-path="url(#pc42b422c06)" style="fill: #fcd255; fill-opacity: 0.083744"/>
   </g>
   <g id="patch_411">
    <path d="M 229.042681 591.307592 
L 85.596226 546.579965 
L 244.399862 288.549378 
z
" clip-path="url(#pc42b422c06)" style="fill: #360606; fill-opacity: 0.171638"/>
   </g>
   <g id="patch_412">
    <path d="M 21.281974 407.951924 
L 10.113577 262.492383 
L 217.43697 102.567159 
L 92.314219 467.018484 
L 116.16327 51.327554 
z
" clip-path="url(#pc42b422c06)" style="fill: #27281b"/>
   </g>
   <g id="patch_413">
    <path d="M 175.240382 315.862007 
L 202.75379 407.442617 
L 158.08995 365.90509 
z
" clip-path="url(#pc42b422c06)" style="fill: #1c2212; fill-opacity: 0.691595"/>
   </g>
   <g id="patch_414">
    <path d="M 364.497534 58.625154 
L 8.75267 543.413689 
L 465.949621 79.481457 
z
" clip-path="url(#pc42b422c06)" style="fill: #e1c6f4; fill-opacity: 0.04171"/>
   </g>
   <g id="patch_415">
    <path d="M 27.093162 180.162353 
L 471.171868 154.129549 
L 314.245929 229.012836 
L 161.06518 174.147556 
z
" clip-path="url(#pc42b422c06)" style="fill: #0e3441; fill-opacity: 0.101773"/>
   </g>
   <g id="patch_416">
    <path d="M 531.679934 478.688709 
L 393.920266 191.839116 
L 259.19095 555.698269 
L 274.434182 178.564851 
L 557.896225 189.433156 
z
" clip-path="url(#pc42b422c06)" style="fill: #98ab9e; fill-opacity: 0.152698"/>
   </g>
   <g id="patch_417">
    <path d="M 556.336742 148.760317 
L 575.612243 319.968421 
L 335.122988 229.662902 
z
" clip-path="url(#pc42b422c06)" style="fill: #ffaf54; fill-opacity: 0.10487"/>
   </g>
   <g id="patch_418">
    <path d="M 363.415806 572.598415 
L 486.082838 353.180853 
L 543.210033 331.827175 
L 388.823422 138.062783 
L 286.045697 520.03146 
z
" clip-path="url(#pc42b422c06)" style="fill: #dbeba7; fill-opacity: 0.049298"/>
   </g>
   <g id="patch_419">
    <path d="M 473.449729 636.196688 
L 369.154066 668.722265 
L 103.607653 643.995311 
L 354.398681 598.5983 
L 464.232152 466.620993 
z
" clip-path="url(#pc42b422c06)" style="fill: #6b7358; fill-opacity: 0.143614"/>
   </g>
   <g id="patch_420">
    <path d="M 4.526626 385.885766 
L 147.573935 348.18465 
L 46.236741 56.949576 
z
" clip-path="url(#pc42b422c06)" style="fill: #282912; fill-opacity: 0.462551"/>
   </g>
   <g id="patch_421">
    <path d="M 89.386145 271.470995 
L 30.547674 464.274165 
L 361.730628 458.030705 
L 254.752769 198.87853 
L 469.075369 681.472524 
z
" clip-path="url(#pc42b422c06)" style="fill: #86500e; fill-opacity: 0.033688"/>
   </g>
   <g id="patch_422">
    <path d="M 305.771431 584.164088 
L 537.079502 552.261704 
L 306.694029 663.110685 
L 39.53418 84.734884 
L 145.645849 497.582662 
z
" clip-path="url(#pc42b422c06)" style="fill: #333d26; fill-opacity: 0.118925"/>
   </g>
   <g id="patch_423">
    <path d="M 35.848949 315.034304 
L 257.811315 614.913599 
L 475.92057 602.18637 
L 255.914355 593.480592 
L 94.470045 87.155778 
z
" clip-path="url(#pc42b422c06)" style="fill: #351c20; fill-opacity: 0.163853"/>
   </g>
   <g id="patch_424">
    <path d="M 574.820768 635.474316 
L 554.109224 19.296728 
L 500.915239 149.637601 
L 426.823163 89.710129 
z
" clip-path="url(#pc42b422c06)" style="fill: #1a140f; fill-opacity: 0.483238"/>
   </g>
   <g id="patch_425">
    <path d="M 229.252804 483.599264 
L 67.444336 275.038162 
L 6.993317 635.688056 
L 241.651987 46.817382 
L 95.100801 498.676285 
z
" clip-path="url(#pc42b422c06)" style="fill: #272214; fill-opacity: 0.774424"/>
   </g>
   <g id="patch_426">
    <path d="M 418.573654 42.92743 
L 440.29682 384.471406 
L 182.980404 424.869796 
z
" clip-path="url(#pc42b422c06)" style="fill: #020020; fill-opacity: 0.131306"/>
   </g>
   <g id="patch_427">
    <path d="M 243.093766 265.255129 
L 462.74688 196.415191 
L 243.190106 264.464558 
L 366.67416 446.92629 
L 463.389333 280.719535 
z
" clip-path="url(#pc42b422c06)" style="fill: #de0000; fill-opacity: 0.061651"/>
   </g>
   <g id="patch_428">
    <path d="M 318.906945 580.260899 
L 408.948797 70.89562 
L 215.835267 555.471691 
L 395.749383 175.146889 
L 355.404305 149.531229 
z
" clip-path="url(#pc42b422c06)" style="fill: #414a49; fill-opacity: 0.257632"/>
   </g>
   <g id="patch_429">
    <path d="M 122.834649 179.22758 
L 174.146757 670.534283 
L 88.840813 378.98519 
z
" clip-path="url(#pc42b422c06)" style="fill: #282115; fill-opacity: 0.836912"/>
   </g>
   <g id="patch_430">
    <path d="M 486.631094 143.157872 
L 499.209948 96.607767 
L 313.238375 291.307105 
L 564.865698 7.005454 
L 507.167254 612.983248 
z
" clip-path="url(#pc42b422c06)" style="fill: #1b181a; fill-opacity: 0.34719"/>
   </g>
   <g id="patch_431">
    <path d="M 369.158174 180.083448 
L 402.276886 230.503703 
L 385.849936 591.178807 
L 455.580132 535.101426 
z
" clip-path="url(#pc42b422c06)" style="fill: #373f3d; fill-opacity: 0.429822"/>
   </g>
  </g>
 </g>
 <defs>
  <clipPath id="pc42b422c06">
   <rect x="0" y="0" width="576" height="682.56"/>
  </clipPath>
 </defs>
</svg>
